<?xml version="1.0" standalone="no"?>
<!DOCTYPE svg PUBLIC "-//W3C//DTD SVG 20010904//EN"
 "http://www.w3.org/TR/2001/REC-SVG-20010904/DTD/svg10.dtd">
<svg version="1.0" xmlns="http://www.w3.org/2000/svg"
 width="512.000000pt" height="512.000000pt" viewBox="0 0 512.000000 512.000000"
 preserveAspectRatio="xMidYMid meet">
<metadata>
Created by potrace 1.11, written by Peter Selinger 2001-2013
</metadata>
<g transform="translate(0.000000,512.000000) scale(0.100000,-0.100000)"
fill="#000000" stroke="none">
<path d="M1498 3650 c-185 -31 -371 -137 -464 -262 -118 -161 -119 -392 -3
-584 58 -95 145 -179 329 -319 265 -201 332 -287 339 -438 3 -71 0 -84 -28
-142 -36 -73 -68 -103 -155 -147 -128 -65 -410 -95 -586 -63 -52 9 -101 18
-109 18 -25 3 -54 -61 -59 -133 -6 -84 -5 -85 150 -105 284 -38 540 -6 738 91
77 39 109 62 175 128 138 139 197 289 176 448 -29 216 -125 349 -404 560 -261
196 -336 288 -352 428 -24 209 170 340 459 310 51 -5 105 -14 119 -19 35 -13
61 8 81 66 20 58 21 117 1 133 -36 30 -294 49 -407 30z"/>
<path d="M2524 3611 c-14 -6 -23 -22 -27 -48 -12 -76 -17 -383 -22 -1173 -3
-615 -1 -811 8 -830 7 -13 27 -33 46 -43 31 -19 51 -20 275 -18 673 5 995 98
1258 363 136 138 227 296 276 478 21 81 25 116 25 245 0 106 -5 174 -17 230
-82 374 -355 619 -819 735 -213 53 -303 62 -657 66 -183 2 -334 0 -346 -5z
m757 -257 c414 -71 649 -253 728 -564 64 -253 20 -531 -111 -705 -154 -203
-427 -319 -838 -355 -63 -5 -152 -10 -198 -10 l-83 0 3 815 c3 712 5 817 18
825 26 16 375 12 481 -6z"/>
</g>
</svg>
