<?xml version="1.0" encoding="UTF-8" standalone="no"?><!DOCTYPE svg PUBLIC "-//W3C//DTD SVG 1.1//EN" "http://www.w3.org/Graphics/SVG/1.1/DTD/svg11.dtd"><svg width="100%" height="100%" viewBox="0 0 1280 800" version="1.1" xmlns="http://www.w3.org/2000/svg" xmlns:xlink="http://www.w3.org/1999/xlink" xml:space="preserve" xmlns:serif="http://www.serif.com/" style="fill-rule:evenodd;clip-rule:evenodd;stroke-linecap:round;stroke-linejoin:round;stroke-miterlimit:1.5;"><g><g id="Google-Cloud" serif:id="Google Cloud"><rect x="185.317" y="290.378" width="667.457" height="458.842" style="fill:none;stroke:#000;stroke-width:2px;stroke-dasharray:8,8,0,0;"/><rect x="600.691" y="267.768" width="230.347" height="45.218" style="fill:#fff;"/><clipPath id="_clip1"><rect id="Google_Cloud_Logo" x="612.228" y="274.047" width="204.26" height="32"/></clipPath><g clip-path="url(#_clip1)"><g><g><path d="M636.255,282.438l1.154,0l3.292,-3.291l0.161,-1.398c-6.125,-5.407 -15.474,-4.823 -20.881,1.303c-1.502,1.7 -2.591,3.725 -3.187,5.916c0.366,-0.15 0.773,-0.175 1.155,-0.068l6.582,-1.086c0,0 0.334,-0.555 0.509,-0.521c2.928,-3.216 7.856,-3.591 11.238,-0.855l-0.023,0Z" style="fill:#ea4335;fill-rule:nonzero;"/><path d="M645.39,284.968c-0.757,-2.786 -2.31,-5.291 -4.469,-7.205l-4.618,4.619c1.95,1.593 3.061,3.995 3.013,6.514l0,0.82c2.271,0 4.112,1.841 4.112,4.112c0,2.271 -1.841,4.112 -4.112,4.112l-8.223,0l-0.82,0.831l0,4.933l0.82,0.82l8.223,0c5.905,0.046 10.731,-4.705 10.776,-10.61c0.027,-3.586 -1.739,-6.941 -4.702,-8.946Z" style="fill:#4285f4;fill-rule:nonzero;"/><path d="M622.858,304.472l8.224,0l0,-6.582l-8.224,0c-0.586,0 -1.163,-0.128 -1.697,-0.371l-1.155,0.359l-3.314,3.291l-0.289,1.155c1.857,1.405 4.126,2.159 6.455,2.148Z" style="fill:#34a853;fill-rule:nonzero;"/><path d="M622.858,283.12c-5.907,0.034 -10.664,4.851 -10.63,10.758c0.021,3.298 1.559,6.403 4.175,8.412l4.769,-4.769c-2.068,-0.934 -2.989,-3.37 -2.055,-5.439c0.934,-2.068 3.371,-2.989 5.439,-2.054c0.912,0.411 1.641,1.143 2.055,2.054l4.768,-4.768c-2.027,-2.655 -5.182,-4.207 -8.521,-4.194Z" style="fill:#fbbc05;fill-rule:nonzero;"/></g><g><g><path d="M671.985,299.876c-2.862,0.036 -5.612,-1.093 -7.621,-3.13c-2.075,-1.95 -3.235,-4.682 -3.198,-7.53c-0.034,-2.848 1.125,-5.577 3.198,-7.53c2,-2.057 4.752,-3.209 7.621,-3.186c2.732,-0.037 5.366,1.025 7.309,2.945l-2.054,2.091c-1.407,-1.361 -3.298,-2.107 -5.255,-2.079c-2.053,-0.025 -4.023,0.813 -5.428,2.309c-1.459,1.448 -2.264,3.43 -2.23,5.484c-0.018,2.032 0.787,3.985 2.23,5.417c2.973,2.963 7.766,3.02 10.81,0.127c0.907,-0.991 1.461,-2.255 1.582,-3.591l-6.93,0l0,-2.955l9.805,0c0.095,0.595 0.134,1.198 0.116,1.802c0.123,2.521 -0.791,4.983 -2.53,6.814c-1.934,2.012 -4.634,3.108 -7.425,3.012Zm22.797,-1.964c-2.735,2.621 -7.049,2.621 -9.783,0c-1.325,-1.284 -2.048,-3.064 -1.998,-4.907c-0.05,-1.843 0.675,-3.623 1.998,-4.907c2.737,-2.614 7.046,-2.614 9.783,0c1.323,1.284 2.048,3.064 1.998,4.907c0.047,1.846 -0.682,3.625 -2.01,4.907l0.012,0Zm-7.624,-1.927c1.412,1.509 3.78,1.586 5.289,0.173c0.06,-0.057 0.119,-0.114 0.173,-0.173c0.771,-0.798 1.187,-1.871 1.155,-2.98c0.034,-1.111 -0.382,-2.191 -1.155,-2.991c-1.452,-1.514 -3.857,-1.566 -5.373,-0.114c-0.039,0.037 -0.077,0.075 -0.114,0.114c-0.772,0.8 -1.188,1.88 -1.154,2.991c-0.03,1.109 0.391,2.184 1.166,2.98l0.013,0Zm22.659,1.927c-2.734,2.621 -7.048,2.621 -9.783,0c-1.325,-1.284 -2.048,-3.064 -1.998,-4.907c-0.05,-1.843 0.676,-3.623 1.998,-4.907c2.735,-2.621 7.049,-2.621 9.783,0c1.323,1.284 2.048,3.064 1.998,4.907c0.052,1.843 -0.673,3.623 -1.998,4.907Zm-7.621,-1.927c1.411,1.509 3.78,1.586 5.289,0.173c0.059,-0.057 0.118,-0.114 0.173,-0.173c0.77,-0.798 1.186,-1.871 1.154,-2.98c0.034,-1.111 -0.382,-2.191 -1.154,-2.991c-1.453,-1.514 -3.857,-1.566 -5.371,-0.114c-0.039,0.037 -0.077,0.075 -0.114,0.114c-0.773,0.8 -1.189,1.88 -1.154,2.991c-0.03,1.109 0.39,2.184 1.166,2.98l0.011,0Zm17.506,10.057c-1.385,0.044 -2.741,-0.388 -3.846,-1.225c-0.98,-0.736 -1.752,-1.716 -2.241,-2.841l2.632,-1.098c0.286,0.673 0.734,1.264 1.305,1.721c0.609,0.491 1.375,0.75 2.159,0.727c1.004,0.062 1.986,-0.318 2.691,-1.038c0.695,-0.839 1.039,-1.916 0.959,-3.003l0,-0.993l-0.105,0c-0.893,1.059 -2.232,1.636 -3.613,1.559c-1.753,0.005 -3.428,-0.723 -4.619,-2.009c-1.291,-1.275 -2.005,-3.023 -1.975,-4.839c-0.032,-1.825 0.682,-3.585 1.975,-4.873c1.189,-1.291 2.864,-2.025 4.619,-2.021c0.734,-0.002 1.461,0.162 2.125,0.473c0.575,0.25 1.086,0.625 1.502,1.098l0.105,0l0,-1.098l2.863,0l0,12.299c0.153,1.966 -0.511,3.909 -1.836,5.37c-1.261,1.207 -2.955,1.853 -4.7,1.791Zm0.209,-8.868c0.998,0.022 1.954,-0.403 2.609,-1.155c0.711,-0.816 1.089,-1.873 1.05,-2.957c0.043,-1.102 -0.332,-2.178 -1.05,-3.014c-0.655,-0.755 -1.611,-1.177 -2.609,-1.155c-1.025,-0.02 -2.009,0.4 -2.703,1.155c-0.763,0.807 -1.179,1.882 -1.154,2.991c-0.023,1.1 0.391,2.164 1.154,2.957c0.689,0.762 1.673,1.191 2.703,1.178Zm11.421,-17.899l0,20.185l-3.014,0l0,-20.185l3.014,0Zm8.269,20.601c-1.825,0.048 -3.587,-0.668 -4.862,-1.975c-1.293,-1.296 -2,-3.066 -1.952,-4.896c-0.068,-1.834 0.611,-3.618 1.882,-4.943c1.2,-1.264 2.877,-1.964 4.618,-1.93c0.793,-0.009 1.578,0.145 2.309,0.45c0.66,0.266 1.26,0.659 1.766,1.155c0.437,0.42 0.823,0.888 1.155,1.397c0.268,0.43 0.496,0.882 0.682,1.35l0.311,0.787l-9.237,3.8c0.573,1.314 1.894,2.141 3.326,2.08c1.384,0.004 2.668,-0.721 3.384,-1.905l2.309,1.559c-0.589,0.844 -1.343,1.56 -2.218,2.103c-1.037,0.654 -2.246,0.991 -3.473,0.968Zm-3.857,-7.08l6.143,-2.552c-0.188,-0.45 -0.527,-0.821 -0.959,-1.051c-0.482,-0.272 -1.027,-0.411 -1.582,-0.404c-0.938,0.025 -1.832,0.418 -2.482,1.098c-0.788,0.754 -1.2,1.82 -1.12,2.909Z" style="fill:#5f6368;fill-rule:nonzero;"/></g><g><path d="M761.3,299.876c-5.255,0.091 -9.587,-4.096 -9.678,-9.351c-0.002,-0.127 -0.002,-0.256 0.002,-0.384c-0.122,-5.255 4.039,-9.612 9.292,-9.735c0.127,-0.002 0.257,-0.002 0.384,-0.002c2.628,-0.082 5.15,1.041 6.848,3.048l-1.663,1.616c-1.248,-1.57 -3.171,-2.45 -5.174,-2.368c-1.92,-0.043 -3.777,0.7 -5.139,2.055c-1.416,1.425 -2.172,3.375 -2.091,5.382c-0.084,2.007 0.675,3.957 2.091,5.382c1.362,1.357 3.219,2.098 5.139,2.055c2.237,0.025 4.362,-0.971 5.774,-2.703l1.663,1.664c-0.87,1.041 -1.963,1.873 -3.198,2.436c-1.332,0.619 -2.784,0.928 -4.25,0.905Z" style="fill:#5f6368;fill-rule:nonzero;"/><rect x="770.826" y="280.809" width="2.391" height="18.651" style="fill:#5f6368;fill-rule:nonzero;"/><path d="M777.122,288.234c2.607,-2.589 6.816,-2.589 9.423,0c1.237,1.307 1.902,3.053 1.848,4.851c0.054,1.798 -0.611,3.543 -1.848,4.85c-2.607,2.589 -6.816,2.589 -9.423,0c-1.237,-1.307 -1.903,-3.052 -1.848,-4.85c-0.055,-1.798 0.609,-3.544 1.848,-4.851Zm1.777,8.201c1.53,1.616 4.08,1.686 5.698,0.157c0.055,-0.05 0.107,-0.105 0.157,-0.157c0.843,-0.905 1.289,-2.112 1.236,-3.348c0.055,-1.237 -0.39,-2.443 -1.236,-3.348c-1.53,-1.616 -4.08,-1.687 -5.698,-0.157c-0.055,0.05 -0.107,0.105 -0.157,0.157c-0.843,0.905 -1.289,2.111 -1.236,3.348c-0.048,1.234 0.402,2.436 1.247,3.337l-0.011,0.011Z" style="fill:#5f6368;fill-rule:nonzero;"/><path d="M801.639,299.46l-2.311,0l0,-1.766l-0.068,0c-0.412,0.671 -0.994,1.221 -1.687,1.593c-0.718,0.416 -1.536,0.637 -2.368,0.635c-1.369,0.093 -2.703,-0.444 -3.625,-1.455c-0.876,-1.107 -1.314,-2.496 -1.237,-3.903l0,-7.853l2.391,0l0,7.415c0,2.379 1.05,3.568 3.153,3.568c0.947,0.03 1.85,-0.4 2.425,-1.155c0.62,-0.784 0.95,-1.759 0.936,-2.759l0,-7.069l2.391,0l0,12.749Z" style="fill:#5f6368;fill-rule:nonzero;"/><path d="M809.756,299.876c-1.641,0.005 -3.203,-0.707 -4.273,-1.952c-1.198,-1.323 -1.839,-3.055 -1.791,-4.839c-0.048,-1.785 0.593,-3.517 1.791,-4.839c1.07,-1.244 2.632,-1.957 4.273,-1.953c0.909,-0.013 1.807,0.2 2.609,0.623c0.707,0.355 1.305,0.893 1.732,1.559l0.105,0l-0.105,-1.766l0,-5.9l2.391,0l0,18.651l-2.309,0l0,-1.766l-0.105,0c-0.427,0.666 -1.025,1.205 -1.732,1.559c-0.795,0.418 -1.684,0.634 -2.586,0.623Zm0.393,-2.182c1.093,0.016 2.141,-0.439 2.875,-1.248c0.812,-0.925 1.228,-2.132 1.155,-3.361c0.073,-1.228 -0.343,-2.437 -1.155,-3.362c-1.45,-1.596 -3.918,-1.711 -5.514,-0.259c-0.091,0.082 -0.177,0.17 -0.259,0.259c-0.814,0.918 -1.23,2.123 -1.155,3.348c-0.075,1.225 0.341,2.43 1.155,3.348c0.736,0.827 1.793,1.291 2.898,1.275Z" style="fill:#5f6368;fill-rule:nonzero;"/></g></g></g></g><rect x="600.691" y="267.768" width="230.347" height="45.218" style="fill:none;stroke:#000;stroke-width:2px;"/></g><g id="centOS"><rect x="204.83" y="346.463" width="629.611" height="382.321" style="fill:none;stroke:#000;stroke-width:2px;stroke-dasharray:8,8,0,0;"/><rect x="515.11" y="324.956" width="295.622" height="43.708" style="fill:#fff;"/><clipPath id="_clip2"><rect x="515.11" y="324.956" width="295.622" height="43.708"/></clipPath><g clip-path="url(#_clip2)"><text x="666.018px" y="355.115px" style="font-family:'ArialMT', 'Arial', sans-serif;font-size:24px;">VM instance</text><clipPath id="_clip3"><rect id="Centos-logo-light" x="517.763" y="322.666" width="142.27" height="48"/></clipPath><g clip-path="url(#_clip3)"><g id="layer1"><g id="g5189"><rect id="rect5183" x="517.763" y="322.666" width="142.27" height="48" style="fill:#fff;fill-opacity:0;"/><path id="text5083-9" d="M579.771,355.48l-7.45,0c-0.755,0 -1.502,-0.11 -2.242,-0.328c-1.43,-0.454 -2.563,-1.498 -3.399,-3.129c-0.755,-1.481 -1.133,-3.205 -1.133,-5.174c0,-1.901 0.337,-3.583 1.012,-5.047c0.74,-1.615 1.793,-2.717 3.159,-3.305c1.06,-0.455 2.145,-0.682 3.254,-0.682l6.751,0l0,3.382l-7.016,0c-1.141,0 -1.969,0.647 -2.483,1.943c-0.402,1.009 -0.603,2.33 -0.603,3.962c0,1.379 0.257,2.548 0.772,3.507c0.594,1.128 1.43,1.691 2.507,1.691l6.871,-0.025l0,3.205m12.407,0.075l-5.882,0c-1.431,0 -2.676,-0.639 -3.737,-1.917c-1.045,-1.296 -1.567,-2.785 -1.567,-4.467c0,-1.834 0.57,-3.415 1.712,-4.744c1.157,-1.346 2.443,-2.019 3.857,-2.019l5.593,0l0,2.7l-4.098,0c-0.515,0 -0.957,0.051 -1.326,0.152c-0.354,0.084 -0.683,0.26 -0.989,0.529c-0.562,0.505 -0.844,1.187 -0.844,2.045l7.233,0l0,2.725l-7.208,0c0,0.404 0.04,0.749 0.12,1.035c0.097,0.269 0.281,0.546 0.555,0.832c0.273,0.269 0.594,0.455 0.964,0.555c0.386,0.085 0.852,0.127 1.398,0.127l4.219,0l0,2.447m13.749,-0.075l-3.351,0l0,-8.605c0,-0.219 -0.049,-0.413 -0.145,-0.581c-0.097,-0.185 -0.233,-0.362 -0.41,-0.53c-0.321,-0.286 -0.691,-0.429 -1.109,-0.429l-3.279,0l0,10.145l-3.351,0l0,-13.072l6.413,0c1.141,0 1.969,0.067 2.483,0.202c0.804,0.202 1.447,0.648 1.929,1.337c0.546,0.808 0.82,1.691 0.82,2.65l0,8.883m9.625,-10.347l-3.255,0l0,5.931c0,0.538 0.177,0.984 0.53,1.337c0.402,0.353 0.932,0.53 1.591,0.53l0.989,0l0,2.549l-3.11,0c-0.932,0 -1.728,-0.354 -2.387,-1.06c-0.386,-0.421 -0.635,-0.883 -0.747,-1.388c-0.113,-0.505 -0.169,-1.102 -0.169,-1.792l0,-6.107l-2.122,0l0,-2.725l2.122,0l0,-4.593l3.303,0l0,4.593l3.255,0l0,2.725m19.674,1.489c0,3.432 -0.908,5.888 -2.725,7.369c-1.478,1.194 -3.632,1.792 -6.461,1.792c-3.134,0 -5.448,-0.69 -6.943,-2.07c-1.64,-1.514 -2.459,-3.945 -2.459,-7.293c0,-2.742 0.731,-4.878 2.194,-6.409c1.591,-1.666 3.97,-2.499 7.136,-2.499c3.488,0 5.947,0.799 7.377,2.398c1.254,1.413 1.881,3.65 1.881,6.712m-4.292,-0.101c0,-1.733 -0.393,-3.112 -1.181,-4.138c-0.884,-1.144 -2.194,-1.716 -3.93,-1.716c-1.703,0 -2.989,0.614 -3.857,1.842c-0.724,1.026 -1.085,2.364 -1.085,4.012c0,1.901 0.289,3.306 0.868,4.215c0.803,1.261 2.29,1.892 4.46,1.892c1.832,0 3.118,-0.614 3.857,-1.842c0.579,-0.959 0.868,-2.38 0.868,-4.265m23.59,3.483c0,1.547 -0.49,2.851 -1.471,3.911c-0.98,1.06 -2.226,1.59 -3.736,1.59l-11.935,-0.025l0,-3.18l9.837,0c0.659,0 1.214,-0.16 1.664,-0.479c0.514,-0.37 0.771,-0.875 0.771,-1.514c0,-1.498 -1.013,-2.246 -3.038,-2.246l-4.966,0c-1.431,0 -2.684,-0.463 -3.761,-1.388c-1.077,-0.926 -1.616,-2.103 -1.616,-3.533c0,-1.582 0.523,-2.86 1.568,-3.836c1.06,-0.993 2.451,-1.489 4.17,-1.489l11.404,0l0,3.028l-10.053,0c-0.45,0 -0.909,0.202 -1.375,0.606c-0.45,0.387 -0.675,0.85 -0.675,1.388c0,0.606 0.217,1.119 0.651,1.539c0.45,0.404 0.989,0.606 1.616,0.606l5.472,0c1.704,0 3.038,0.463 4.002,1.388c0.981,0.908 1.471,2.12 1.471,3.634" style="fill-rule:nonzero;"/><g id="g3664"><g id="g12802"><g id="g12804"><g id="g12806"><path id="path12808" d="M538.75,345.427l1.334,1.326l-1.334,1.327l-9.389,0l0,4.419l-5.726,-5.746l5.726,-5.648l0,4.322l9.389,0Z" style="fill:#932279;"/></g></g></g><g id="g12768"><g id="g12770"><g id="g12772"><path id="path12774" d="M543.002,343.869l-1.327,1.334l-1.326,-1.334l0,-9.39l-4.419,0l5.745,-5.726l5.649,5.726l-4.322,0l0,9.39Z" style="fill:#efa724;"/></g></g></g><g id="g12780"><g id="g12782"><path id="path12784" d="M544.56,348.12l-1.334,-1.326l1.334,-1.326l9.389,0l0,-4.419l5.726,5.745l-5.726,5.649l0,-4.323l-9.389,0Z" style="fill:#262577;"/></g></g><g id="g12790"><g id="g12792"><g id="g12794"><path id="path12796" d="M540.308,349.679l1.326,-1.334l1.327,1.334l0,9.389l4.419,0l-5.746,5.726l-5.648,-5.726l4.322,0l0,-9.389Z" style="fill:#9ccd2a;"/></g></g></g><g id="g12742"><rect id="rect12744" x="529.024" y="334.143" width="11.409" height="11.409" style="fill:#9ccd2a;fill-rule:nonzero;stroke:#fff;stroke-width:0.81px;stroke-linecap:butt;stroke-linejoin:miter;stroke-miterlimit:4;"/><rect id="rect12746" x="542.877" y="334.143" width="11.409" height="11.409" style="fill:#932279;fill-rule:nonzero;stroke:#fff;stroke-width:0.81px;stroke-linecap:butt;stroke-linejoin:miter;stroke-miterlimit:4;"/><rect id="rect12748" x="542.877" y="347.996" width="11.409" height="11.409" style="fill:#efa724;fill-rule:nonzero;stroke:#fff;stroke-width:0.81px;stroke-linecap:butt;stroke-linejoin:miter;stroke-miterlimit:4;"/><rect id="rect12750" x="529.024" y="347.996" width="11.409" height="11.409" style="fill:#262577;fill-rule:nonzero;stroke:#fff;stroke-width:0.81px;stroke-linecap:butt;stroke-linejoin:miter;stroke-miterlimit:4;"/></g><path id="rect12760" d="M523.792,346.774l8.067,-8.067l8.067,8.067l-8.067,8.067l-8.067,-8.067Z" style="fill:none;fill-rule:nonzero;stroke:#fff;stroke-width:0.81px;stroke-linecap:butt;stroke-linejoin:miter;stroke-miterlimit:4;"/><path id="rect12762" d="M533.588,336.978l8.067,-8.067l8.067,8.067l-8.067,8.067l-8.067,-8.067Z" style="fill:none;fill-rule:nonzero;stroke:#fff;stroke-width:0.81px;stroke-linecap:butt;stroke-linejoin:miter;stroke-miterlimit:4;"/><path id="rect12764" d="M543.384,346.774l8.067,-8.067l8.067,8.067l-8.067,8.067l-8.067,-8.067Z" style="fill:none;fill-rule:nonzero;stroke:#fff;stroke-width:0.81px;stroke-linecap:butt;stroke-linejoin:miter;stroke-miterlimit:4;"/><path id="rect12766" d="M533.588,356.57l8.067,-8.068l8.067,8.068l-8.067,8.067l-8.067,-8.067Z" style="fill:none;fill-rule:nonzero;stroke:#fff;stroke-width:0.81px;stroke-linecap:butt;stroke-linejoin:miter;stroke-miterlimit:4;"/></g></g></g></g></g><rect x="515.11" y="324.956" width="295.622" height="43.708" style="fill:none;stroke:#000;stroke-width:2px;stroke-miterlimit:0.54878;"/></g><g id="Disks"><rect x="561.264" y="412.469" width="244.368" height="105.751" style="fill:none;stroke:#000;stroke-width:2px;stroke-miterlimit:0.54878;stroke-dasharray:8,8,0,0;"/><g><text x="649.776px" y="474.786px" style="font-family:'ArialMT', 'Arial', sans-serif;font-size:24px;">Local storage</text><path id="server" d="M604.533,443.194l30.529,0c1.054,0 1.908,0.854 1.908,1.908l0,7.632c0,1.054 -0.854,1.908 -1.908,1.908l-30.529,0c-1.054,0 -1.908,-0.854 -1.908,-1.908l0,-7.632c0,-1.054 0.854,-1.908 1.908,-1.908Zm0,15.265l30.529,0c1.054,0 1.908,0.854 1.908,1.908l0,7.632c0,1.054 -0.854,1.908 -1.908,1.908l-30.529,0c-1.054,0 -1.908,-0.854 -1.908,-1.908l0,-7.632c0,-1.054 0.854,-1.908 1.908,-1.908Zm0,15.264l30.529,0c1.054,0 1.908,0.854 1.908,1.908l0,7.632c0,1.054 -0.854,1.908 -1.908,1.908l-30.529,0c-1.054,0 -1.908,-0.854 -1.908,-1.908l0,-7.632c0,-1.054 0.854,-1.908 1.908,-1.908Zm9.54,-22.897l1.908,0l0,-3.816l-1.908,0l0,3.816Zm0,15.265l1.908,0l0,-3.816l-1.908,0l0,3.816Zm0,15.264l1.908,0l0,-3.816l-1.908,0l0,3.816Zm-7.632,-34.345l0,3.816l3.816,0l0,-3.816l-3.816,0Zm0,15.265l0,3.816l3.816,0l0,-3.816l-3.816,0Zm0,15.264l0,3.816l3.816,0l0,-3.816l-3.816,0Z" style="fill-rule:nonzero;"/></g></g><g id="PHP"><g id="g3438"><g id="g3440"><g id="g3442"><clipPath id="_clip4"><path d="M320.869,634.988c0,12.564 18.886,22.749 42.181,22.749c23.296,0 42.181,-10.185 42.181,-22.749c0,-12.563 -18.885,-22.748 -42.181,-22.748c-23.295,0 -42.181,10.185 -42.181,22.748"/></clipPath><g clip-path="url(#_clip4)"><g id="g3448"><g id="g3450"><path id="path3462" d="M320.869,634.988c0,12.564 18.886,22.749 42.181,22.749c23.296,0 42.181,-10.185 42.181,-22.749c0,-12.563 -18.885,-22.748 -42.181,-22.748c-23.295,0 -42.181,10.185 -42.181,22.748" style="fill:url(#_Radial5);fill-rule:nonzero;"/></g></g></g></g></g><g id="g3464"><g id="g3466"><g id="g3472"><path id="path3474" d="M363.05,656.048c22.386,0 40.533,-9.429 40.533,-21.06c0,-11.631 -18.147,-21.06 -40.533,-21.06c-22.385,0 -40.533,9.429 -40.533,21.06c0,11.631 18.148,21.06 40.533,21.06" style="fill:#777bb3;fill-rule:nonzero;"/></g></g></g><g id="g3476"><g id="g3478"><g id="g3484"><path id="path3486" d="M343.787,637.599c1.84,0 3.214,-0.348 4.084,-1.034c0.86,-0.679 1.454,-1.855 1.765,-3.496c0.291,-1.534 0.18,-2.605 -0.328,-3.183c-0.52,-0.59 -1.644,-0.889 -3.34,-0.889l-2.942,0l-1.631,8.602l2.392,0Zm-9.622,10.597c-0.136,0 -0.266,-0.062 -0.353,-0.17c-0.087,-0.109 -0.122,-0.251 -0.096,-0.388l4.322,-22.798c0.042,-0.22 0.23,-0.379 0.449,-0.379l9.315,0c2.927,0 5.106,0.814 6.476,2.422c1.377,1.616 1.802,3.875 1.264,6.713c-0.219,1.157 -0.596,2.231 -1.12,3.193c-0.525,0.962 -1.218,1.853 -2.062,2.648c-1.009,0.968 -2.151,1.671 -3.392,2.084c-1.221,0.408 -2.789,0.614 -4.661,0.614l-3.771,0l-1.077,5.682c-0.042,0.22 -0.23,0.379 -0.449,0.379l-4.845,0Z" style="fill-rule:nonzero;"/></g><g id="g3488"><path id="path3490" d="M343.404,629.466l2.564,0c2.047,0 2.759,0.46 3,0.735c0.401,0.456 0.477,1.417 0.219,2.779c-0.289,1.525 -0.826,2.606 -1.595,3.213c-0.788,0.622 -2.068,0.937 -3.805,0.937l-1.836,0l1.453,-7.664Zm4.398,-5.475l-9.315,0c-0.438,0 -0.815,0.319 -0.898,0.76l-4.322,22.797c-0.052,0.275 0.018,0.56 0.192,0.776c0.174,0.216 0.433,0.342 0.706,0.342l4.844,0c0.439,0 0.815,-0.319 0.899,-0.76l1.005,-5.302l3.394,0c1.92,0 3.536,-0.214 4.803,-0.637c1.303,-0.434 2.502,-1.17 3.563,-2.188c0.878,-0.827 1.6,-1.756 2.148,-2.761c0.548,-1.006 0.942,-2.127 1.17,-3.332c0.567,-2.988 0.106,-5.381 -1.368,-7.112c-1.461,-1.714 -3.756,-2.583 -6.821,-2.583m-6.962,14.077l2.947,0c1.953,0 3.407,-0.377 4.363,-1.131c0.956,-0.755 1.601,-2.014 1.936,-3.779c0.32,-1.694 0.174,-2.889 -0.438,-3.586c-0.614,-0.696 -1.84,-1.045 -3.68,-1.045l-3.319,0l-1.809,9.541m6.962,-13.138c2.802,0 4.846,0.754 6.131,2.262c1.285,1.508 1.672,3.612 1.159,6.315c-0.211,1.113 -0.567,2.131 -1.07,3.053c-0.503,0.923 -1.16,1.766 -1.971,2.531c-0.968,0.928 -2.042,1.59 -3.224,1.983c-1.183,0.395 -2.689,0.592 -4.52,0.592l-4.149,0l-1.149,6.061l-4.844,0l4.322,-22.797l9.315,0" style="fill:#fff;fill-rule:nonzero;"/></g><g id="g3492"><path id="path3494" d="M366.648,642.135c-0.137,0 -0.266,-0.062 -0.353,-0.171c-0.087,-0.108 -0.122,-0.25 -0.096,-0.387l1.912,-10.087c0.181,-0.96 0.137,-1.648 -0.127,-1.939c-0.161,-0.178 -0.645,-0.476 -2.076,-0.476l-3.463,0l-2.404,12.681c-0.042,0.22 -0.23,0.379 -0.449,0.379l-4.806,0c-0.136,0 -0.266,-0.062 -0.353,-0.171c-0.087,-0.108 -0.122,-0.25 -0.096,-0.387l4.322,-22.798c0.042,-0.22 0.23,-0.38 0.449,-0.38l4.806,0c0.136,0 0.266,0.063 0.353,0.171c0.087,0.108 0.122,0.251 0.096,0.388l-1.043,5.503l3.726,0c2.839,0 4.763,0.513 5.884,1.568c1.143,1.077 1.5,2.798 1.06,5.118l-2.011,10.609c-0.041,0.22 -0.23,0.379 -0.449,0.379l-4.882,0Z" style="fill-rule:nonzero;"/></g><g id="g3496"><path id="path3498" d="M363.914,617.93l-4.806,0c-0.438,0 -0.815,0.319 -0.899,0.76l-4.321,22.797c-0.053,0.275 0.018,0.56 0.192,0.776c0.174,0.216 0.433,0.341 0.706,0.341l4.806,0c0.438,0 0.815,-0.318 0.899,-0.759l2.331,-12.301l3.086,0c1.429,0 1.729,0.313 1.741,0.326c0.086,0.096 0.2,0.538 0.012,1.53l-1.912,10.087c-0.052,0.275 0.019,0.56 0.193,0.776c0.174,0.216 0.433,0.341 0.706,0.341l4.882,0c0.438,0 0.815,-0.318 0.899,-0.759l2.01,-10.609c0.472,-2.49 0.069,-4.358 -1.199,-5.552c-1.209,-1.139 -3.236,-1.693 -6.194,-1.693l-3.171,0l0.937,-4.943c0.052,-0.275 -0.018,-0.56 -0.192,-0.776c-0.174,-0.217 -0.433,-0.342 -0.706,-0.342m0,0.939l-1.149,6.061l4.281,0c2.694,0 4.552,0.482 5.575,1.445c1.022,0.963 1.329,2.524 0.92,4.682l-2.011,10.609l-4.882,0l1.912,-10.087c0.217,-1.147 0.137,-1.93 -0.24,-2.347c-0.378,-0.418 -1.182,-0.627 -2.412,-0.627l-3.841,0l-2.475,13.061l-4.806,0l4.322,-22.797l4.806,0" style="fill:#fff;fill-rule:nonzero;"/></g><g id="g3500"><path id="path3502" d="M381.594,637.599c1.841,0 3.215,-0.348 4.085,-1.034c0.86,-0.679 1.454,-1.855 1.765,-3.496c0.291,-1.534 0.18,-2.605 -0.328,-3.183c-0.52,-0.59 -1.644,-0.889 -3.341,-0.889l-2.941,0l-1.631,8.602l2.391,0Zm-9.621,10.597c-0.136,0 -0.266,-0.062 -0.353,-0.17c-0.087,-0.109 -0.122,-0.251 -0.096,-0.388l4.322,-22.798c0.042,-0.22 0.23,-0.379 0.449,-0.379l9.315,0c2.927,0 5.106,0.814 6.476,2.422c1.377,1.616 1.802,3.874 1.263,6.713c-0.219,1.157 -0.596,2.231 -1.12,3.193c-0.524,0.962 -1.218,1.853 -2.061,2.648c-1.009,0.968 -2.152,1.671 -3.392,2.084c-1.221,0.408 -2.789,0.614 -4.661,0.614l-3.772,0l-1.076,5.682c-0.042,0.22 -0.231,0.379 -0.45,0.379l-4.844,0Z" style="fill-rule:nonzero;"/></g><g id="g3504"><path id="path3506" d="M381.211,629.466l2.564,0c2.048,0 2.759,0.46 3.001,0.735c0.401,0.456 0.477,1.417 0.219,2.779c-0.29,1.525 -0.827,2.606 -1.596,3.213c-0.787,0.622 -2.067,0.937 -3.805,0.937l-1.836,0l1.453,-7.664Zm4.399,-5.475l-9.315,0c-0.438,0 -0.815,0.319 -0.898,0.76l-4.322,22.797c-0.052,0.275 0.018,0.56 0.192,0.776c0.174,0.216 0.433,0.342 0.706,0.342l4.844,0c0.438,0 0.815,-0.319 0.899,-0.76l1.005,-5.302l3.394,0c1.92,0 3.536,-0.214 4.803,-0.637c1.303,-0.434 2.502,-1.17 3.563,-2.188c0.878,-0.827 1.6,-1.756 2.148,-2.761c0.548,-1.006 0.941,-2.127 1.17,-3.332c0.566,-2.989 0.106,-5.381 -1.369,-7.112c-1.46,-1.714 -3.755,-2.583 -6.82,-2.583m-6.962,14.077l2.946,0c1.953,0 3.408,-0.377 4.364,-1.131c0.956,-0.755 1.6,-2.014 1.935,-3.779c0.321,-1.694 0.175,-2.889 -0.438,-3.586c-0.613,-0.696 -1.839,-1.045 -3.68,-1.045l-3.318,0l-1.809,9.541m6.962,-13.138c2.802,0 4.846,0.754 6.131,2.262c1.285,1.508 1.672,3.612 1.159,6.315c-0.211,1.113 -0.568,2.131 -1.07,3.053c-0.503,0.923 -1.16,1.766 -1.972,2.531c-0.967,0.928 -2.041,1.59 -3.224,1.983c-1.182,0.395 -2.688,0.592 -4.519,0.592l-4.149,0l-1.149,6.061l-4.844,0l4.322,-22.797l9.315,0" style="fill:#fff;fill-rule:nonzero;"/></g></g></g></g><rect x="269.875" y="571.204" width="186.349" height="127.568" style="fill:none;stroke:#000;stroke-width:2px;stroke-miterlimit:0.54878;stroke-dasharray:8,8,0,0;"/></g><g><g><rect x="614.243" y="558.159" width="140.954" height="140.954" style="fill:#fff;"/><path d="M620.461,651.924l4.275,0l0,-16.836l6.59,14.682c0.784,1.763 1.828,2.383 3.916,2.383c2.088,0 3.131,-0.62 3.915,-2.383l6.59,-14.682l0,16.836l4.242,0l0,-16.803c0,-1.631 -0.653,-2.415 -1.991,-2.839c-3.23,-1.011 -5.415,-0.13 -6.395,2.056l-6.459,14.454l-6.264,-14.454c-0.947,-2.186 -3.165,-3.067 -6.395,-2.056c-1.371,0.424 -2.024,1.208 -2.024,2.839l0,16.803Z" style="fill:#00678f;"/><path d="M653.545,638.221l4.242,0l0,9.265c-0.033,0.523 0.163,1.697 2.512,1.73c1.174,0.032 9.168,0 9.233,0l0,-11.028l4.274,0c0.033,0 0,15.041 0,15.106c0.033,3.72 -4.6,4.502 -6.721,4.568l-13.442,0l0,-2.871c0,0 13.41,0.033 13.442,0c2.741,-0.261 2.414,-1.632 2.414,-2.088l0,-1.109l-9.037,0c-4.209,-0.066 -6.884,-1.893 -6.917,-4.014c0,-0.196 0.098,-9.461 0,-9.559Z" style="fill:#00678f;"/><path d="M745.194,627.552c-2.611,-0.065 -4.601,0.163 -6.33,0.913c-0.489,0.196 -1.239,0.196 -1.338,0.816c0.262,0.26 0.327,0.685 0.523,1.044c0.424,0.653 1.108,1.533 1.728,1.99c0.653,0.522 1.339,1.044 2.056,1.501c1.305,0.783 2.741,1.207 3.948,1.99c0.75,0.457 1.468,1.044 2.186,1.566c0.326,0.262 0.587,0.653 1.011,0.816l0,-0.065c-0.228,-0.294 -0.293,-0.718 -0.489,-1.044c-0.326,-0.327 -0.652,-0.653 -0.979,-0.979c-0.946,-1.24 -2.153,-2.349 -3.426,-3.263c-1.011,-0.718 -3.295,-1.729 -3.719,-2.904c-0.033,-0.032 -0.066,-0.032 -0.066,-0.065c0.719,-0.098 1.567,-0.359 2.219,-0.522c1.109,-0.294 2.121,-0.228 3.263,-0.522c0.522,-0.163 1.044,-0.294 1.566,-0.457l0,-0.293c-0.588,-0.587 -0.979,-1.403 -1.631,-1.926c-1.664,-1.435 -3.492,-2.838 -5.351,-4.013c-1.045,-0.685 -2.316,-1.109 -3.426,-1.663c-0.359,-0.163 -1.012,-0.261 -1.272,-0.587c-0.588,-0.719 -0.881,-1.665 -1.338,-2.513c-0.946,-1.827 -1.86,-3.784 -2.676,-5.677c-0.554,-1.272 -0.945,-2.545 -1.631,-3.72c-3.393,-5.546 -7.015,-8.906 -12.659,-12.201c-1.207,-0.686 -2.643,-0.98 -4.176,-1.339c-0.816,-0.065 -1.632,-0.098 -2.447,-0.163c-0.489,-0.196 -1.012,-0.815 -1.501,-1.109c-1.86,-1.174 -6.656,-3.752 -8.027,-0.359c-0.88,2.121 1.306,4.209 2.089,5.285c0.554,0.751 1.239,1.6 1.631,2.448c0.261,0.554 0.294,1.109 0.522,1.697c0.555,1.467 1.012,3.066 1.697,4.404c0.359,0.685 0.75,1.403 1.207,2.023c0.261,0.359 0.751,0.522 0.816,1.11c-0.457,0.652 -0.49,1.63 -0.751,2.446c-1.142,3.687 -0.718,8.222 0.979,10.963c0.522,0.816 1.729,2.609 3.426,1.925c1.468,-0.62 1.142,-2.448 1.566,-4.111c0.098,-0.359 0.032,-0.62 0.228,-0.881l0,0.065c0.424,0.914 0.881,1.794 1.338,2.675c0.979,1.599 2.74,3.295 4.242,4.405c0.75,0.587 1.37,1.599 2.381,1.925l0,-0.065l-0.098,0c-0.196,-0.294 -0.489,-0.424 -0.718,-0.653c-0.587,-0.587 -1.239,-1.305 -1.728,-1.957c-1.339,-1.827 -2.545,-3.851 -3.655,-5.938c-0.522,-1.012 -0.979,-2.121 -1.403,-3.132c-0.163,-0.392 -0.163,-0.979 -0.522,-1.208c-0.489,0.751 -1.174,1.371 -1.566,2.251c-0.587,1.404 -0.685,3.133 -0.881,4.895c-0.131,0.065 -0.098,0.032 -0.163,0.098c-1.044,-0.262 -1.403,-1.339 -1.794,-2.252c-0.946,-2.317 -1.142,-6.036 -0.294,-8.711c0.229,-0.686 1.24,-2.839 0.816,-3.491c-0.196,-0.62 -0.816,-1.012 -1.175,-1.501c-0.457,-0.587 -0.881,-1.37 -1.207,-2.056c-0.783,-1.827 -1.142,-3.85 -1.99,-5.677c-0.424,-0.88 -1.077,-1.762 -1.632,-2.512c-0.62,-0.881 -1.305,-1.5 -1.794,-2.545c-0.163,-0.359 -0.391,-0.946 -0.163,-1.338c0.098,-0.261 0.196,-0.358 0.457,-0.456c0.424,-0.326 1.631,0.13 2.087,0.293c1.175,0.522 2.186,0.979 3.198,1.664c0.489,0.327 0.979,0.947 1.566,1.11l0.653,0c1.044,0.228 2.218,0.065 3.197,0.359c1.729,0.521 3.295,1.337 4.698,2.251c4.307,2.708 7.798,6.558 10.212,11.159c0.392,0.75 0.555,1.434 0.881,2.217c0.686,1.6 1.567,3.23 2.251,4.764c0.653,1.566 1.338,3.133 2.285,4.405c0.522,0.685 2.479,1.044 3.36,1.403c0.62,0.261 1.631,0.554 2.218,0.914c1.143,0.652 2.219,1.468 3.296,2.218c0.522,0.358 2.154,1.175 2.219,1.86Z" style="fill:#00678f;"/><path d="M711.914,599.199c-0.522,0 -0.913,0.066 -1.337,0.163l0,0.066l0.097,0c0.261,0.522 0.718,0.88 1.044,1.337c0.229,0.522 0.49,1.044 0.718,1.566c0.033,-0.032 0.066,-0.065 0.098,-0.097c0.457,-0.294 0.653,-0.817 0.653,-1.632c-0.163,-0.196 -0.196,-0.424 -0.359,-0.652c-0.228,-0.327 -0.62,-0.49 -0.914,-0.751Z" style="fill:#00678f;"/><path d="M677.101,651.924l12.236,0c1.435,0 2.838,-0.294 3.947,-0.816c1.828,-0.848 2.741,-1.99 2.741,-3.491l0,-3.132c0,-1.207 -1.044,-2.382 -3.034,-3.132c-1.076,-0.424 -2.382,-0.62 -3.654,-0.62l-5.156,0c-1.728,0 -2.544,-0.522 -2.74,-1.664c-0.032,-0.13 -0.032,-0.261 -0.032,-0.392l0,-1.925c0,-0.13 0,-0.228 0.032,-0.359c0.196,-0.88 0.653,-1.141 2.153,-1.272c0.13,0 0.294,-0.033 0.424,-0.033l12.17,0l0,-2.838l-11.974,0c-1.729,0 -2.61,0.13 -3.426,0.359c-2.544,0.815 -3.654,2.055 -3.654,4.241l0,2.48c0,1.925 2.186,3.556 5.808,3.948c0.424,0 0.815,0.032 1.239,0.032l4.406,0c0.163,0 0.326,0 0.456,0.033c1.37,0.13 1.925,0.359 2.349,0.848c0.229,0.262 0.327,0.49 0.327,0.784l0,2.479c0,0.294 -0.196,0.685 -0.621,1.012c-0.359,0.326 -0.978,0.522 -1.794,0.587c-0.163,0 -0.294,0.032 -0.457,0.032l-11.746,0l0,2.839Z" style="fill:#e48e19;"/><path d="M722.583,646.964c0,2.937 2.154,4.569 6.558,4.895c0.391,0.033 0.816,0.065 1.208,0.065l11.093,0l0,-2.839l-11.159,0c-2.512,0 -3.458,-0.619 -3.458,-2.121l0,-14.714l-4.242,0l0,14.714Z" style="fill:#e48e19;"/><path d="M698.733,647.127l0,-10.114c0,-2.577 1.794,-4.144 5.384,-4.633c0.358,-0.065 0.782,-0.065 1.141,-0.065l8.092,0c0.392,0 0.75,0 1.174,0.065c3.557,0.489 5.384,2.056 5.384,4.633l0,10.114c0,2.089 -0.783,3.198 -2.545,3.916l4.209,3.785l-4.959,0l-3.393,-3.034l-3.426,0.195l-4.536,0c-0.783,0 -1.598,-0.097 -2.511,-0.359c-2.709,-0.718 -4.014,-2.153 -4.014,-4.503Zm4.601,-0.261c0,0.164 0.032,0.294 0.065,0.457c0.261,1.175 1.37,1.828 3.034,1.828l3.883,0l-3.557,-3.198l4.959,0l3.1,2.774c0.554,-0.294 0.946,-0.751 1.077,-1.339c0.032,-0.163 0.032,-0.293 0.032,-0.424l0,-9.722c0,-0.098 0,-0.229 -0.032,-0.359c-0.262,-1.109 -1.371,-1.729 -3.002,-1.729l-6.46,0c-1.893,0 -3.099,0.815 -3.099,2.088l0,9.624Z" style="fill:#e48e19;"/><path d="M743.399,651.924l0.62,0l0,-2.349l0.849,0l0,-0.49l-2.317,0l0,0.49l0.848,0l0,2.349Zm4.764,0l0.554,0l0,-2.839l-0.848,0l-0.751,1.958l-0.75,-1.958l-0.881,0l0,2.839l0.587,0l0,-2.154l0.816,2.154l0.424,0l0.816,-2.154l0.033,0l0,2.154Z" style="fill:#e48e19;"/><path d="M621.408,625.17l0,-10.702l3.328,0c0.783,0 1.338,0.066 1.729,0.196c0.489,0.196 0.88,0.522 1.207,1.044c0.294,0.49 0.457,1.11 0.457,1.827c0,0.979 -0.261,1.762 -0.751,2.35c-0.489,0.619 -1.337,0.913 -2.544,0.913l-2.252,0l0,4.372l-1.174,0Zm1.174,-5.612l2.284,0c0.718,0 1.24,-0.163 1.566,-0.49c0.326,-0.326 0.489,-0.815 0.489,-1.467c0,-0.425 -0.097,-0.783 -0.26,-1.077c-0.164,-0.326 -0.359,-0.522 -0.587,-0.62c-0.229,-0.131 -0.653,-0.163 -1.24,-0.163l-2.252,0l0,3.817Z" style="fill:#00678f;"/><path d="M629.271,619.95c0,-1.795 0.391,-3.198 1.207,-4.177c0.815,-0.979 1.795,-1.468 3.002,-1.468c0.782,0 1.5,0.196 2.121,0.652c0.652,0.424 1.141,1.077 1.533,1.893c0.359,0.848 0.554,1.827 0.554,2.969c0,1.599 -0.358,2.904 -1.076,3.883c-0.816,1.109 -1.86,1.663 -3.132,1.663c-1.305,0 -2.35,-0.587 -3.133,-1.696c-0.717,-1.012 -1.076,-2.251 -1.076,-3.719Zm1.207,0.033c0,1.304 0.294,2.348 0.881,3.066c0.555,0.718 1.272,1.11 2.121,1.11c0.848,0 1.566,-0.392 2.121,-1.11c0.587,-0.751 0.881,-1.827 0.881,-3.262c0,-0.914 -0.164,-1.73 -0.457,-2.448c-0.229,-0.554 -0.555,-1.011 -1.012,-1.337c-0.457,-0.327 -0.979,-0.49 -1.533,-0.49c-0.881,0 -1.599,0.359 -2.154,1.077c-0.587,0.75 -0.848,1.86 -0.848,3.394Z" style="fill:#00678f;"/><path d="M640.658,625.17l-2.317,-10.702l1.175,0l1.337,7.015c0.163,0.718 0.261,1.468 0.392,2.186l0.391,-1.958l1.697,-7.243l1.37,0l1.24,5.417c0.327,1.337 0.555,2.576 0.718,3.784c0.098,-0.685 0.228,-1.468 0.424,-2.316l1.37,-6.885l1.208,0l-2.415,10.702l-1.141,0l-1.861,-8.157l-0.293,-1.24c-0.066,0.457 -0.163,0.882 -0.229,1.24l-1.892,8.157l-1.174,0Z" style="fill:#00678f;"/><path d="M650.739,625.17l0,-10.702l6.33,0l0,1.273l-5.188,0l0,3.262l4.862,0l0,1.273l-4.862,0l0,3.654l5.384,0l0,1.24l-6.526,0Z" style="fill:#00678f;"/><path d="M658.863,625.17l0,-10.702l3.883,0c0.816,0 1.436,0.098 1.794,0.294c0.392,0.195 0.718,0.554 0.979,1.011c0.228,0.457 0.359,1.012 0.359,1.599c0,0.816 -0.196,1.468 -0.62,1.99c-0.424,0.49 -1.044,0.816 -1.859,0.947c0.326,0.195 0.587,0.391 0.75,0.587c0.359,0.424 0.652,0.881 0.913,1.37l1.534,2.904l-1.468,0l-1.175,-2.219c-0.456,-0.881 -0.783,-1.468 -1.012,-1.761c-0.228,-0.294 -0.456,-0.49 -0.685,-0.62c-0.196,-0.098 -0.489,-0.163 -0.88,-0.163l-1.338,0l0,4.763l-1.175,0Zm1.175,-5.971l2.479,0c0.555,0 0.98,-0.065 1.241,-0.196c0.293,-0.13 0.522,-0.359 0.685,-0.62c0.163,-0.293 0.228,-0.619 0.228,-0.978c0,-0.555 -0.131,-0.979 -0.457,-1.305c-0.326,-0.294 -0.783,-0.457 -1.403,-0.457l-2.773,0l0,3.556Z" style="fill:#00678f;"/><path d="M667.738,625.17l0,-10.702l6.33,0l0,1.273l-5.156,0l0,3.262l4.829,0l0,1.273l-4.829,0l0,3.654l5.384,0l0,1.24l-6.558,0Z" style="fill:#00678f;"/><path d="M675.862,625.17l0,-10.702l3.034,0c0.75,0 1.305,0.066 1.697,0.196c0.522,0.163 0.946,0.489 1.337,0.946c0.359,0.457 0.653,1.012 0.881,1.697c0.196,0.685 0.294,1.5 0.294,2.447c0,1.207 -0.163,2.251 -0.522,3.099c-0.359,0.849 -0.816,1.436 -1.37,1.795c-0.555,0.359 -1.306,0.522 -2.186,0.522l-3.165,0Zm1.174,-1.24l1.86,0c0.75,0 1.305,-0.13 1.697,-0.391c0.391,-0.229 0.685,-0.62 0.913,-1.175c0.261,-0.718 0.392,-1.598 0.392,-2.61c0,-1.077 -0.131,-1.958 -0.424,-2.578c-0.294,-0.619 -0.686,-1.044 -1.143,-1.24c-0.293,-0.13 -0.783,-0.195 -1.467,-0.195l-1.828,0l0,8.189Z" style="fill:#00678f;"/><path d="M688.423,625.17l0,-10.702l3.296,0c0.685,0 1.207,0.098 1.598,0.326c0.391,0.196 0.718,0.522 0.946,0.947c0.261,0.457 0.392,0.914 0.392,1.468c0,0.489 -0.131,0.913 -0.327,1.305c-0.228,0.391 -0.522,0.718 -0.913,0.946c0.489,0.196 0.913,0.523 1.207,0.947c0.294,0.456 0.424,1.011 0.424,1.663c0,0.653 -0.13,1.208 -0.391,1.697c-0.262,0.489 -0.62,0.848 -1.077,1.077c-0.424,0.228 -1.044,0.326 -1.827,0.326l-3.328,0Zm1.175,-6.2l1.892,0c0.49,0 0.848,-0.032 1.044,-0.097c0.326,-0.098 0.555,-0.294 0.718,-0.522c0.163,-0.229 0.228,-0.555 0.228,-0.979c0,-0.391 -0.065,-0.717 -0.196,-0.978c-0.163,-0.262 -0.358,-0.425 -0.619,-0.523c-0.229,-0.098 -0.685,-0.13 -1.306,-0.13l-1.761,0l0,3.229Zm0,4.96l2.186,0c0.457,0 0.815,-0.065 1.044,-0.13c0.326,-0.131 0.587,-0.359 0.75,-0.653c0.196,-0.261 0.261,-0.653 0.261,-1.077c0,-0.424 -0.065,-0.75 -0.228,-1.044c-0.163,-0.26 -0.392,-0.489 -0.685,-0.619c-0.261,-0.131 -0.718,-0.196 -1.305,-0.196l-2.023,0l0,3.719Z" style="fill:#00678f;"/><path d="M699.092,625.17l0,-4.535l-3.36,-6.167l1.402,0l1.73,3.23c0.359,0.653 0.652,1.24 0.913,1.827c0.261,-0.587 0.555,-1.207 0.946,-1.892l1.697,-3.165l1.338,0l-3.492,6.167l0,4.535l-1.174,0Z" style="fill:#00678f;"/></g><rect x="573.579" y="570.559" width="216.392" height="127.568" style="fill:none;stroke:#000;stroke-width:2px;stroke-miterlimit:0.54878;stroke-dasharray:8,8,0,0;"/></g><g id="Nginx"><g id="websites"><text x="240.696px" y="471.417px" style="font-family:'ArialMT', 'Arial', sans-serif;font-size:24px;">gen2.skylerdong.com</text></g><rect x="225.759" y="412.469" width="273.668" height="107.635" style="fill:none;stroke:#000;stroke-width:2px;stroke-miterlimit:0.54878;stroke-dasharray:8,8,0,0;"/><rect x="261.199" y="390.499" width="127.237" height="40.062" style="fill:#fff;"/><clipPath id="_clip6"><rect id="Nginx_logo" x="269.536" y="398.297" width="114.227" height="24"/></clipPath><g clip-path="url(#_clip6)"><g><path id="a" d="M272.003,419.733l0,-18.917l18.914,18.917l0,-18.917" style="fill:none;fill-rule:nonzero;stroke:#090;stroke-width:4.96px;stroke-miterlimit:4;"/><path d="M302.405,398.36l-0.682,1.271l-5.272,9.582l-0.682,1.209l0.682,1.209l5.272,9.272l0.713,1.271l13.799,0l0.682,-1.395l3.938,-7.938l1.767,-3.597l-4,0l-10.077,0.031c-1.311,-0.019 -2.516,1.17 -2.516,2.481c0,1.31 1.205,2.499 2.516,2.48l6.077,-0.031l-1.488,3.008l-7.814,0l-3.876,-6.822l3.907,-7.07l8.312,0l1.938,3.977l4.992,0l-3.147,-7.543l-0.682,-1.395l-14.359,0Z" style="fill:#090;fill-rule:nonzero;"/><path d="M327.535,398.329c-1.299,0.016 -2.466,1.213 -2.449,2.512l0,6.464l4.961,0l0,-6.464c0.016,-1.32 -1.192,-2.528 -2.512,-2.512Z" style="fill:#090;fill-rule:nonzero;"/><path id="a1" serif:id="a" d="M354.403,419.781l0,-18.917l-18.915,18.917l0,-18.917" style="fill:none;fill-rule:nonzero;stroke:#090;stroke-width:4.96px;stroke-miterlimit:4;"/><g><path id="b" d="M362.266,400.857l18.937,18.871" style="fill:none;fill-rule:nonzero;stroke:#090;stroke-width:4.96px;stroke-miterlimit:4;"/><path id="b1" serif:id="b" d="M381.225,400.857l-18.937,18.871" style="fill:none;fill-rule:nonzero;stroke:#090;stroke-width:4.96px;stroke-miterlimit:4;"/></g><path d="M327.535,422.191c-1.299,-0.017 -2.466,-1.213 -2.449,-2.512l0,-10.383l4.961,0l0,10.383c0.016,1.32 -1.192,2.528 -2.512,2.512Z" style="fill:#090;fill-rule:nonzero;"/></g></g><rect x="261.199" y="390.499" width="127.237" height="40.062" style="fill:none;stroke:#000;stroke-width:2px;stroke-miterlimit:0.54878;"/></g><path d="M433.934,628.988l-12,6l12,6l0,-12Z"/><path d="M589.428,628.988l12,6l-12,6l0,-12Z"/><path d="M431.534,634.988l160.294,0" style="fill:none;stroke:#000;stroke-width:4px;stroke-miterlimit:0.54878;"/><path d="M486.669,459.317l-12,6l12,6l0,-12Z"/><path d="M572.084,459.317l12,6l-12,6l0,-12Z"/><path d="M484.269,465.317l90.215,0" style="fill:none;stroke:#000;stroke-width:4px;stroke-miterlimit:0.54878;"/><path d="M428.005,583.188l-6.071,11.964l13.214,-2.321l-7.143,-9.643Z"/><path d="M563.705,482.667l13.214,-2.321l-6.071,11.964l-7.143,-9.643Z"/><path d="M429.648,589.438c26.426,-19.575 113.131,-83.803 139.557,-103.378" style="fill:none;stroke:#000;stroke-width:4px;stroke-miterlimit:0.54878;"/><path d="M369.05,511.555l-6,-12l-6,12l12,0Z"/><path d="M369.05,583.152l-6,12l-6,-12l12,0Z"/><path d="M363.05,509.155l0,76.397" style="fill:none;stroke:#000;stroke-width:4px;stroke-miterlimit:0.54878;"/><path d="M689.448,509.125l-6,-12l-6,12l12,0Z"/><path d="M689.448,580.723l-6,12l-6,-12l12,0Z"/><path d="M683.448,506.725l0,76.398" style="fill:none;stroke:#000;stroke-width:4px;stroke-miterlimit:0.54878;"/></g><g><path d="M1055.68,218.704l-6,-12l-6,12l12,0Z"/><path d="M1055.68,303.985l-6,12l-6,-12l12,0Z"/><path d="M1049.68,216.304l0,90.081" style="fill:none;stroke:#000;stroke-width:4px;stroke-miterlimit:0.54878;"/></g><g id="Browser"><rect x="301.788" y="109.717" width="776.828" height="126.351" style="fill:none;stroke:#000;stroke-width:2px;stroke-miterlimit:0.54878;stroke-dasharray:8,8,0,0;"/><g id="html"><path d="M340.671,152.251l2.156,0l0,2.137l1.988,0l0,-2.137l2.156,0l0,6.468l-2.156,0l0,-2.156l-1.969,0l0,2.156l-2.175,0m9.15,-4.312l-1.903,0l0,-2.156l5.972,0l0,2.156l-1.913,0l0,4.312l-2.156,0m5.016,-6.468l2.259,0l1.387,2.278l1.388,-2.278l2.259,0l0,6.468l-2.156,0l0,-3.206l-1.509,2.325l-1.51,-2.325l0,3.206l-2.118,0m8.362,-6.468l2.156,0l0,4.331l3.057,0l0,2.137l-5.213,0" style="fill-rule:nonzero;"/><path d="M340.596,196.407l-3.094,-34.725l34.013,0l-3.094,34.706l-13.941,3.863" style="fill:#e44d26;fill-rule:nonzero;"/><path d="M354.508,197.297l0,-32.765l13.904,0l-2.654,29.625" style="fill:#f16529;fill-rule:nonzero;"/><path d="M343.821,168.779l10.687,0l0,4.256l-6.018,0l0.393,4.359l5.625,0l0,4.247l-9.525,0m0.188,2.138l4.275,0l0.3,3.403l4.762,1.275l0,4.444l-8.737,-2.438" style="fill:#ebebeb;fill-rule:nonzero;"/><path d="M365.158,168.779l-10.668,0l0,4.256l10.275,0m-0.385,4.359l-9.89,0l0,4.257l5.25,0l-0.497,5.531l-4.753,1.275l0,4.425l8.718,-2.419" style="fill:#fff;fill-rule:nonzero;"/><text x="383.448px" y="184.7px" style="font-family:'ArialMT', 'Arial', sans-serif;font-size:24px;">HTML<tspan x="447.89px 454.558px " y="184.7px 184.7px "> +</tspan></text></g><g id="js"><rect x="478.116" y="152.251" width="48" height="48" style="fill:#f7df1e;"/><path d="M510.36,189.751c0.967,1.578 2.225,2.739 4.449,2.739c1.869,0 3.063,-0.934 3.063,-2.225c0,-1.547 -1.226,-2.094 -3.284,-2.994l-1.127,-0.484c-3.255,-1.387 -5.417,-3.124 -5.417,-6.796c0,-3.383 2.577,-5.958 6.605,-5.958c2.868,0 4.93,0.998 6.416,3.611l-3.513,2.255c-0.773,-1.386 -1.607,-1.933 -2.903,-1.933c-1.321,0 -2.158,0.838 -2.158,1.933c0,1.353 0.838,1.901 2.773,2.739l1.128,0.483c3.832,1.644 5.996,3.319 5.996,7.086c0,4.061 -3.19,6.286 -7.474,6.286c-4.189,0 -6.895,-1.996 -8.22,-4.613l3.666,-2.129Zm-15.934,0.391c0.709,1.257 1.353,2.32 2.903,2.32c1.482,0 2.417,-0.58 2.417,-2.835l0,-15.337l4.51,0l0,15.398c0,4.671 -2.738,6.796 -6.735,6.796c-3.611,0 -5.703,-1.869 -6.766,-4.12l3.671,-2.222Z" style="fill-rule:nonzero;"/><text x="531.056px" y="184.7px" style="font-family:'ArialMT', 'Arial', sans-serif;font-size:24px;">JavaScript +</text></g><g id="jquery"><g><path d="M735.781,174.507l0,-0.001l-0.844,2.994l0.845,-2.992l-0.001,-0.001Zm4.344,6.499l-0.929,0.001l0.93,0.005l-0.001,-0.006Zm-0.239,4.468l0.001,0l-5.576,0.02l5.575,-0.02Zm1.162,-4.464l-0.931,-0.005l0.931,0.005Zm-0.673,4.084l0.971,-3.703l-0.971,3.704l0,-0.001Zm20.527,-17.057l-1.809,8.505l1.809,-8.505Zm-4.651,0l-1.373,6.354l1.373,-6.354Z" style="fill:#131b28;fill-rule:nonzero;"/><path d="M760.593,167.654l-3.869,0c-0.224,0.009 -0.418,0.165 -0.474,0.382l-2.746,12.709c-0.056,0.217 -0.249,0.372 -0.473,0.381l-2.739,0c-2.709,0 -2.395,-1.873 -1.841,-4.434l0.017,-0.077l0.328,-1.749l0.142,-0.72l1.249,-6.101c0.043,-0.21 -0.098,-0.384 -0.312,-0.384l-3.971,0c-0.214,0 -0.427,0.172 -0.471,0.383l-1.788,8.483c-0.983,4.49 -0.722,8.772 4.622,8.906l0.155,0.004l8.39,0c0.214,0 0.427,-0.172 0.472,-0.383l3.617,-17.017c0.044,-0.211 -0.095,-0.383 -0.31,-0.383l0.002,0Zm15.433,13.517c0.006,0 0.012,-0.001 0.018,-0.001c0.167,0 0.305,0.138 0.305,0.305c0,0.026 -0.004,0.053 -0.011,0.078l-0.376,1.836m-0.374,1.837l0.374,-1.837l-0.376,1.838l0.002,-0.001Zm-0.471,0.387l-7.13,0.034l7.129,-0.034l0.001,0Z" style="fill:#131b28;fill-rule:nonzero;"/><path d="M765.679,178.806c-0.004,-0.201 0.225,-0.547 0.44,-0.547l-0.483,-0.008c-0.218,2.183 0.043,0.556 0.043,0.556l0,-0.001Zm2.66,6.84l-0.074,0l0.074,0Zm7.687,-4.475c0.006,0 0.012,-0.001 0.018,-0.001c0.167,0 0.305,0.138 0.305,0.305c0,0.026 -0.004,0.053 -0.011,0.078l-0.437,2.136m-5.73,1.953l-0.016,0l0.016,0Zm-0.95,-0.003l-0.055,0l0.055,0Zm-0.29,0l-0.091,0l0.091,0Zm-0.288,0l-0.079,0l0.079,0Zm0.53,0l-0.234,0l0.234,0Z" style="fill:#131b28;fill-rule:nonzero;"/><path d="M770.155,185.642l-0.926,0.004l0.926,-0.004Zm4.964,-0.029l-4.95,0.03l4.95,-0.03Zm0.463,-0.386l0.314,-1.539l-0.315,1.539l0.001,0Zm-6.74,0.412l-0.199,0l0.199,0Zm-0.578,0.001l-0.276,0l0.276,0Zm0.293,-0.001l-0.219,0l0.219,0Zm-56.592,-6.787l0.6,-2.664l-0.686,3.045l-0.66,3.102l0.578,-2.713l0.168,-0.764l0,-0.006Zm7.192,-11.25l-4.249,0c-0.224,0.01 -0.418,0.164 -0.477,0.381l-0.806,3.557c-0.008,0.027 -0.012,0.055 -0.012,0.083c0,0.164 0.134,0.298 0.298,0.298c0.006,0 0.012,0 0.018,-0.001l4.282,0c0.224,-0.008 0.418,-0.163 0.474,-0.381l0.779,-3.555c0.046,-0.21 -0.092,-0.382 -0.307,-0.382Zm-0.926,5.923l-1.246,5.757l1.246,-5.757Zm-12.341,19.101l3.503,0.028c-1.034,0 -2.742,-0.02 -3.505,-0.029l0.002,0.001Zm7.276,-19.102l-0.596,2.664l0.596,-2.664Z" style="fill:#131b28;fill-rule:nonzero;"/><path d="M717.924,173.143l-4.281,0c-0.225,0.009 -0.418,0.164 -0.477,0.381l-1.202,5.327l-0.168,0.764l-1.155,5.438c-0.057,0.254 -0.125,0.505 -0.206,0.752c-0.08,0.248 -0.794,2.381 -2.144,2.353l-1.333,-0.024c-0.223,0.005 -0.419,0.157 -0.479,0.372l-0.887,3.733c-0.009,0.028 -0.013,0.057 -0.013,0.087c0,0.163 0.134,0.298 0.298,0.298c0.004,0 0.009,-0.001 0.013,-0.001l3.505,0.029c3.359,0 5.13,-1.862 6.265,-7.217l2.581,-11.912c0.045,-0.21 -0.092,-0.381 -0.308,-0.381l-0.009,0.001Zm60.831,12.286c-0.214,0 -0.354,-0.172 -0.309,-0.382l3.221,-15.088" style="fill:#131b28;fill-rule:nonzero;"/><path d="M783.231,185.046l1.304,-6.44l-1.304,6.44Zm-4.738,0.199c-0.027,-0.106 -0.011,-0.363 0.035,-0.573l1.522,-7.162l-1.611,7.543c-0.045,0.211 0.094,0.383 0.309,0.383l0.397,0c-0.215,0 -0.627,-0.086 -0.653,-0.199l0.001,0.008Z" style="fill:#131b28;fill-rule:nonzero;"/><path d="M782.977,185.343c-0.117,0.048 -0.389,0.086 -0.604,0.086l0.397,0c0.215,0 0.426,-0.172 0.468,-0.383l0.078,-0.383c-0.043,0.21 -0.216,0.633 -0.333,0.68l-0.006,0Zm0.906,-3.517l0.576,-2.842l-0.576,2.842Z" style="fill:#131b28;fill-rule:nonzero;"/><path d="M796.594,170.969l0.177,0.734c0.049,0.209 -0.086,0.379 -0.301,0.38m-13.161,12.573l0.574,-2.837l-0.574,2.837Zm13.108,-14.444l0.175,0.751l-0.175,-0.751Zm-11.959,8.765l0.159,-0.759l0.614,-2.878l-0.695,3.259l-0.077,0.378l-0.001,0Zm-2.738,-9.266l-1.656,7.791l1.663,-7.791l-0.007,0Z" style="fill:#131b28;fill-rule:nonzero;"/><path d="M796.77,171.703l-0.177,-0.734l-0.265,-1.125c-0.348,-1.351 -1.369,-2.13 -3.586,-2.13l-6.631,-0.008l-3.577,0c-0.214,0 -0.427,0.172 -0.471,0.382l-0.159,0.747l-0.238,1.13l-3.139,14.707c-0.047,0.21 -0.061,0.467 -0.035,0.573c0.025,0.105 0.438,0.198 0.653,0.198l3.226,0c0.215,0 0.487,-0.039 0.604,-0.086c0.116,-0.046 0.291,-0.463 0.333,-0.679l1.225,-6.057l1.311,-6.138c0.056,-0.216 0.248,-0.371 0.471,-0.381l10.153,-0.004c0.214,-0.001 0.351,-0.171 0.301,-0.381l0.001,-0.014Zm13.07,-6.631l-0.781,0.003l-3.243,0c-0.24,0.014 -0.464,0.132 -0.611,0.323l-7.187,10.521c-0.121,0.179 -0.26,0.153 -0.307,-0.057l-0.53,-2.32c-0.059,-0.217 -0.253,-0.371 -0.477,-0.38l-4.619,0c-0.008,-0.001 -0.016,-0.001 -0.024,-0.001c-0.152,0 -0.278,0.125 -0.278,0.278c0,0.033 0.006,0.067 0.018,0.098l2.07,7.251c0.06,0.248 0.063,0.506 0.011,0.755l-0.903,3.51c-0.053,0.208 0.08,0.379 0.294,0.379l4.566,0c0.215,0 0.434,-0.17 0.488,-0.379l0.902,-3.51c0.072,-0.247 0.185,-0.481 0.333,-0.691l11.666,-15.484c0.13,-0.172 0.066,-0.311 -0.155,-0.309l-1.224,0.008l-0.009,0.005Zm-36.701,9.083c-0.026,0.229 -0.242,0.4 -0.463,0.4l-5.856,0c-0.203,0 -0.305,-0.138 -0.276,-0.308c0.002,-0.005 0.003,-0.009 0.006,-0.013c-0.003,-0.005 -0.003,-0.011 -0.001,-0.018l0.026,-0.099c0.56,-1.487 1.699,-2.464 3.841,-2.464c2.41,0 2.881,1.178 2.717,2.501l0.006,0.001Zm-1.718,-6.76c-7.517,0 -9.299,4.563 -10.298,9.169c-0.993,4.694 -0.914,9.084 6.866,9.084l0.276,0l0.074,-0.001l0.593,0l0.289,-0.001l0.949,-0.003l4.95,-0.03c0.222,-0.012 0.412,-0.169 0.466,-0.384l0.752,-3.676c0.007,-0.025 0.011,-0.052 0.011,-0.078c0,-0.167 -0.138,-0.305 -0.305,-0.305c-0.006,0 -0.012,0.001 -0.018,0.001l-6.995,0c-2.781,0 -3.608,-0.739 -3.303,-2.912l11.18,0c0.182,-0.006 0.345,-0.119 0.414,-0.288c0.013,-0.032 0.022,-0.065 0.027,-0.098c1.659,-6.26 1.182,-10.478 -5.93,-10.478l0.002,0Zm-35.534,6.73l-0.106,0.374c0,0.002 -0.844,2.993 -0.844,2.993l-0.837,2.999c-0.071,0.215 -0.27,0.365 -0.497,0.376l-4.468,0c-3.39,0 -4.215,-2.651 -3.39,-6.561c0.826,-3.999 2.444,-6.485 5.78,-6.737c4.566,-0.344 5.47,2.863 4.369,6.564l-0.007,-0.008Zm3.064,6.505c0,0 2.106,-5.116 2.584,-8.07c0.654,-3.949 -1.326,-9.685 -8.975,-9.685c-7.605,0 -10.901,5.477 -12.167,11.43c-1.26,5.995 0.397,11.255 7.953,11.212l11.54,-0.043c0.226,-0.011 0.422,-0.163 0.49,-0.38l0.972,-3.704c0.054,-0.208 -0.078,-0.379 -0.292,-0.38l-1.861,-0.011c-0.183,-0.001 -0.287,-0.119 -0.265,-0.276c0.004,-0.03 0.012,-0.059 0.023,-0.087l-0.002,-0.006Z" style="fill:#131b28;fill-rule:nonzero;"/><path d="M776.6,177.212c0,0.142 -0.114,0.257 -0.256,0.257c-0.141,-0.001 -0.257,-0.116 -0.257,-0.257c0,-0.141 0.115,-0.256 0.257,-0.256c0.141,0 0.256,0.115 0.256,0.256Z" style="fill:#131b28;fill-rule:nonzero;"/></g><path d="M680.88,170.561c-2.1,3.018 -1.839,6.945 -0.235,10.151l0.199,0.373c0.014,0.028 0.031,0.056 0.046,0.083c0.027,0.051 0.056,0.099 0.084,0.149l0.152,0.263l0.087,0.144l0.254,0.395c0.084,0.125 0.17,0.249 0.258,0.371l0.051,0.068c0.076,0.105 0.155,0.209 0.234,0.312l0.088,0.112l0.218,0.266l0.082,0.099c0.099,0.117 0.2,0.232 0.302,0.345c0.011,0.011 0.013,0.013 0.018,0.02c0.101,0.109 0.203,0.217 0.307,0.324l0.099,0.099l0.245,0.24l0.101,0.095c0.11,0.104 0.222,0.199 0.335,0.306c0.025,0.022 0.044,0.038 0.064,0.054l0.304,0.265l0.132,0.101l0.255,0.198l0.135,0.103l0.285,0.199l0.104,0.074c0.01,0.007 0.018,0.013 0.028,0.02c0.091,0.063 0.184,0.123 0.278,0.183l0.119,0.08c0.143,0.091 0.288,0.179 0.434,0.266l0.119,0.067l0.326,0.183c0.066,0.032 0.12,0.062 0.18,0.092l0.233,0.122l0.053,0.026l0.095,0.046l0.369,0.171l0.078,0.035c0.143,0.062 0.287,0.122 0.431,0.179l0.105,0.041l0.406,0.151l0.051,0.018c0.15,0.052 0.301,0.101 0.453,0.148l0.11,0.033c0.154,0.046 0.308,0.103 0.467,0.132c10.156,1.853 13.106,-6.102 13.106,-6.102c-2.478,3.228 -6.882,4.079 -11.042,3.131c-0.158,-0.036 -0.311,-0.085 -0.465,-0.13l-0.116,-0.035c-0.15,-0.047 -0.3,-0.095 -0.448,-0.146l-0.062,-0.022c-0.132,-0.047 -0.264,-0.095 -0.395,-0.146l-0.11,-0.044c-0.144,-0.057 -0.286,-0.116 -0.427,-0.177l-0.086,-0.038l-0.359,-0.167l-0.104,-0.05l-0.278,-0.141l-0.185,-0.098c-0.113,-0.066 -0.223,-0.123 -0.334,-0.186l-0.112,-0.063c-0.146,-0.087 -0.291,-0.175 -0.434,-0.266c-0.04,-0.025 -0.078,-0.053 -0.117,-0.078l-0.309,-0.199l-0.1,-0.07l-0.291,-0.212l-0.393,-0.296l-0.118,-0.094l-0.328,-0.277c-0.011,-0.01 -0.024,-0.02 -0.036,-0.03c-0.116,-0.103 -0.231,-0.207 -0.344,-0.314l-0.097,-0.093l-0.248,-0.242l-0.097,-0.098l-0.305,-0.321c-0.005,-0.006 -0.01,-0.011 -0.015,-0.016c-0.105,-0.115 -0.208,-0.233 -0.308,-0.352l-0.081,-0.096l-0.222,-0.274l-0.082,-0.101l-0.257,-0.342c-2.313,-3.155 -3.144,-7.507 -1.295,-11.082m4.885,-0.464c-1.518,2.185 -1.436,5.111 -0.251,7.422c0.198,0.388 0.423,0.763 0.672,1.121c0.227,0.326 0.479,0.715 0.78,0.976c0.111,0.121 0.224,0.239 0.341,0.354c0.03,0.03 0.06,0.059 0.09,0.088l0.348,0.331c0.005,0.004 0.01,0.009 0.014,0.013c0.135,0.119 0.264,0.231 0.41,0.34l0.092,0.066c0.14,0.107 0.281,0.211 0.426,0.31c0.005,0.004 0.008,0.007 0.013,0.01c0.064,0.044 0.129,0.086 0.194,0.127c0.031,0.02 0.061,0.042 0.093,0.061c0.104,0.066 0.208,0.131 0.315,0.193l0.044,0.027l0.278,0.155c0.033,0.019 0.066,0.035 0.099,0.052l0.195,0.101c0.01,0.004 0.02,0.009 0.03,0.013c0.134,0.066 0.27,0.129 0.407,0.189c0.029,0.013 0.066,0.025 0.09,0.037l0.333,0.135l0.143,0.053c0.101,0.038 0.203,0.066 0.306,0.106l0.132,0.044c0.146,0.047 0.291,0.103 0.443,0.128c7.842,1.299 9.651,-4.738 9.651,-4.738c-1.631,2.35 -4.791,3.471 -8.164,2.596c-0.149,-0.039 -0.297,-0.082 -0.444,-0.128c-0.045,-0.014 -0.088,-0.029 -0.133,-0.043c-0.104,-0.034 -0.208,-0.07 -0.311,-0.108l-0.14,-0.053c-0.112,-0.042 -0.224,-0.088 -0.334,-0.135l-0.103,-0.045c-0.138,-0.06 -0.275,-0.123 -0.409,-0.189c-0.07,-0.034 -0.137,-0.07 -0.199,-0.105l-0.119,-0.061c-0.087,-0.047 -0.174,-0.096 -0.259,-0.146l-0.063,-0.035c-0.105,-0.062 -0.21,-0.133 -0.314,-0.199c-0.032,-0.02 -0.063,-0.042 -0.095,-0.063l-0.197,-0.128c-0.144,-0.099 -0.284,-0.199 -0.423,-0.31l-0.096,-0.074c-1.475,-1.165 -2.647,-2.759 -3.202,-4.564c-0.583,-1.873 -0.464,-3.975 0.552,-5.681m4.235,-0.156c-0.895,1.324 -0.983,2.954 -0.362,4.409c0.662,1.545 1.998,2.756 3.565,3.331l0.194,0.067l0.086,0.027l0.279,0.08c4.33,0.837 5.504,-2.221 5.824,-2.671c-1.029,1.481 -2.758,1.836 -4.879,1.321c-0.173,-0.044 -0.345,-0.097 -0.513,-0.158c-0.208,-0.074 -0.411,-0.158 -0.61,-0.253c-0.377,-0.181 -0.735,-0.401 -1.068,-0.652c-1.898,-1.44 -3.077,-4.188 -1.839,-6.419" style="fill:#0868ac;fill-rule:nonzero;"/><text x="817.721px" y="184.559px" style="font-family:'ArialMT', 'Arial', sans-serif;font-size:24px;">jQuery +</text></g><g id="Sass"><text x="992.172px" y="184.559px" style="font-family:'ArialMT', 'Arial', sans-serif;font-size:24px;">Sass</text><clipPath id="_clip7"><rect id="Sass-Logo--Color-" serif:id="Sass Logo (Color)" x="920.705" y="152.11" width="64" height="48"/></clipPath><g clip-path="url(#_clip7)"><g><path d="M965.938,188.394c-0.203,-0.145 -0.169,-0.612 0.499,-2.066c0.262,-0.571 0.86,-1.532 1.899,-2.451c0.121,0.378 0.194,0.74 0.192,1.078c-0.013,2.25 -1.619,3.09 -2.59,3.439Zm-8.545,1.948c-0.272,0.142 -0.521,0.232 -0.637,0.163c-0.085,-0.051 0.112,-0.239 0.112,-0.239c0,0 1.387,-1.492 1.934,-2.172c0.318,-0.395 0.686,-0.864 1.088,-1.389c0.003,0.052 0.005,0.104 0.005,0.156c-0.004,1.788 -1.731,2.995 -2.502,3.481Zm-11.092,-5.293c-0.642,1.565 -1.985,5.568 -2.803,5.354c-0.702,-0.184 -1.129,-3.228 -0.14,-6.223c0.498,-1.507 1.561,-3.309 2.186,-4.008c1.006,-1.125 2.114,-1.493 2.383,-1.037c0.343,0.581 -1.224,4.933 -1.626,5.914Zm-13.426,9.127c-1.843,2.011 -4.418,2.771 -5.522,2.131c-1.192,-0.692 -0.72,-3.651 1.542,-5.785c1.378,-1.3 3.158,-2.498 4.338,-3.235c0.269,-0.162 0.664,-0.399 1.143,-0.687c0.08,-0.045 0.125,-0.07 0.125,-0.07l-0.002,-0.003c0.092,-0.056 0.187,-0.113 0.285,-0.171c0.823,3.037 0.025,5.71 -1.909,7.82Zm42.886,-14.458c-2.236,0.012 -4.173,0.549 -5.796,1.349c-0.594,-1.185 -1.195,-2.228 -1.296,-3.003c-0.117,-0.905 -0.254,-1.444 -0.112,-2.522c0.143,-1.078 0.766,-2.605 0.757,-2.719c-0.009,-0.114 -0.14,-0.663 -1.429,-0.673c-1.29,-0.009 -2.393,0.248 -2.523,0.589c-0.13,0.34 -0.378,1.107 -0.533,1.906c-0.226,1.169 -2.574,5.34 -3.908,7.522c-0.436,-0.852 -0.807,-1.603 -0.885,-2.197c-0.117,-0.904 -0.254,-1.444 -0.112,-2.522c0.143,-1.078 0.766,-2.605 0.757,-2.719c-0.009,-0.114 -0.14,-0.663 -1.429,-0.673c-1.29,-0.009 -2.393,0.248 -2.523,0.589c-0.13,0.34 -0.268,1.136 -0.533,1.906c-0.264,0.77 -3.386,7.727 -4.204,9.53c-0.417,0.919 -0.779,1.657 -1.035,2.161c-0.001,-0.001 -0.002,-0.003 -0.002,-0.003c0,0 -0.016,0.034 -0.043,0.09c-0.219,0.429 -0.349,0.667 -0.349,0.667c0,0 0.001,0.003 0.003,0.009c-0.173,0.315 -0.36,0.607 -0.452,0.607c-0.064,0 -0.193,-0.838 0.028,-1.99c0.465,-2.413 1.581,-6.177 1.57,-6.306c-0.006,-0.067 0.207,-0.722 -0.729,-1.065c-0.91,-0.333 -1.234,0.222 -1.317,0.224c-0.081,0.002 -0.141,0.196 -0.141,0.196c0,0 1.014,-4.232 -1.934,-4.232c-1.843,0 -4.396,2.016 -5.654,3.843c-0.794,0.433 -2.493,1.361 -4.296,2.351c-0.692,0.38 -1.399,0.769 -2.069,1.138c-0.045,-0.05 -0.09,-0.101 -0.137,-0.151c-3.575,-3.813 -10.183,-6.511 -9.903,-11.638c0.102,-1.864 0.75,-6.772 12.698,-12.725c9.787,-4.877 17.621,-3.535 18.976,-0.561c1.934,4.249 -4.188,12.147 -14.352,13.286c-3.872,0.434 -5.911,-1.067 -6.418,-1.626c-0.534,-0.588 -0.614,-0.615 -0.813,-0.504c-0.325,0.18 -0.119,0.699 0,1.009c0.303,0.79 1.549,2.19 3.672,2.887c1.867,0.613 6.414,0.949 11.912,-1.177c6.158,-2.382 10.967,-9.009 9.555,-14.547c-1.437,-5.634 -10.777,-7.486 -19.617,-4.345c-5.262,1.869 -10.957,4.803 -15.052,8.633c-4.869,4.554 -5.645,8.518 -5.326,10.175c1.137,5.885 9.249,9.717 12.497,12.557c-0.16,0.089 -0.311,0.172 -0.447,0.247c-1.629,0.806 -7.812,4.042 -9.359,7.461c-1.754,3.878 0.28,6.66 1.626,7.035c4.171,1.161 8.452,-0.927 10.753,-4.358c2.3,-3.431 2.019,-7.898 0.963,-9.937c-0.013,-0.025 -0.027,-0.05 -0.041,-0.075c0.421,-0.249 0.849,-0.502 1.274,-0.752c0.829,-0.486 1.643,-0.94 2.349,-1.325c-0.395,1.083 -0.684,2.38 -0.835,4.254c-0.177,2.202 0.725,5.047 1.906,6.167c0.52,0.493 1.145,0.504 1.542,0.504c1.373,0 2,-1.143 2.69,-2.494c0.847,-1.658 1.598,-3.588 1.598,-3.588c0,0 -0.943,5.213 1.626,5.213c0.936,0 1.877,-1.213 2.296,-1.832c0.002,0.007 0.002,0.01 0.002,0.01c0,0 0.024,-0.04 0.072,-0.121c0.097,-0.148 0.152,-0.243 0.152,-0.243c0,0 0.002,-0.01 0.005,-0.027c0.376,-0.653 1.211,-2.142 2.462,-4.598c1.617,-3.173 3.167,-7.147 3.167,-7.147c0,0 0.145,0.972 0.617,2.578c0.278,0.946 0.868,1.991 1.334,2.993c-0.375,0.521 -0.605,0.82 -0.605,0.82c0,0 0.002,0.005 0.006,0.015c-0.3,0.398 -0.636,0.827 -0.987,1.246c-1.276,1.519 -2.796,3.255 -2.999,3.756c-0.24,0.59 -0.183,1.024 0.28,1.373c0.338,0.255 0.941,0.295 1.569,0.252c1.147,-0.077 1.954,-0.361 2.352,-0.534c0.62,-0.22 1.343,-0.565 2.021,-1.063c1.252,-0.92 2.007,-2.237 1.934,-3.98c-0.04,-0.961 -0.346,-1.914 -0.734,-2.813c0.114,-0.163 0.227,-0.328 0.342,-0.495c1.973,-2.884 3.503,-6.054 3.503,-6.054c0,0 0.145,0.971 0.617,2.578c0.239,0.814 0.711,1.701 1.135,2.572c-1.855,1.507 -3.006,3.259 -3.405,4.408c-0.739,2.125 -0.161,3.088 0.925,3.307c0.491,0.1 1.185,-0.126 1.708,-0.347c0.649,-0.215 1.43,-0.574 2.16,-1.11c1.251,-0.92 2.455,-2.209 2.382,-3.952c-0.033,-0.794 -0.248,-1.582 -0.54,-2.339c1.572,-0.655 3.609,-1.019 6.202,-0.716c5.564,0.649 6.655,4.123 6.447,5.577c-0.209,1.454 -1.376,2.254 -1.766,2.495c-0.39,0.241 -0.509,0.325 -0.477,0.504c0.048,0.261 0.228,0.251 0.561,0.195c0.458,-0.077 2.922,-1.182 3.027,-3.866c0.134,-3.408 -3.131,-7.151 -8.913,-7.12Z" style="fill:#cd679a;fill-rule:nonzero;"/></g></g></g><rect x="363.495" y="85.949" width="115.144" height="47.535" style="fill:#fff;"/><text x="376.014px" y="118.166px" style="font-family:'ArialMT', 'Arial', sans-serif;font-size:24px;">Browser</text><rect x="363.495" y="85.949" width="115.144" height="47.535" style="fill:none;stroke:#000;stroke-width:2px;stroke-miterlimit:0.54878;"/></g><g id="Tracking"><g><path d="M1101.65,379.479l2.744,7.204l-5.317,0l2.573,-7.204Zm-1.029,-2.401l-6.004,15.78l2.23,0l1.544,-4.288l6.69,0l1.544,4.288l2.23,0l-6.004,-15.78l-2.23,0Zm32.416,15.78l2.058,0l0,-15.78l-2.058,0l0,15.78Zm-21.104,-9.263c0.687,-1.029 2.058,-1.887 3.431,-1.887c2.744,0 4.117,1.887 4.117,4.632l0,6.689l-2.058,0l0,-6.347c0,-2.23 -1.2,-3.086 -2.744,-3.086c-1.716,0 -2.916,1.715 -2.916,3.258l0,6.004l-2.058,0l0,-10.978l2.058,0l0.171,1.716l-0.001,-0.001Zm9.264,6.004c0,-2.401 2.23,-3.773 4.802,-3.773c1.544,0 2.574,0.343 2.916,0.686l0,-0.343c0,-1.715 -1.372,-2.573 -2.744,-2.573c-1.2,0 -2.23,0.514 -2.573,1.544l-1.881,-0.859c0.343,-1.029 1.715,-2.573 4.466,-2.573c2.574,0 4.803,1.544 4.803,4.631l0,6.518l-1.887,0l0,-1.551l-0.171,0c-0.515,0.857 -1.715,1.886 -3.602,1.886c-2.23,0 -4.117,-1.372 -4.117,-3.602m7.719,-1.372c0,0 -0.857,-0.686 -2.573,-0.686c-2.058,0 -2.916,1.2 -2.916,2.058c0,1.2 1.2,1.715 2.23,1.715c1.544,0 3.258,-1.372 3.258,-3.087" style="fill:#757575;fill-rule:nonzero;"/><path d="M1138.01,397.659l2.401,-5.667l-4.288,-9.948l2.058,0l3.259,7.547l3.258,-7.547l2.058,0l-6.688,15.615l-2.058,0Zm30.186,-12.005c-0.515,-1.374 -1.715,-2.23 -2.915,-2.23c-1.715,0 -3.259,1.544 -3.259,3.773c0,2.229 1.544,3.773 3.259,3.773c1.2,0 2.401,-0.857 2.916,-2.058l1.715,1.03c-0.857,1.886 -2.573,3.086 -4.631,3.086c-2.916,0 -5.317,-2.573 -5.317,-5.831c0,-3.431 2.401,-5.832 5.317,-5.832c2.058,0 3.773,1.2 4.631,3.087l-1.715,1.2l-0.001,0.002Z" style="fill:#757575;"/><path d="M1175.57,393.2c2.744,0 4.117,-1.544 4.117,-3.43c0,-4.117 -6.003,-2.574 -6.003,-4.974c0,-0.857 0.686,-1.372 1.886,-1.372c1.2,0 2.402,0.515 2.916,1.372l1.2,-1.2c-0.686,-0.857 -2.573,-2.058 -4.288,-2.058c-2.573,0 -3.944,1.544 -3.944,3.431c0,3.945 6.174,2.573 6.174,4.631c0,1.03 -0.686,1.716 -2.058,1.716c-1.371,0 -2.058,-0.858 -2.744,-1.716l-1.544,1.2c1.03,1.03 2.574,2.402 4.288,2.402l0,-0.002Zm-19.553,-0.343l2.058,0l0,-10.977l-2.058,0l0,10.978l0,-0.001Z" style="fill:#757575;fill-rule:nonzero;"/><path d="M1156.87,376.563c0.857,0 1.372,0.687 1.372,1.372c0,0.857 -0.687,1.372 -1.372,1.372c-0.685,0 -1.372,-0.687 -1.372,-1.372c0,-0.685 0.687,-1.372 1.372,-1.372Zm-2.915,14.58l0.343,1.544l-2.058,0c-1.887,0 -2.744,-1.372 -2.744,-3.431l0,-5.317l-2.058,0l0,-2.058l2.058,0l0,-3.259l2.058,0l0,3.259l2.401,0l0,2.058l-2.401,0l0,5.667c0,1.544 1.2,1.544 2.401,1.544l0,-0.007Z" style="fill:#757575;"/><path d="M1027.55,383.424l0,2.573l6.003,0c-0.171,1.372 -0.686,2.401 -1.372,3.087c-0.857,0.857 -2.23,1.886 -4.631,1.886c-3.602,0 -6.518,-2.916 -6.518,-6.689c0,-3.602 2.916,-6.689 6.518,-6.689c2.058,0 3.431,0.857 4.467,1.715l1.715,-1.715c-1.544,-1.372 -3.431,-2.574 -6.175,-2.574c-4.973,0 -9.262,4.117 -9.262,9.091c0,4.974 4.282,9.09 9.256,9.09c2.744,0 4.802,-0.857 6.346,-2.573c1.716,-1.716 2.23,-3.945 2.23,-5.832c0,-0.515 0,-1.2 -0.171,-1.544l-8.4,0l-0.006,0.174Zm15.265,-2.052c-3.258,0 -5.832,2.402 -5.832,5.832c0,3.431 2.574,5.832 5.832,5.832c3.259,0 5.832,-2.574 5.832,-5.832c0,-3.43 -2.573,-5.832 -5.832,-5.832Zm0,9.434c-1.715,0 -3.258,-1.544 -3.258,-3.602c0,-2.058 1.544,-3.602 3.258,-3.602c1.715,0 3.259,1.372 3.259,3.602c0,2.23 -1.544,3.602 -3.259,3.602Zm28.13,-8.234c-0.687,-0.686 -1.716,-1.372 -3.259,-1.372c-2.916,0 -5.489,2.574 -5.489,5.832c0,3.259 2.574,5.832 5.489,5.832c1.372,0 2.573,-0.687 3.087,-1.372l0.171,0l0,0.857c0,2.23 -1.2,3.431 -3.087,3.431c-1.544,0 -2.573,-1.2 -2.916,-2.058l-2.23,0.857c0.687,1.544 2.402,3.431 5.146,3.431c3.086,0 5.666,-1.716 5.666,-6.175l0,-10.633l-2.401,0l0,1.372l-0.177,-0.002Zm-2.916,8.234c-1.716,0 -3.087,-1.544 -3.087,-3.602c0,-2.058 1.372,-3.602 3.087,-3.602c1.714,0 3.086,1.544 3.086,3.602c0,2.058 -1.372,3.602 -3.086,3.602Zm-12.522,-9.434c-3.258,0 -5.832,2.402 -5.832,5.832c0,3.431 2.574,5.832 5.832,5.832c3.259,0 5.832,-2.574 5.832,-5.832c0.172,-3.43 -2.573,-5.832 -5.832,-5.832Zm0,9.434c-1.715,0 -3.258,-1.544 -3.258,-3.602c0,-2.058 1.544,-3.602 3.258,-3.602c1.715,0 3.259,1.372 3.259,3.602c0,2.23 -1.544,3.602 -3.259,3.602Zm19.897,-15.615l2.573,0l0,17.838l-2.573,0l0,-17.838Zm9.605,15.608c-1.372,0 -2.23,-0.687 -2.916,-1.715l7.89,-3.259l-0.343,-0.687c-0.515,-1.372 -2.058,-3.773 -4.973,-3.773c-3.087,0 -5.489,2.401 -5.489,5.832c0,3.259 2.573,5.831 5.832,5.831c2.744,0 4.288,-1.715 4.973,-2.573l-2.058,-1.372c-0.686,1.029 -1.544,1.715 -2.916,1.715l0,0.001Zm-0.171,-7.204c1.029,0 1.887,0.515 2.23,1.372l-5.317,2.23c0,-2.573 1.715,-3.602 3.086,-3.602l0.001,0Z" style="fill:#757575;fill-rule:nonzero;"/></g><g><path d="M1003.69,372.672l0,23.314c0,2.609 1.801,4.062 3.709,4.062c1.766,0 3.709,-1.236 3.709,-4.062l0,-23.137c0,-2.392 -1.767,-3.886 -3.709,-3.886c-1.943,0 -3.709,1.648 -3.709,3.709Z" style="fill:#f9ab00;fill-rule:nonzero;"/><g><path d="M993.979,384.506l0,11.48c0,2.609 1.801,4.062 3.709,4.062c1.766,0 3.708,-1.236 3.708,-4.062l0,-11.304c0,-2.391 -1.766,-3.885 -3.708,-3.885c-1.943,0 -3.709,1.648 -3.709,3.709Z" style="fill:#e37400;fill-rule:nonzero;"/><ellipse cx="987.973" cy="396.339" rx="3.709" ry="3.709" style="fill:#e37400;"/></g></g><text x="958.171px" y="345.253px" style="font-family:'ArialMT', 'Arial', sans-serif;font-size:24px;">T<tspan x="971.941px 979.933px " y="345.253px 345.253px ">ra</tspan>cking and analytics</text><rect x="927.973" y="289.771" width="297.923" height="129.626" style="fill:none;stroke:#000;stroke-width:2px;stroke-miterlimit:0.54878;stroke-dasharray:8,8,0,0;"/></g><g id="git"><g><path id="github" d="M1102.24,650.829c11.32,0 20.503,9.183 20.503,20.503c0,9.05 -5.872,16.739 -14.015,19.462c-1.041,0.186 -1.415,-0.454 -1.415,-0.987c0,-0.668 0.027,-2.883 0.027,-5.634c0,-1.922 -0.64,-3.15 -1.387,-3.791c4.565,-0.507 9.37,-2.243 9.37,-10.118c0,-2.244 -0.801,-4.058 -2.108,-5.5c0.213,-0.535 0.907,-2.616 -0.214,-5.445c-1.709,-0.535 -5.633,2.108 -5.633,2.108c-1.628,-0.454 -3.39,-0.694 -5.126,-0.694c-1.736,0 -3.497,0.241 -5.126,0.694c0,0 -3.924,-2.643 -5.633,-2.108c-1.121,2.829 -0.427,4.912 -0.213,5.445c-1.309,1.442 -2.109,3.256 -2.109,5.5c0,7.849 4.779,9.611 9.344,10.118c-0.587,0.535 -1.12,1.442 -1.308,2.749c-1.176,0.535 -4.166,1.442 -5.953,-1.708c-1.121,-1.95 -3.151,-2.109 -3.151,-2.109c-2.002,-0.027 -0.133,1.254 -0.133,1.254c1.334,0.614 2.269,2.99 2.269,2.99c1.201,3.658 6.915,2.43 6.915,2.43c0,1.708 0.027,3.309 0.027,3.817c0,0.535 -0.374,1.175 -1.415,0.987c-8.143,-2.723 -14.015,-10.412 -14.015,-19.462c0,-11.319 9.183,-20.503 20.503,-20.503l-0.004,0.002Zm-12.734,29.445c0.053,-0.107 -0.027,-0.24 -0.186,-0.319c-0.161,-0.053 -0.294,-0.027 -0.347,0.053c-0.053,0.108 0.028,0.241 0.186,0.319c0.134,0.081 0.294,0.053 0.347,-0.053Zm0.827,0.909c0.108,-0.08 0.081,-0.266 -0.053,-0.427c-0.133,-0.133 -0.319,-0.186 -0.427,-0.08c-0.107,0.08 -0.08,0.266 0.053,0.427c0.133,0.133 0.32,0.186 0.427,0.08Zm0.802,1.202c0.133,-0.108 0.133,-0.32 0,-0.508c-0.108,-0.186 -0.32,-0.266 -0.455,-0.161c-0.133,0.081 -0.133,0.294 0,0.481c0.133,0.186 0.347,0.266 0.455,0.186l0,0.002Zm1.12,1.12c0.108,-0.107 0.053,-0.347 -0.107,-0.507c-0.186,-0.186 -0.427,-0.214 -0.535,-0.08c-0.133,0.107 -0.08,0.346 0.108,0.507c0.186,0.186 0.427,0.214 0.534,0.08Zm1.523,0.668c0.053,-0.16 -0.108,-0.346 -0.347,-0.427c-0.214,-0.053 -0.455,0.028 -0.508,0.186c-0.052,0.159 0.108,0.347 0.347,0.4c0.214,0.081 0.455,0 0.508,-0.16l0,0.001Zm1.681,0.134c0,-0.187 -0.214,-0.32 -0.454,-0.294c-0.241,0 -0.428,0.133 -0.428,0.294c0,0.186 0.187,0.319 0.455,0.294c0.241,0 0.427,-0.134 0.427,-0.294Zm1.548,-0.267c-0.027,-0.16 -0.241,-0.266 -0.48,-0.241c-0.241,0.053 -0.4,0.214 -0.374,0.4c0.027,0.161 0.241,0.267 0.48,0.214c0.239,-0.053 0.4,-0.214 0.374,-0.375l0,0.002Z" style="fill-rule:nonzero;"/><path id="git1" serif:id="git" d="M1040.63,684.62c0,-1.964 -2.165,-2.233 -3.682,-2.233c-1.585,0 -3.527,0.335 -3.527,2.322c0,2.008 2.298,2.254 3.839,2.254c1.63,0 3.37,-0.401 3.37,-2.344l0,0.001Zm-1.317,-16.852c0,-1.674 -0.803,-3.191 -2.655,-3.191c-2.053,0 -2.767,1.361 -2.767,3.237c0,1.852 0.802,3.012 2.767,3.012c1.941,0 2.655,-1.25 2.655,-3.058Zm6.004,-7.231l0,4.508c-0.58,0.202 -1.16,0.357 -1.763,0.492c0.223,0.602 0.358,1.227 0.358,1.875c0,3.773 -2.322,6.651 -6.027,7.344c-1.116,0.223 -1.763,0.692 -1.763,1.897c0,3.416 9.017,1.095 9.017,7.389c0,5.111 -3.46,6.785 -8.103,6.785c-3.817,0 -8.17,-1.273 -8.17,-5.87c0,-2.678 1.63,-4.218 4.063,-5.022l0,-0.09c-1.027,-0.626 -1.496,-1.607 -1.496,-2.813c0,-1.139 0.246,-2.544 1.406,-3.059l0,-0.09c-2.254,-0.758 -3.727,-3.861 -3.727,-6.115c0,-4.174 3.237,-7.233 7.366,-7.233c1.384,0 2.767,0.357 3.972,1.049c1.675,0 3.326,-0.447 4.866,-1.049l0.001,0.002Zm7.099,19.665l-4.956,0c0.09,-1.005 0.09,-1.987 0.09,-2.992l0,-13.593c0,-0.96 0.023,-1.92 -0.09,-2.857l4.956,0c-0.112,0.915 -0.09,1.852 -0.09,2.767l0,13.682c0,1.004 0,1.987 0.09,2.991l0,0.002Zm13.415,-4.956l0,4.376c-1.183,0.647 -2.544,0.87 -3.884,0.87c-4.777,0 -5.334,-3.773 -5.334,-7.656l0,-7.834l0.044,0l0,-0.09c-0.29,0 -0.559,-0.044 -0.826,-0.044c-0.447,0 -0.893,0.067 -1.317,0.134l0,-4.241l2.143,0l0,-1.697c0,-0.67 -0.023,-1.34 -0.134,-1.987l5.067,0c-0.179,1.227 -0.135,2.455 -0.135,3.683l3.817,0l0,4.241c-0.647,0 -1.294,-0.09 -1.92,-0.09l-1.897,0l0,8.147c0,1.317 0.29,2.924 1.942,2.924c0.87,0 1.718,-0.246 2.432,-0.737l0.002,0.001Zm-12.857,-21.138c0,1.675 -1.294,3.237 -3.013,3.237c-1.762,0 -3.079,-1.54 -3.079,-3.237c0,-1.718 1.294,-3.281 3.079,-3.281c1.763,0 3.013,1.607 3.013,3.281Z" style="fill-rule:nonzero;"/></g><text x="941.465px" y="728.145px" style="font-family:'ArialMT', 'Arial', sans-serif;font-size:24px;">V<tspan x="956.148px 969.496px " y="728.145px 728.145px ">er</tspan>sion control by GitHub</text><rect x="928.13" y="634.803" width="297.923" height="114.417" style="fill:none;stroke:#000;stroke-width:2px;stroke-miterlimit:0.54878;stroke-dasharray:8,8,0,0;"/></g><g id="User"><path id="user" d="M229.873,179.802c0,4.562 -3,8.282 -6.656,8.282l-26.688,0c-3.656,0 -6.656,-3.718 -6.656,-8.282c0,-8.218 2.032,-17.718 10.218,-17.718c2.532,2.468 5.968,4 9.782,4c3.814,0 7.25,-1.532 9.782,-4c8.188,0 10.218,9.5 10.218,17.718Zm-8,-27.718c0,6.626 -5.376,12 -12,12c-6.624,0 -12,-5.376 -12,-12c0,-6.624 5.376,-12 12,-12c6.624,0 12,5.376 12,12Z" style="fill-rule:nonzero;"/><text x="183.43px" y="215.756px" style="font-family:'ArialMT', 'Arial', sans-serif;font-size:24px;">User</text></g><path d="M260.895,172.067l-12,6l12,6l0,-12Z"/><path d="M314.131,172.067l12,6l-12,6l0,-12Z"/><path d="M258.495,178.067l58.036,0" style="fill:none;stroke:#000;stroke-width:4px;stroke-miterlimit:0.54878;"/><path d="M437.221,226.482l-6,-12l-6,12l12,0Z"/><path d="M437.221,424.297l-6,12l-6,-12l12,0Z"/><path d="M431.221,224.082l0,202.615" style="fill:none;stroke:#000;stroke-width:4px;stroke-miterlimit:0.54878;"/><text x="301.788px" y="49.619px" style="font-family:'Arial-BoldMT', 'Arial', sans-serif;font-weight:700;font-size:36px;">Architecture of my 2nd generation sites</text><defs><radialGradient id="_Radial5" cx="0" cy="0" r="1" gradientUnits="userSpaceOnUse" gradientTransform="matrix(55.3895,0,0,56.7873,346.195,620.237)"><stop offset="0" style="stop-color:#aeb2d5;stop-opacity:1"/><stop offset="0.3" style="stop-color:#aeb2d5;stop-opacity:1"/><stop offset="0.75" style="stop-color:#484c89;stop-opacity:1"/><stop offset="1" style="stop-color:#484c89;stop-opacity:1"/></radialGradient></defs></svg>