<?xml version="1.0" encoding="UTF-8" standalone="no"?><!DOCTYPE svg PUBLIC "-//W3C//DTD SVG 1.1//EN" "http://www.w3.org/Graphics/SVG/1.1/DTD/svg11.dtd"><svg width="100%" height="100%" viewBox="0 0 1280 800" version="1.1" xmlns="http://www.w3.org/2000/svg" xmlns:xlink="http://www.w3.org/1999/xlink" xml:space="preserve" xmlns:serif="http://www.serif.com/" style="fill-rule:evenodd;clip-rule:evenodd;stroke-linecap:round;stroke-linejoin:round;stroke-miterlimit:1.5;"><g><g id="Google-Cloud" serif:id="Google Cloud"><rect x="147.191" y="323.23" width="770.7" height="421.312" style="fill:none;stroke:#000;stroke-width:2px;stroke-dasharray:8,8,0,0;"/><rect x="565.968" y="300.621" width="230.347" height="45.218" style="fill:#fff;"/><clipPath id="_clip1"><rect id="Google_Cloud_Logo" x="577.505" y="306.899" width="204.26" height="32"/></clipPath><g clip-path="url(#_clip1)"><g><g><path d="M601.532,315.291l1.155,0l3.291,-3.291l0.161,-1.398c-6.125,-5.407 -15.474,-4.823 -20.881,1.302c-1.502,1.7 -2.591,3.726 -3.186,5.917c0.365,-0.15 0.772,-0.175 1.154,-0.068l6.582,-1.087c0,0 0.335,-0.555 0.51,-0.52c2.927,-3.217 7.855,-3.592 11.237,-0.855l-0.023,0Z" style="fill:#ea4335;fill-rule:nonzero;"/><path d="M610.667,317.821c-0.757,-2.787 -2.31,-5.292 -4.469,-7.205l-4.618,4.618c1.95,1.593 3.061,3.996 3.014,6.514l0,0.821c2.27,0 4.111,1.841 4.111,4.111c0,2.271 -1.841,4.112 -4.111,4.112l-8.224,0l-0.82,0.832l0,4.932l0.82,0.821l8.224,0c5.905,0.045 10.73,-4.705 10.775,-10.61c0.028,-3.587 -1.738,-6.942 -4.702,-8.946Z" style="fill:#4285f4;fill-rule:nonzero;"/><path d="M588.136,337.324l8.223,0l0,-6.582l-8.223,0c-0.587,0 -1.164,-0.127 -1.698,-0.37l-1.155,0.359l-3.314,3.291l-0.288,1.154c1.857,1.405 4.125,2.16 6.455,2.148Z" style="fill:#34a853;fill-rule:nonzero;"/><path d="M588.136,315.973c-5.908,0.034 -10.665,4.85 -10.631,10.757c0.021,3.298 1.559,6.403 4.176,8.412l4.768,-4.768c-2.068,-0.934 -2.989,-3.371 -2.055,-5.439c0.935,-2.068 3.371,-2.989 5.439,-2.055c0.912,0.412 1.641,1.143 2.055,2.055l4.769,-4.769c-2.028,-2.654 -5.183,-4.207 -8.521,-4.193Z" style="fill:#fbbc05;fill-rule:nonzero;"/></g><g><g><path d="M637.262,332.729c-2.862,0.036 -5.612,-1.094 -7.621,-3.13c-2.075,-1.95 -3.235,-4.682 -3.198,-7.53c-0.034,-2.848 1.125,-5.578 3.198,-7.53c2,-2.057 4.752,-3.21 7.621,-3.187c2.732,-0.036 5.366,1.025 7.309,2.946l-2.054,2.091c-1.407,-1.362 -3.298,-2.107 -5.255,-2.08c-2.053,-0.025 -4.023,0.814 -5.428,2.309c-1.459,1.448 -2.264,3.43 -2.23,5.485c-0.018,2.032 0.787,3.984 2.23,5.416c2.973,2.964 7.767,3.021 10.81,0.127c0.907,-0.991 1.461,-2.254 1.582,-3.591l-6.93,0l0,-2.955l9.805,0c0.096,0.596 0.134,1.198 0.116,1.803c0.123,2.521 -0.791,4.982 -2.53,6.814c-1.934,2.012 -4.634,3.107 -7.425,3.012Zm22.797,-1.964c-2.734,2.62 -7.048,2.62 -9.783,0c-1.325,-1.284 -2.048,-3.064 -1.998,-4.907c-0.05,-1.844 0.676,-3.623 1.998,-4.908c2.737,-2.613 7.046,-2.613 9.783,0c1.323,1.285 2.048,3.064 1.998,4.908c0.047,1.845 -0.682,3.625 -2.009,4.907l0.011,0Zm-7.623,-1.928c1.411,1.51 3.779,1.587 5.289,0.173c0.059,-0.057 0.118,-0.114 0.172,-0.173c0.771,-0.797 1.187,-1.87 1.155,-2.979c0.034,-1.112 -0.382,-2.191 -1.155,-2.991c-1.452,-1.514 -3.857,-1.567 -5.373,-0.114c-0.038,0.036 -0.077,0.075 -0.113,0.114c-0.773,0.8 -1.189,1.879 -1.155,2.991c-0.03,1.109 0.391,2.184 1.166,2.979l0.014,0Zm22.658,1.928c-2.734,2.62 -7.048,2.62 -9.782,0c-1.326,-1.284 -2.048,-3.064 -1.998,-4.907c-0.05,-1.844 0.675,-3.623 1.998,-4.908c2.734,-2.62 7.048,-2.62 9.782,0c1.323,1.285 2.048,3.064 1.998,4.908c0.052,1.843 -0.673,3.623 -1.998,4.907Zm-7.621,-1.928c1.412,1.51 3.78,1.587 5.289,0.173c0.059,-0.057 0.118,-0.114 0.173,-0.173c0.77,-0.797 1.186,-1.87 1.154,-2.979c0.035,-1.112 -0.381,-2.191 -1.154,-2.991c-1.453,-1.514 -3.857,-1.567 -5.371,-0.114c-0.039,0.036 -0.077,0.075 -0.114,0.114c-0.772,0.8 -1.188,1.879 -1.154,2.991c-0.03,1.109 0.391,2.184 1.166,2.979l0.011,0Zm17.506,10.058c-1.384,0.043 -2.741,-0.389 -3.846,-1.225c-0.98,-0.737 -1.752,-1.716 -2.241,-2.841l2.632,-1.098c0.286,0.673 0.734,1.264 1.305,1.721c0.609,0.49 1.375,0.75 2.159,0.727c1.005,0.061 1.986,-0.318 2.691,-1.039c0.696,-0.839 1.039,-1.916 0.959,-3.002l0,-0.994l-0.104,0c-0.894,1.06 -2.232,1.637 -3.614,1.56c-1.753,0.004 -3.428,-0.723 -4.619,-2.01c-1.291,-1.275 -2.004,-3.023 -1.975,-4.839c-0.032,-1.825 0.682,-3.584 1.975,-4.873c1.189,-1.291 2.864,-2.025 4.619,-2.02c0.734,-0.003 1.461,0.161 2.125,0.472c0.575,0.25 1.086,0.625 1.502,1.098l0.105,0l0,-1.098l2.864,0l0,12.299c0.152,1.966 -0.512,3.909 -1.837,5.371c-1.261,1.207 -2.955,1.852 -4.7,1.791Zm0.209,-8.869c0.998,0.023 1.955,-0.402 2.609,-1.155c0.712,-0.815 1.089,-1.872 1.05,-2.957c0.043,-1.102 -0.332,-2.177 -1.05,-3.013c-0.654,-0.755 -1.611,-1.178 -2.609,-1.155c-1.025,-0.02 -2.009,0.4 -2.703,1.155c-0.763,0.806 -1.179,1.882 -1.154,2.991c-0.023,1.1 0.391,2.164 1.154,2.957c0.689,0.761 1.673,1.191 2.703,1.177Zm11.421,-17.899l0,20.186l-3.014,0l0,-20.186l3.014,0Zm8.269,20.602c-1.825,0.047 -3.587,-0.669 -4.862,-1.976c-1.293,-1.295 -2,-3.066 -1.952,-4.895c-0.068,-1.835 0.611,-3.619 1.882,-4.944c1.2,-1.264 2.877,-1.964 4.618,-1.93c0.794,-0.009 1.578,0.146 2.31,0.45c0.659,0.266 1.259,0.66 1.766,1.155c0.436,0.421 0.822,0.889 1.154,1.398c0.268,0.429 0.496,0.882 0.682,1.35l0.311,0.786l-9.237,3.801c0.573,1.313 1.894,2.141 3.326,2.079c1.384,0.005 2.668,-0.72 3.384,-1.904l2.309,1.559c-0.588,0.843 -1.343,1.559 -2.218,2.102c-1.036,0.655 -2.246,0.991 -3.473,0.969Zm-3.857,-7.08l6.143,-2.553c-0.188,-0.45 -0.527,-0.82 -0.959,-1.05c-0.482,-0.273 -1.027,-0.411 -1.582,-0.405c-0.938,0.025 -1.832,0.419 -2.482,1.098c-0.788,0.755 -1.2,1.821 -1.12,2.91Z" style="fill:#5f6368;fill-rule:nonzero;"/></g><g><path d="M726.577,332.729c-5.255,0.09 -9.587,-4.096 -9.678,-9.351c-0.002,-0.127 -0.002,-0.257 0.003,-0.384c-0.123,-5.255 4.038,-9.612 9.291,-9.735c0.127,-0.002 0.257,-0.002 0.384,-0.002c2.628,-0.082 5.151,1.041 6.848,3.048l-1.663,1.616c-1.248,-1.571 -3.171,-2.45 -5.173,-2.369c-1.921,-0.043 -3.778,0.7 -5.139,2.055c-1.416,1.425 -2.173,3.375 -2.091,5.382c-0.085,2.007 0.675,3.957 2.091,5.382c1.361,1.357 3.218,2.098 5.139,2.055c2.236,0.025 4.361,-0.97 5.773,-2.702l1.663,1.663c-0.87,1.041 -1.963,1.873 -3.197,2.437c-1.332,0.618 -2.785,0.927 -4.251,0.905Z" style="fill:#5f6368;fill-rule:nonzero;"/><rect x="736.103" y="313.661" width="2.391" height="18.651" style="fill:#5f6368;fill-rule:nonzero;"/><path d="M742.399,321.087c2.607,-2.589 6.816,-2.589 9.423,0c1.237,1.307 1.903,3.052 1.848,4.85c0.055,1.798 -0.611,3.544 -1.848,4.851c-2.607,2.588 -6.816,2.588 -9.423,0c-1.237,-1.307 -1.903,-3.053 -1.848,-4.851c-0.055,-1.798 0.609,-3.543 1.848,-4.85Zm1.777,8.2c1.53,1.616 4.08,1.687 5.698,0.157c0.055,-0.05 0.107,-0.104 0.157,-0.157c0.843,-0.904 1.289,-2.111 1.237,-3.348c0.054,-1.236 -0.391,-2.443 -1.237,-3.348c-1.529,-1.616 -4.08,-1.686 -5.698,-0.156c-0.055,0.05 -0.107,0.104 -0.157,0.156c-0.843,0.905 -1.289,2.112 -1.236,3.348c-0.048,1.235 0.402,2.437 1.248,3.337l-0.012,0.011Z" style="fill:#5f6368;fill-rule:nonzero;"/><path d="M766.916,332.313l-2.311,0l0,-1.766l-0.068,0c-0.412,0.67 -0.993,1.22 -1.687,1.593c-0.718,0.416 -1.536,0.636 -2.368,0.634c-1.368,0.093 -2.703,-0.443 -3.625,-1.455c-0.875,-1.107 -1.314,-2.495 -1.237,-3.902l0,-7.853l2.391,0l0,7.414c0,2.38 1.05,3.569 3.153,3.569c0.948,0.029 1.85,-0.4 2.425,-1.155c0.62,-0.784 0.95,-1.759 0.936,-2.759l0,-7.069l2.391,0l0,12.749Z" style="fill:#5f6368;fill-rule:nonzero;"/><path d="M775.033,332.729c-1.641,0.004 -3.203,-0.707 -4.273,-1.953c-1.198,-1.323 -1.839,-3.055 -1.791,-4.839c-0.048,-1.784 0.593,-3.516 1.791,-4.839c1.07,-1.243 2.632,-1.957 4.273,-1.952c0.909,-0.014 1.807,0.2 2.609,0.623c0.707,0.354 1.305,0.893 1.732,1.559l0.105,0l-0.105,-1.766l0,-5.901l2.391,0l0,18.652l-2.309,0l0,-1.766l-0.105,0c-0.427,0.666 -1.025,1.204 -1.731,1.559c-0.796,0.418 -1.685,0.634 -2.587,0.623Zm0.393,-2.182c1.093,0.016 2.141,-0.439 2.875,-1.248c0.812,-0.925 1.228,-2.132 1.155,-3.362c0.073,-1.227 -0.343,-2.436 -1.155,-3.361c-1.45,-1.596 -3.918,-1.712 -5.514,-0.26c-0.091,0.082 -0.177,0.171 -0.259,0.26c-0.813,0.918 -1.229,2.122 -1.154,3.348c-0.075,1.225 0.341,2.429 1.154,3.348c0.737,0.827 1.794,1.291 2.898,1.275Z" style="fill:#5f6368;fill-rule:nonzero;"/></g></g></g></g><rect x="565.968" y="300.621" width="230.347" height="45.218" style="fill:none;stroke:#000;stroke-width:2px;"/></g><g id="centOS"><rect x="166.704" y="382.997" width="729.823" height="341.109" style="fill:none;stroke:#000;stroke-width:2px;stroke-dasharray:8,8,0,0;"/><rect x="481.51" y="361.143" width="295.622" height="43.708" style="fill:#fff;"/><clipPath id="_clip2"><rect x="481.51" y="361.143" width="295.622" height="43.708"/></clipPath><g clip-path="url(#_clip2)"><text x="632.419px" y="391.302px" style="font-family:'ArialMT', 'Arial', sans-serif;font-size:24px;">VM instance</text><clipPath id="_clip3"><rect id="Centos-logo-light" x="484.163" y="358.852" width="142.27" height="48"/></clipPath><g clip-path="url(#_clip3)"><g id="layer1"><g id="g5189"><rect id="rect5183" x="484.163" y="358.852" width="142.27" height="48" style="fill:#fff;fill-opacity:0;"/><path id="text5083-9" d="M546.172,391.667l-7.45,0c-0.756,0 -1.503,-0.11 -2.242,-0.329c-1.431,-0.454 -2.564,-1.497 -3.4,-3.129c-0.755,-1.48 -1.133,-3.205 -1.133,-5.173c0,-1.901 0.338,-3.583 1.013,-5.047c0.739,-1.615 1.792,-2.717 3.158,-3.306c1.061,-0.454 2.146,-0.681 3.255,-0.681l6.75,0l0,3.381l-7.015,0c-1.142,0 -1.969,0.648 -2.484,1.943c-0.402,1.01 -0.602,2.331 -0.602,3.962c0,1.38 0.257,2.549 0.771,3.508c0.595,1.127 1.431,1.691 2.507,1.691l6.872,-0.025l0,3.204m12.407,0.076l-5.883,0c-1.43,0 -2.676,-0.639 -3.737,-1.918c-1.045,-1.295 -1.567,-2.784 -1.567,-4.466c0,-1.834 0.571,-3.415 1.712,-4.745c1.157,-1.345 2.443,-2.018 3.857,-2.018l5.594,0l0,2.7l-4.099,0c-0.514,0 -0.956,0.05 -1.326,0.151c-0.354,0.084 -0.683,0.261 -0.988,0.53c-0.563,0.505 -0.844,1.186 -0.844,2.044l7.233,0l0,2.726l-7.209,0c0,0.403 0.04,0.748 0.12,1.034c0.097,0.269 0.282,0.547 0.555,0.833c0.273,0.269 0.595,0.454 0.964,0.555c0.386,0.084 0.852,0.126 1.399,0.126l4.219,0l0,2.448m13.748,-0.076l-3.351,0l0,-8.605c0,-0.218 -0.048,-0.412 -0.145,-0.58c-0.096,-0.185 -0.233,-0.362 -0.41,-0.53c-0.321,-0.286 -0.691,-0.429 -1.109,-0.429l-3.279,0l0,10.144l-3.351,0l0,-13.071l6.413,0c1.142,0 1.969,0.067 2.484,0.202c0.803,0.201 1.446,0.647 1.928,1.337c0.547,0.808 0.82,1.691 0.82,2.65l0,8.882m9.625,-10.346l-3.255,0l0,5.93c0,0.539 0.177,0.984 0.531,1.338c0.401,0.353 0.932,0.53 1.591,0.53l0.988,0l0,2.548l-3.11,0c-0.932,0 -1.728,-0.353 -2.387,-1.059c-0.385,-0.421 -0.635,-0.884 -0.747,-1.388c-0.113,-0.505 -0.169,-1.102 -0.169,-1.792l0,-6.107l-2.121,0l0,-2.725l2.121,0l0,-4.593l3.303,0l0,4.593l3.255,0l0,2.725m19.674,1.489c0,3.432 -0.908,5.888 -2.724,7.369c-1.479,1.194 -3.633,1.791 -6.461,1.791c-3.135,0 -5.449,-0.689 -6.944,-2.069c-1.639,-1.514 -2.459,-3.945 -2.459,-7.293c0,-2.742 0.731,-4.879 2.194,-6.41c1.591,-1.665 3.97,-2.498 7.136,-2.498c3.488,0 5.947,0.799 7.378,2.397c1.253,1.414 1.88,3.651 1.88,6.713m-4.291,-0.101c0,-1.733 -0.394,-3.112 -1.182,-4.139c-0.884,-1.144 -2.194,-1.716 -3.929,-1.716c-1.704,0 -2.99,0.615 -3.858,1.843c-0.723,1.026 -1.085,2.363 -1.085,4.012c0,1.901 0.289,3.306 0.868,4.214c0.804,1.262 2.29,1.893 4.46,1.893c1.833,0 3.118,-0.614 3.858,-1.842c0.578,-0.959 0.868,-2.381 0.868,-4.265m23.589,3.482c0,1.548 -0.49,2.852 -1.47,3.912c-0.981,1.06 -2.226,1.59 -3.737,1.59l-11.934,-0.026l0,-3.179l9.836,0c0.659,0 1.214,-0.16 1.664,-0.48c0.514,-0.37 0.771,-0.874 0.771,-1.514c0,-1.497 -1.012,-2.246 -3.037,-2.246l-4.967,0c-1.43,0 -2.684,-0.462 -3.761,-1.388c-1.077,-0.925 -1.615,-2.103 -1.615,-3.533c0,-1.581 0.522,-2.86 1.567,-3.835c1.061,-0.993 2.451,-1.489 4.171,-1.489l11.403,0l0,3.028l-10.053,0c-0.45,0 -0.908,0.202 -1.374,0.606c-0.45,0.387 -0.675,0.849 -0.675,1.388c0,0.605 0.217,1.118 0.651,1.539c0.45,0.404 0.988,0.606 1.615,0.606l5.473,0c1.703,0 3.037,0.462 4.002,1.388c0.98,0.908 1.47,2.119 1.47,3.633" style="fill-rule:nonzero;"/><g id="g3664"><g id="g12802"><g id="g12804"><g id="g12806"><path id="path12808" d="M505.15,381.614l1.334,1.326l-1.334,1.326l-9.389,0l0,4.419l-5.726,-5.745l5.726,-5.648l0,4.322l9.389,0Z" style="fill:#932279;"/></g></g></g><g id="g12768"><g id="g12770"><g id="g12772"><path id="path12774" d="M509.402,380.055l-1.326,1.334l-1.327,-1.334l0,-9.389l-4.418,0l5.745,-5.726l5.648,5.726l-4.322,0l0,9.389Z" style="fill:#efa724;"/></g></g></g><g id="g12780"><g id="g12782"><path id="path12784" d="M510.96,384.307l-1.334,-1.326l1.334,-1.326l9.39,0l0,-4.419l5.726,5.745l-5.726,5.648l0,-4.322l-9.39,0Z" style="fill:#262577;"/></g></g><g id="g12790"><g id="g12792"><g id="g12794"><path id="path12796" d="M506.709,385.866l1.326,-1.334l1.326,1.334l0,9.389l4.419,0l-5.745,5.726l-5.649,-5.726l4.323,0l0,-9.389Z" style="fill:#9ccd2a;"/></g></g></g><g id="g12742"><rect id="rect12744" x="495.424" y="370.33" width="11.409" height="11.409" style="fill:#9ccd2a;fill-rule:nonzero;stroke:#fff;stroke-width:0.81px;stroke-linecap:butt;stroke-linejoin:miter;stroke-miterlimit:4;"/><rect id="rect12746" x="509.278" y="370.33" width="11.409" height="11.409" style="fill:#932279;fill-rule:nonzero;stroke:#fff;stroke-width:0.81px;stroke-linecap:butt;stroke-linejoin:miter;stroke-miterlimit:4;"/><rect id="rect12748" x="509.278" y="384.183" width="11.409" height="11.409" style="fill:#efa724;fill-rule:nonzero;stroke:#fff;stroke-width:0.81px;stroke-linecap:butt;stroke-linejoin:miter;stroke-miterlimit:4;"/><rect id="rect12750" x="495.424" y="384.183" width="11.409" height="11.409" style="fill:#262577;fill-rule:nonzero;stroke:#fff;stroke-width:0.81px;stroke-linecap:butt;stroke-linejoin:miter;stroke-miterlimit:4;"/></g><path id="rect12760" d="M490.192,382.961l8.067,-8.068l8.068,8.068l-8.068,8.067l-8.067,-8.067Z" style="fill:none;fill-rule:nonzero;stroke:#fff;stroke-width:0.81px;stroke-linecap:butt;stroke-linejoin:miter;stroke-miterlimit:4;"/><path id="rect12762" d="M499.988,373.165l8.067,-8.067l8.067,8.067l-8.067,8.067l-8.067,-8.067Z" style="fill:none;fill-rule:nonzero;stroke:#fff;stroke-width:0.81px;stroke-linecap:butt;stroke-linejoin:miter;stroke-miterlimit:4;"/><path id="rect12764" d="M509.784,382.961l8.067,-8.068l8.067,8.068l-8.067,8.067l-8.067,-8.067Z" style="fill:none;fill-rule:nonzero;stroke:#fff;stroke-width:0.81px;stroke-linecap:butt;stroke-linejoin:miter;stroke-miterlimit:4;"/><path id="rect12766" d="M499.988,392.756l8.067,-8.067l8.067,8.067l-8.067,8.067l-8.067,-8.067Z" style="fill:none;fill-rule:nonzero;stroke:#fff;stroke-width:0.81px;stroke-linecap:butt;stroke-linejoin:miter;stroke-miterlimit:4;"/></g></g></g></g></g><rect x="481.51" y="361.143" width="295.622" height="43.708" style="fill:none;stroke:#000;stroke-width:2px;stroke-miterlimit:0.54878;"/></g><g id="Disks"><rect x="523.139" y="436.39" width="353.698" height="108.244" style="fill:none;stroke:#000;stroke-width:2px;stroke-miterlimit:0.54878;stroke-dasharray:8,8,0,0;"/><clipPath id="_clip4"><rect id="Git-Logo-2Color" x="769.927" y="472.252" width="95.217" height="40"/></clipPath><g clip-path="url(#_clip4)"><g><path d="M826.829,486.093c-2.082,0 -3.633,1.023 -3.633,3.483c0,1.854 1.022,3.14 3.52,3.14c2.118,0 3.556,-1.247 3.556,-3.217c0,-2.231 -1.287,-3.406 -3.443,-3.406Zm-4.163,17.371c-0.492,0.605 -0.983,1.247 -0.983,2.005c0,1.512 1.929,1.968 4.578,1.968c2.195,0 5.184,-0.154 5.184,-2.195c0,-1.212 -1.438,-1.288 -3.255,-1.402l-5.524,-0.376Zm11.201,-17.256c0.68,0.871 1.4,2.082 1.4,3.822c0,4.2 -3.292,6.659 -8.059,6.659c-1.213,0 -2.309,-0.151 -2.99,-0.339l-1.249,2.005l3.708,0.226c6.547,0.417 10.405,0.607 10.405,5.638c0,4.352 -3.821,6.811 -10.405,6.811c-6.849,0 -9.46,-1.741 -9.46,-4.73c0,-1.703 0.757,-2.61 2.082,-3.86c-1.25,-0.528 -1.665,-1.474 -1.665,-2.496c0,-0.833 0.415,-1.589 1.098,-2.309c0.68,-0.718 1.437,-1.438 2.345,-2.27c-1.854,-0.908 -3.254,-2.876 -3.254,-5.677c0,-4.351 2.876,-7.339 8.664,-7.339c1.628,0 2.612,0.15 3.482,0.378l7.38,0l0,3.216l-3.482,0.265Z" style="fill:#423100;fill-rule:nonzero;"/><path d="M844.005,479.332c-2.157,0 -3.405,-1.25 -3.405,-3.407c0,-2.155 1.248,-3.329 3.405,-3.329c2.195,0 3.444,1.174 3.444,3.329c0,2.157 -1.249,3.407 -3.444,3.407Zm-4.882,22.74l0,-2.988l1.931,-0.264c0.53,-0.077 0.605,-0.19 0.605,-0.759l0,-11.124c0,-0.416 -0.113,-0.682 -0.493,-0.794l-2.043,-0.72l0.416,-3.063l7.834,0l0,15.701c0,0.607 0.036,0.682 0.606,0.759l1.93,0.264l0,2.988l-10.786,0Z" style="fill:#423100;fill-rule:nonzero;"/><path d="M864.872,500.605c-1.628,0.794 -4.011,1.512 -6.169,1.512c-4.503,0 -6.205,-1.814 -6.205,-6.092l0,-9.913c0,-0.226 0,-0.379 -0.304,-0.379l-2.648,0l0,-3.367c3.331,-0.379 4.654,-2.045 5.07,-6.169l3.596,0l0,5.375c0,0.264 0,0.378 0.303,0.378l5.334,0l0,3.783l-5.637,0l0,9.044c0,2.232 0.53,3.102 2.572,3.102c1.061,0 2.157,-0.264 3.065,-0.605l1.023,3.331Z" style="fill:#423100;fill-rule:nonzero;"/><path d="M808.806,490.675l-17.302,-17.301c-0.995,-0.996 -2.611,-0.996 -3.608,0l-3.593,3.593l4.557,4.558c1.06,-0.358 2.274,-0.118 3.118,0.726c0.849,0.849 1.087,2.074 0.721,3.137l4.392,4.392c1.062,-0.366 2.288,-0.129 3.137,0.721c1.186,1.186 1.186,3.108 0,4.294c-1.187,1.187 -3.108,1.187 -4.295,0c-0.892,-0.893 -1.113,-2.203 -0.661,-3.302l-4.097,-4.097l0,10.78c0.29,0.143 0.562,0.334 0.803,0.574c1.186,1.186 1.186,3.107 0,4.295c-1.186,1.185 -3.109,1.185 -4.294,0c-1.186,-1.188 -1.186,-3.109 0,-4.295c0.294,-0.293 0.632,-0.514 0.995,-0.663l0,-10.879c-0.363,-0.148 -0.701,-0.368 -0.995,-0.663c-0.898,-0.898 -1.115,-2.216 -0.654,-3.319l-4.492,-4.494l-11.863,11.863c-0.996,0.997 -0.996,2.613 0,3.61l17.301,17.3c0.996,0.996 2.612,0.996 3.609,0l17.221,-17.22c0.996,-0.997 0.996,-2.614 0,-3.61Z" style="fill:#f05133;fill-rule:nonzero;"/></g></g><g><text x="611.65px" y="501.2px" style="font-family:'ArialMT', 'Arial', sans-serif;font-size:24px;">Local storage</text><path id="server" d="M566.407,469.608l30.529,0c1.054,0 1.908,0.854 1.908,1.908l0,7.632c0,1.054 -0.854,1.908 -1.908,1.908l-30.529,0c-1.053,0 -1.908,-0.854 -1.908,-1.908l0,-7.632c0,-1.054 0.855,-1.908 1.908,-1.908Zm0,15.264l30.529,0c1.054,0 1.908,0.855 1.908,1.908l0,7.633c0,1.053 -0.854,1.908 -1.908,1.908l-30.529,0c-1.053,0 -1.908,-0.855 -1.908,-1.908l0,-7.633c0,-1.053 0.855,-1.908 1.908,-1.908Zm0,15.265l30.529,0c1.054,0 1.908,0.854 1.908,1.908l0,7.632c0,1.054 -0.854,1.908 -1.908,1.908l-30.529,0c-1.053,0 -1.908,-0.854 -1.908,-1.908l0,-7.632c0,-1.054 0.855,-1.908 1.908,-1.908Zm9.541,-22.897l1.908,0l0,-3.816l-1.908,0l0,3.816Zm0,15.265l1.908,0l0,-3.816l-1.908,0l0,3.816Zm0,15.264l1.908,0l0,-3.816l-1.908,0l0,3.816Zm-7.633,-34.345l0,3.816l3.816,0l0,-3.816l-3.816,0Zm0,15.265l0,3.816l3.816,0l0,-3.816l-3.816,0Zm0,15.264l0,3.816l3.816,0l0,-3.816l-3.816,0Z" style="fill-rule:nonzero;"/></g></g><g id="PHP"><g id="g3438"><g id="g3440"><g id="g3442"><clipPath id="_clip5"><path d="M282.317,650.081c0,12.564 18.886,22.749 42.181,22.749c23.295,0 42.181,-10.185 42.181,-22.749c0,-12.563 -18.886,-22.748 -42.181,-22.748c-23.295,0 -42.181,10.185 -42.181,22.748"/></clipPath><g clip-path="url(#_clip5)"><g id="g3448"><g id="g3450"><path id="path3462" d="M282.317,650.081c0,12.564 18.886,22.749 42.181,22.749c23.295,0 42.181,-10.185 42.181,-22.749c0,-12.563 -18.886,-22.748 -42.181,-22.748c-23.295,0 -42.181,10.185 -42.181,22.748" style="fill:url(#_Radial6);fill-rule:nonzero;"/></g></g></g></g></g><g id="g3464"><g id="g3466"><g id="g3472"><path id="path3474" d="M324.498,671.141c22.386,0 40.533,-9.429 40.533,-21.06c0,-11.631 -18.147,-21.06 -40.533,-21.06c-22.385,0 -40.533,9.429 -40.533,21.06c0,11.631 18.148,21.06 40.533,21.06" style="fill:#777bb3;fill-rule:nonzero;"/></g></g></g><g id="g3476"><g id="g3478"><g id="g3484"><path id="path3486" d="M305.235,652.692c1.84,0 3.214,-0.348 4.084,-1.034c0.86,-0.679 1.454,-1.855 1.765,-3.496c0.291,-1.534 0.18,-2.605 -0.328,-3.183c-0.52,-0.59 -1.644,-0.889 -3.34,-0.889l-2.942,0l-1.631,8.602l2.392,0Zm-9.622,10.597c-0.136,0 -0.266,-0.062 -0.353,-0.17c-0.087,-0.109 -0.122,-0.251 -0.096,-0.388l4.322,-22.798c0.042,-0.22 0.23,-0.379 0.449,-0.379l9.315,0c2.927,0 5.106,0.814 6.476,2.422c1.377,1.616 1.802,3.875 1.264,6.713c-0.22,1.157 -0.596,2.231 -1.12,3.193c-0.525,0.962 -1.219,1.853 -2.062,2.648c-1.009,0.968 -2.151,1.671 -3.392,2.084c-1.221,0.408 -2.789,0.614 -4.661,0.614l-3.771,0l-1.077,5.682c-0.042,0.22 -0.23,0.379 -0.45,0.379l-4.844,0Z" style="fill-rule:nonzero;"/></g><g id="g3488"><path id="path3490" d="M304.851,644.559l2.565,0c2.047,0 2.759,0.46 3,0.735c0.401,0.456 0.477,1.417 0.219,2.779c-0.289,1.525 -0.826,2.606 -1.595,3.213c-0.788,0.622 -2.068,0.937 -3.805,0.937l-1.836,0l1.452,-7.664Zm4.399,-5.475l-9.315,0c-0.438,0 -0.815,0.319 -0.898,0.76l-4.322,22.797c-0.052,0.275 0.018,0.56 0.192,0.776c0.174,0.216 0.433,0.342 0.706,0.342l4.844,0c0.439,0 0.815,-0.319 0.899,-0.76l1.005,-5.302l3.394,0c1.92,0 3.536,-0.214 4.803,-0.637c1.303,-0.434 2.502,-1.17 3.563,-2.188c0.877,-0.827 1.6,-1.756 2.148,-2.761c0.548,-1.006 0.941,-2.127 1.17,-3.332c0.567,-2.988 0.106,-5.381 -1.368,-7.112c-1.461,-1.714 -3.756,-2.583 -6.821,-2.583m-6.962,14.077l2.947,0c1.953,0 3.407,-0.377 4.363,-1.131c0.956,-0.755 1.601,-2.014 1.936,-3.779c0.32,-1.694 0.174,-2.889 -0.438,-3.586c-0.614,-0.696 -1.84,-1.045 -3.68,-1.045l-3.319,0l-1.809,9.541m6.962,-13.138c2.802,0 4.846,0.754 6.131,2.262c1.285,1.508 1.672,3.612 1.159,6.315c-0.211,1.113 -0.568,2.131 -1.07,3.053c-0.503,0.923 -1.16,1.766 -1.971,2.531c-0.968,0.928 -2.042,1.59 -3.225,1.983c-1.182,0.395 -2.688,0.592 -4.519,0.592l-4.149,0l-1.149,6.061l-4.844,0l4.322,-22.797l9.315,0" style="fill:#fff;fill-rule:nonzero;"/></g><g id="g3492"><path id="path3494" d="M328.096,657.228c-0.137,0 -0.266,-0.062 -0.353,-0.171c-0.087,-0.108 -0.122,-0.25 -0.096,-0.387l1.911,-10.087c0.182,-0.96 0.137,-1.648 -0.126,-1.939c-0.161,-0.178 -0.645,-0.476 -2.076,-0.476l-3.463,0l-2.404,12.681c-0.042,0.22 -0.23,0.379 -0.449,0.379l-4.806,0c-0.137,0 -0.266,-0.062 -0.353,-0.171c-0.087,-0.108 -0.122,-0.25 -0.096,-0.387l4.322,-22.798c0.041,-0.22 0.23,-0.38 0.449,-0.38l4.806,0c0.136,0 0.266,0.063 0.353,0.171c0.087,0.108 0.122,0.251 0.096,0.388l-1.043,5.503l3.726,0c2.838,0 4.763,0.513 5.884,1.568c1.143,1.077 1.499,2.798 1.06,5.118l-2.011,10.609c-0.041,0.22 -0.23,0.379 -0.449,0.379l-4.882,0Z" style="fill-rule:nonzero;"/></g><g id="g3496"><path id="path3498" d="M325.362,633.023l-4.806,0c-0.438,0 -0.815,0.319 -0.899,0.76l-4.321,22.797c-0.053,0.275 0.018,0.56 0.192,0.776c0.174,0.216 0.433,0.341 0.706,0.341l4.806,0c0.438,0 0.815,-0.318 0.899,-0.759l2.331,-12.301l3.086,0c1.429,0 1.729,0.313 1.741,0.326c0.086,0.096 0.2,0.538 0.012,1.53l-1.912,10.087c-0.052,0.275 0.019,0.56 0.193,0.776c0.174,0.216 0.433,0.341 0.706,0.341l4.882,0c0.438,0 0.815,-0.318 0.899,-0.759l2.01,-10.609c0.472,-2.49 0.068,-4.358 -1.199,-5.552c-1.21,-1.139 -3.236,-1.693 -6.194,-1.693l-3.171,0l0.937,-4.943c0.052,-0.275 -0.018,-0.56 -0.192,-0.776c-0.174,-0.217 -0.433,-0.342 -0.706,-0.342m0,0.939l-1.149,6.061l4.281,0c2.694,0 4.552,0.482 5.575,1.445c1.022,0.963 1.329,2.524 0.92,4.682l-2.011,10.609l-4.882,0l1.912,-10.087c0.217,-1.147 0.137,-1.93 -0.24,-2.347c-0.378,-0.418 -1.182,-0.627 -2.412,-0.627l-3.841,0l-2.475,13.061l-4.806,0l4.322,-22.797l4.806,0" style="fill:#fff;fill-rule:nonzero;"/></g><g id="g3500"><path id="path3502" d="M343.042,652.692c1.841,0 3.215,-0.348 4.084,-1.034c0.861,-0.679 1.455,-1.855 1.766,-3.496c0.291,-1.534 0.18,-2.605 -0.329,-3.183c-0.519,-0.59 -1.643,-0.889 -3.34,-0.889l-2.941,0l-1.631,8.602l2.391,0Zm-9.621,10.597c-0.136,0 -0.266,-0.062 -0.353,-0.17c-0.087,-0.109 -0.122,-0.251 -0.096,-0.388l4.322,-22.798c0.042,-0.22 0.23,-0.379 0.449,-0.379l9.315,0c2.927,0 5.106,0.814 6.476,2.422c1.377,1.616 1.802,3.874 1.263,6.713c-0.219,1.157 -0.596,2.231 -1.12,3.193c-0.524,0.962 -1.218,1.853 -2.061,2.648c-1.009,0.968 -2.152,1.671 -3.392,2.084c-1.221,0.408 -2.789,0.614 -4.661,0.614l-3.772,0l-1.076,5.682c-0.042,0.22 -0.231,0.379 -0.45,0.379l-4.844,0Z" style="fill-rule:nonzero;"/></g><g id="g3504"><path id="path3506" d="M342.659,644.559l2.564,0c2.048,0 2.759,0.46 3.001,0.735c0.401,0.456 0.477,1.417 0.219,2.779c-0.29,1.525 -0.827,2.606 -1.596,3.213c-0.787,0.622 -2.068,0.937 -3.805,0.937l-1.836,0l1.453,-7.664Zm4.399,-5.475l-9.315,0c-0.438,0 -0.815,0.319 -0.898,0.76l-4.322,22.797c-0.052,0.275 0.018,0.56 0.192,0.776c0.174,0.216 0.433,0.342 0.706,0.342l4.844,0c0.438,0 0.815,-0.319 0.899,-0.76l1.005,-5.302l3.394,0c1.92,0 3.536,-0.214 4.803,-0.637c1.303,-0.434 2.502,-1.17 3.563,-2.188c0.877,-0.827 1.6,-1.756 2.148,-2.761c0.548,-1.006 0.941,-2.127 1.17,-3.332c0.566,-2.989 0.106,-5.381 -1.369,-7.112c-1.46,-1.714 -3.755,-2.583 -6.82,-2.583m-6.962,14.077l2.946,0c1.953,0 3.408,-0.377 4.364,-1.131c0.956,-0.755 1.6,-2.014 1.935,-3.779c0.321,-1.694 0.175,-2.889 -0.438,-3.586c-0.613,-0.696 -1.839,-1.045 -3.68,-1.045l-3.318,0l-1.809,9.541m6.962,-13.138c2.802,0 4.846,0.754 6.131,2.262c1.285,1.508 1.672,3.612 1.159,6.315c-0.211,1.113 -0.568,2.131 -1.07,3.053c-0.503,0.923 -1.16,1.766 -1.972,2.531c-0.967,0.928 -2.041,1.59 -3.224,1.983c-1.182,0.395 -2.688,0.592 -4.519,0.592l-4.149,0l-1.149,6.061l-4.844,0l4.322,-22.797l9.315,0" style="fill:#fff;fill-rule:nonzero;"/></g></g></g></g><rect x="231.75" y="588.275" width="186.349" height="105.82" style="fill:none;stroke:#000;stroke-width:2px;stroke-miterlimit:0.54878;stroke-dasharray:8,8,0,0;"/></g><g id="MySQL"><g><rect x="574.58" y="579.645" width="140.954" height="140.954" style="fill:#fff;"/><path d="M580.799,673.41l4.274,0l0,-16.835l6.591,14.682c0.783,1.762 1.827,2.382 3.915,2.382c2.089,0 3.132,-0.62 3.915,-2.382l6.591,-14.682l0,16.835l4.241,0l0,-16.802c0,-1.632 -0.652,-2.415 -1.99,-2.839c-3.23,-1.011 -5.416,-0.13 -6.395,2.055l-6.46,14.454l-6.264,-14.454c-0.946,-2.185 -3.165,-3.066 -6.395,-2.055c-1.37,0.424 -2.023,1.207 -2.023,2.839l0,16.802Z" style="fill:#00678f;"/><path d="M613.883,659.707l4.242,0l0,9.266c-0.033,0.522 0.163,1.697 2.511,1.73c1.175,0.032 9.169,0 9.234,0l0,-11.028l4.274,0c0.032,0 0,15.041 0,15.106c0.032,3.72 -4.6,4.502 -6.721,4.568l-13.442,0l0,-2.872c0,0 13.409,0.033 13.442,0c2.741,-0.261 2.414,-1.631 2.414,-2.087l0,-1.11l-9.038,0c-4.208,-0.065 -6.884,-1.892 -6.916,-4.013c0,-0.196 0.098,-9.462 0,-9.56Z" style="fill:#00678f;"/><path d="M705.531,649.038c-2.61,-0.065 -4.6,0.164 -6.329,0.914c-0.49,0.196 -1.24,0.196 -1.339,0.816c0.262,0.26 0.327,0.684 0.523,1.043c0.424,0.653 1.109,1.534 1.729,1.991c0.653,0.522 1.338,1.044 2.056,1.501c1.305,0.783 2.74,1.207 3.948,1.99c0.75,0.457 1.468,1.044 2.185,1.566c0.326,0.261 0.588,0.652 1.012,0.816l0,-0.066c-0.228,-0.294 -0.294,-0.718 -0.49,-1.044c-0.326,-0.326 -0.652,-0.652 -0.978,-0.978c-0.946,-1.24 -2.154,-2.35 -3.426,-3.263c-1.011,-0.718 -3.296,-1.729 -3.72,-2.904c-0.032,-0.033 -0.065,-0.033 -0.065,-0.065c0.718,-0.098 1.566,-0.359 2.219,-0.522c1.109,-0.294 2.12,-0.228 3.263,-0.522c0.522,-0.163 1.044,-0.294 1.565,-0.457l0,-0.293c-0.587,-0.588 -0.978,-1.404 -1.63,-1.926c-1.665,-1.435 -3.492,-2.838 -5.352,-4.013c-1.044,-0.685 -2.316,-1.109 -3.426,-1.664c-0.358,-0.163 -1.011,-0.261 -1.271,-0.587c-0.588,-0.718 -0.882,-1.664 -1.339,-2.512c-0.946,-1.827 -1.859,-3.785 -2.675,-5.677c-0.555,-1.272 -0.946,-2.545 -1.631,-3.72c-3.394,-5.547 -7.015,-8.907 -12.659,-12.202c-1.208,-0.686 -2.643,-0.979 -4.177,-1.338c-0.815,-0.065 -1.631,-0.098 -2.446,-0.163c-0.49,-0.196 -1.012,-0.815 -1.502,-1.109c-1.859,-1.175 -6.656,-3.752 -8.026,-0.359c-0.88,2.12 1.305,4.209 2.089,5.285c0.554,0.75 1.239,1.599 1.631,2.448c0.261,0.554 0.293,1.109 0.522,1.696c0.554,1.468 1.011,3.067 1.697,4.405c0.359,0.685 0.75,1.403 1.207,2.022c0.261,0.359 0.75,0.522 0.815,1.11c-0.457,0.653 -0.489,1.631 -0.75,2.447c-1.142,3.687 -0.718,8.222 0.978,10.962c0.523,0.816 1.73,2.61 3.426,1.926c1.469,-0.62 1.143,-2.448 1.567,-4.111c0.098,-0.359 0.032,-0.621 0.228,-0.882l0,0.065c0.424,0.915 0.881,1.795 1.338,2.676c0.978,1.599 2.74,3.295 4.241,4.404c0.751,0.588 1.371,1.6 2.382,1.926l0,-0.065l-0.098,0c-0.196,-0.294 -0.489,-0.424 -0.718,-0.653c-0.587,-0.587 -1.24,-1.306 -1.729,-1.958c-1.338,-1.826 -2.545,-3.85 -3.654,-5.938c-0.522,-1.011 -0.979,-2.12 -1.403,-3.132c-0.163,-0.391 -0.163,-0.979 -0.522,-1.207c-0.489,0.75 -1.175,1.371 -1.567,2.251c-0.587,1.403 -0.684,3.133 -0.88,4.894c-0.131,0.065 -0.098,0.032 -0.163,0.098c-1.044,-0.261 -1.403,-1.338 -1.795,-2.251c-0.946,-2.317 -1.142,-6.036 -0.294,-8.712c0.229,-0.685 1.241,-2.838 0.817,-3.491c-0.196,-0.619 -0.817,-1.011 -1.176,-1.5c-0.456,-0.587 -0.88,-1.371 -1.206,-2.056c-0.783,-1.827 -1.142,-3.85 -1.991,-5.677c-0.424,-0.881 -1.076,-1.762 -1.631,-2.512c-0.62,-0.881 -1.305,-1.501 -1.795,-2.545c-0.163,-0.359 -0.391,-0.946 -0.163,-1.338c0.098,-0.261 0.196,-0.358 0.457,-0.456c0.425,-0.327 1.632,0.13 2.088,0.293c1.175,0.522 2.186,0.979 3.198,1.664c0.489,0.326 0.978,0.946 1.566,1.109l0.653,0c1.044,0.229 2.218,0.066 3.197,0.36c1.729,0.521 3.295,1.337 4.698,2.25c4.307,2.709 7.797,6.558 10.212,11.159c0.392,0.751 0.555,1.435 0.881,2.218c0.685,1.599 1.566,3.23 2.251,4.764c0.653,1.566 1.338,3.132 2.284,4.405c0.522,0.685 2.48,1.044 3.36,1.403c0.62,0.26 1.632,0.554 2.219,0.913c1.142,0.653 2.219,1.469 3.296,2.219c0.522,0.358 2.153,1.174 2.218,1.859Z" style="fill:#00678f;"/><path d="M672.252,620.686c-0.522,0 -0.913,0.065 -1.337,0.163l0,0.065l0.097,0c0.261,0.523 0.718,0.881 1.044,1.338c0.229,0.522 0.49,1.044 0.718,1.565c0.032,-0.032 0.065,-0.065 0.098,-0.097c0.456,-0.294 0.652,-0.816 0.652,-1.631c-0.163,-0.196 -0.196,-0.424 -0.359,-0.652c-0.228,-0.327 -0.619,-0.49 -0.913,-0.751Z" style="fill:#00678f;"/><path d="M637.439,673.41l12.236,0c1.435,0 2.838,-0.294 3.947,-0.815c1.827,-0.848 2.741,-1.99 2.741,-3.491l0,-3.133c0,-1.206 -1.045,-2.381 -3.034,-3.132c-1.077,-0.424 -2.382,-0.62 -3.654,-0.62l-5.156,0c-1.729,0 -2.545,-0.522 -2.741,-1.663c-0.032,-0.13 -0.032,-0.261 -0.032,-0.392l0,-1.925c0,-0.13 0,-0.228 0.032,-0.359c0.196,-0.88 0.653,-1.141 2.154,-1.272c0.13,0 0.293,-0.033 0.424,-0.033l12.17,0l0,-2.838l-11.974,0c-1.729,0 -2.611,0.13 -3.426,0.359c-2.545,0.815 -3.654,2.055 -3.654,4.241l0,2.48c0,1.924 2.186,3.556 5.808,3.948c0.424,0 0.815,0.032 1.239,0.032l4.405,0c0.163,0 0.326,0 0.457,0.033c1.37,0.13 1.924,0.359 2.348,0.848c0.229,0.261 0.327,0.489 0.327,0.783l0,2.479c0,0.294 -0.196,0.686 -0.62,1.012c-0.359,0.326 -0.978,0.522 -1.794,0.588c-0.163,0 -0.294,0.032 -0.457,0.032l-11.746,0l0,2.838Z" style="fill:#e48e19;"/><path d="M682.921,668.451c0,2.937 2.154,4.568 6.558,4.894c0.391,0.033 0.815,0.065 1.207,0.065l11.093,0l0,-2.838l-11.158,0c-2.512,0 -3.459,-0.62 -3.459,-2.121l0,-14.714l-4.241,0l0,14.714Z" style="fill:#e48e19;"/><path d="M659.07,668.614l0,-10.114c0,-2.578 1.795,-4.144 5.385,-4.633c0.358,-0.065 0.782,-0.065 1.141,-0.065l8.091,0c0.392,0 0.751,0 1.175,0.065c3.557,0.489 5.383,2.055 5.383,4.633l0,10.114c0,2.089 -0.783,3.198 -2.544,3.915l4.209,3.785l-4.96,0l-3.393,-3.034l-3.426,0.196l-4.535,0c-0.783,0 -1.598,-0.098 -2.512,-0.36c-2.708,-0.717 -4.014,-2.152 -4.014,-4.502Zm4.601,-0.261c0,0.164 0.033,0.294 0.066,0.457c0.261,1.175 1.37,1.828 3.034,1.828l3.882,0l-3.556,-3.198l4.959,0l3.1,2.773c0.554,-0.294 0.946,-0.75 1.076,-1.338c0.033,-0.163 0.033,-0.293 0.033,-0.424l0,-9.723c0,-0.097 0,-0.228 -0.033,-0.359c-0.261,-1.108 -1.37,-1.728 -3.002,-1.728l-6.459,0c-1.893,0 -3.1,0.815 -3.1,2.087l0,9.625Z" style="fill:#e48e19;"/><path d="M703.737,673.41l0.619,0l0,-2.348l0.849,0l0,-0.49l-2.316,0l0,0.49l0.848,0l0,2.348Zm4.763,0l0.555,0l0,-2.838l-0.849,0l-0.75,1.957l-0.75,-1.957l-0.881,0l0,2.838l0.587,0l0,-2.153l0.816,2.153l0.424,0l0.815,-2.153l0.033,0l0,2.153Z" style="fill:#e48e19;"/><path d="M581.745,646.657l0,-10.702l3.328,0c0.783,0 1.338,0.066 1.73,0.196c0.489,0.196 0.88,0.522 1.207,1.044c0.293,0.489 0.456,1.109 0.456,1.827c0,0.979 -0.261,1.762 -0.75,2.349c-0.489,0.62 -1.337,0.914 -2.545,0.914l-2.251,0l0,4.372l-1.175,0Zm1.175,-5.612l2.284,0c0.718,0 1.24,-0.163 1.566,-0.49c0.326,-0.326 0.489,-0.815 0.489,-1.467c0,-0.425 -0.097,-0.784 -0.26,-1.078c-0.164,-0.326 -0.359,-0.522 -0.588,-0.619c-0.228,-0.131 -0.653,-0.164 -1.24,-0.164l-2.251,0l0,3.818Z" style="fill:#00678f;"/><path d="M589.609,641.436c0,-1.794 0.391,-3.197 1.207,-4.176c0.815,-0.979 1.794,-1.468 3.002,-1.468c0.782,0 1.5,0.196 2.12,0.652c0.653,0.424 1.142,1.077 1.534,1.893c0.359,0.848 0.554,1.827 0.554,2.969c0,1.599 -0.358,2.904 -1.076,3.882c-0.816,1.11 -1.86,1.664 -3.132,1.664c-1.306,0 -2.35,-0.587 -3.133,-1.697c-0.717,-1.011 -1.076,-2.25 -1.076,-3.719Zm1.207,0.033c0,1.305 0.294,2.349 0.881,3.067c0.554,0.717 1.272,1.109 2.121,1.109c0.848,0 1.565,-0.392 2.12,-1.109c0.587,-0.751 0.881,-1.827 0.881,-3.263c0,-0.913 -0.163,-1.729 -0.457,-2.447c-0.228,-0.555 -0.555,-1.012 -1.011,-1.338c-0.457,-0.326 -0.979,-0.489 -1.533,-0.489c-0.882,0 -1.6,0.359 -2.154,1.076c-0.587,0.751 -0.848,1.861 -0.848,3.394Z" style="fill:#00678f;"/><path d="M600.996,646.657l-2.317,-10.702l1.174,0l1.338,7.015c0.163,0.718 0.261,1.468 0.392,2.185l0.391,-1.957l1.697,-7.243l1.37,0l1.24,5.416c0.326,1.338 0.554,2.577 0.717,3.784c0.098,-0.684 0.229,-1.467 0.425,-2.315l1.37,-6.885l1.207,0l-2.414,10.702l-1.142,0l-1.86,-8.157l-0.293,-1.24c-0.066,0.457 -0.163,0.881 -0.229,1.24l-1.892,8.157l-1.174,0Z" style="fill:#00678f;"/><path d="M611.077,646.657l0,-10.702l6.329,0l0,1.272l-5.187,0l0,3.263l4.861,0l0,1.272l-4.861,0l0,3.655l5.383,0l0,1.24l-6.525,0Z" style="fill:#00678f;"/><path d="M619.201,646.657l0,-10.702l3.883,0c0.815,0 1.435,0.098 1.794,0.294c0.392,0.195 0.718,0.554 0.979,1.011c0.228,0.457 0.359,1.011 0.359,1.599c0,0.816 -0.196,1.468 -0.62,1.99c-0.424,0.489 -1.044,0.815 -1.86,0.946c0.326,0.196 0.587,0.392 0.75,0.588c0.359,0.424 0.653,0.881 0.914,1.37l1.533,2.904l-1.467,0l-1.176,-2.219c-0.456,-0.881 -0.783,-1.468 -1.011,-1.761c-0.228,-0.294 -0.456,-0.49 -0.685,-0.621c-0.196,-0.098 -0.489,-0.163 -0.88,-0.163l-1.339,0l0,4.764l-1.174,0Zm1.174,-5.971l2.48,0c0.555,0 0.979,-0.066 1.24,-0.196c0.293,-0.13 0.522,-0.359 0.685,-0.62c0.163,-0.293 0.229,-0.619 0.229,-0.978c0,-0.555 -0.131,-0.98 -0.457,-1.306c-0.327,-0.293 -0.784,-0.456 -1.403,-0.456l-2.774,0l0,3.556Z" style="fill:#00678f;"/><path d="M628.075,646.657l0,-10.702l6.33,0l0,1.272l-5.155,0l0,3.263l4.829,0l0,1.272l-4.829,0l0,3.655l5.383,0l0,1.24l-6.558,0Z" style="fill:#00678f;"/><path d="M636.2,646.657l0,-10.702l3.034,0c0.75,0 1.305,0.066 1.696,0.196c0.522,0.163 0.946,0.489 1.338,0.946c0.359,0.457 0.653,1.011 0.881,1.697c0.196,0.685 0.294,1.5 0.294,2.446c0,1.208 -0.163,2.252 -0.522,3.1c-0.359,0.848 -0.816,1.436 -1.371,1.795c-0.554,0.359 -1.305,0.522 -2.185,0.522l-3.165,0Zm1.174,-1.24l1.86,0c0.75,0 1.305,-0.131 1.696,-0.392c0.392,-0.228 0.685,-0.62 0.914,-1.174c0.261,-0.718 0.391,-1.599 0.391,-2.611c0,-1.076 -0.13,-1.957 -0.424,-2.577c-0.294,-0.62 -0.685,-1.044 -1.142,-1.24c-0.293,-0.13 -0.783,-0.196 -1.468,-0.196l-1.827,0l0,8.19Z" style="fill:#00678f;"/><path d="M648.76,646.657l0,-10.702l3.296,0c0.685,0 1.208,0.098 1.599,0.326c0.391,0.196 0.718,0.522 0.946,0.946c0.261,0.457 0.391,0.914 0.391,1.469c0,0.489 -0.13,0.913 -0.326,1.305c-0.228,0.391 -0.522,0.718 -0.913,0.946c0.489,0.195 0.913,0.522 1.207,0.946c0.293,0.457 0.424,1.012 0.424,1.664c0,0.653 -0.131,1.207 -0.392,1.696c-0.261,0.49 -0.619,0.849 -1.076,1.078c-0.424,0.228 -1.044,0.326 -1.828,0.326l-3.328,0Zm1.176,-6.2l1.892,0c0.489,0 0.848,-0.032 1.044,-0.097c0.326,-0.098 0.555,-0.294 0.718,-0.522c0.163,-0.229 0.228,-0.555 0.228,-0.979c0,-0.392 -0.065,-0.718 -0.196,-0.979c-0.163,-0.261 -0.358,-0.424 -0.62,-0.522c-0.228,-0.098 -0.685,-0.131 -1.305,-0.131l-1.761,0l0,3.23Zm0,4.96l2.185,0c0.457,0 0.816,-0.066 1.045,-0.131c0.326,-0.131 0.587,-0.359 0.75,-0.652c0.196,-0.261 0.261,-0.653 0.261,-1.077c0,-0.424 -0.065,-0.75 -0.228,-1.044c-0.163,-0.261 -0.392,-0.489 -0.685,-0.62c-0.262,-0.131 -0.719,-0.196 -1.306,-0.196l-2.022,0l0,3.72Z" style="fill:#00678f;"/><path d="M659.429,646.657l0,-4.535l-3.36,-6.167l1.403,0l1.729,3.23c0.359,0.653 0.653,1.24 0.914,1.827c0.261,-0.587 0.555,-1.207 0.946,-1.892l1.696,-3.165l1.339,0l-3.492,6.167l0,4.535l-1.175,0Z" style="fill:#00678f;"/></g><rect x="535.453" y="588.275" width="216.392" height="105.174" style="fill:none;stroke:#000;stroke-width:2px;stroke-miterlimit:0.54878;stroke-dasharray:8,8,0,0;"/></g><g id="Nginx"><g id="websites"><text x="203.028px" y="495.947px" style="font-family:'ArialMT', 'Arial', sans-serif;font-size:24px;">gen2.skylerdong.com</text></g><rect x="188.091" y="436.999" width="273.668" height="107.635" style="fill:none;stroke:#000;stroke-width:2px;stroke-miterlimit:0.54878;stroke-dasharray:8,8,0,0;"/><rect x="223.531" y="415.029" width="127.237" height="40.062" style="fill:#fff;"/><clipPath id="_clip7"><rect id="Nginx_logo" x="231.868" y="422.827" width="114.227" height="24"/></clipPath><g clip-path="url(#_clip7)"><g><path id="a" d="M234.335,444.263l0,-18.917l18.915,18.917l0,-18.917" style="fill:none;fill-rule:nonzero;stroke:#090;stroke-width:4.96px;stroke-miterlimit:4;"/><path d="M264.737,422.89l-0.682,1.271l-5.271,9.582l-0.683,1.209l0.683,1.21l5.271,9.271l0.713,1.271l13.799,0l0.682,-1.395l3.938,-7.938l1.767,-3.597l-4,0l-10.077,0.031c-1.311,-0.019 -2.516,1.17 -2.516,2.481c0,1.31 1.205,2.499 2.516,2.48l6.077,-0.031l-1.488,3.008l-7.814,0l-3.876,-6.822l3.907,-7.07l8.312,0l1.938,3.977l4.992,0l-3.147,-7.542l-0.682,-1.396l-14.359,0Z" style="fill:#090;fill-rule:nonzero;"/><path d="M289.867,422.859c-1.299,0.016 -2.466,1.213 -2.449,2.512l0,6.464l4.961,0l0,-6.464c0.016,-1.32 -1.192,-2.528 -2.512,-2.512Z" style="fill:#090;fill-rule:nonzero;"/><path id="a1" serif:id="a" d="M316.735,444.312l0,-18.918l-18.915,18.918l0,-18.918" style="fill:none;fill-rule:nonzero;stroke:#090;stroke-width:4.96px;stroke-miterlimit:4;"/><g><path id="b" d="M324.598,425.387l18.937,18.871" style="fill:none;fill-rule:nonzero;stroke:#090;stroke-width:4.96px;stroke-miterlimit:4;"/><path id="b1" serif:id="b" d="M343.557,425.387l-18.937,18.871" style="fill:none;fill-rule:nonzero;stroke:#090;stroke-width:4.96px;stroke-miterlimit:4;"/></g><path d="M289.867,446.721c-1.299,-0.016 -2.466,-1.213 -2.449,-2.512l0,-10.383l4.961,0l0,10.383c0.016,1.32 -1.192,2.528 -2.512,2.512Z" style="fill:#090;fill-rule:nonzero;"/></g></g><rect x="223.531" y="415.029" width="127.237" height="40.062" style="fill:none;stroke:#000;stroke-width:2px;stroke-miterlimit:0.54878;"/></g><path d="M395.808,624.311l-12,6l12,6l0,-12Z"/><path d="M551.302,624.311l12,6l-12,6l0,-12Z"/><path d="M393.408,630.311l160.294,0" style="fill:none;stroke:#000;stroke-width:4px;stroke-miterlimit:0.54878;"/><path d="M451.493,473.832l-12,6l12,6l0,-12Z"/><path d="M530.375,473.832l12,6l-12,6l0,-12Z"/><path d="M449.093,479.832l83.682,0" style="fill:none;stroke:#000;stroke-width:4px;stroke-miterlimit:0.54878;"/><path d="M391.605,579.557l-7.797,10.918l13.413,-0.313l-5.616,-10.605Z"/><path d="M528.962,506.822l13.413,-0.313l-7.797,10.918l-5.616,-10.605Z"/><path d="M392.292,585.982c27.515,-14.57 114.084,-60.411 141.599,-74.981" style="fill:none;stroke:#000;stroke-width:4px;stroke-miterlimit:0.54878;"/><path d="M330.925,527.7l-6,-12l-6,12l12,0Z"/><path d="M330.925,599.297l-6,12l-6,-12l12,0Z"/><path d="M324.925,525.3l0,76.397" style="fill:none;stroke:#000;stroke-width:4px;stroke-miterlimit:0.54878;"/><path d="M651.323,527.7l-6,-12l-6,12l12,0Z"/><path d="M651.323,599.297l-6,12l-6,-12l12,0Z"/><path d="M645.323,525.3l0,76.397" style="fill:none;stroke:#000;stroke-width:4px;stroke-miterlimit:0.54878;"/></g><g><path d="M1096.7,334.547l-6,12l-6,-12l12,0Z"/><path d="M1090.7,192.541l0,144.406" style="fill:none;stroke:#000;stroke-width:4px;stroke-miterlimit:0.54878;"/><path d="M1009.03,198.541l-12,-6l12,-6l0,12Z"/><path d="M1090.7,192.541l-84.071,0" style="fill:none;stroke:#000;stroke-width:4px;stroke-miterlimit:0.54878;"/></g><g id="Browser"><rect x="251.586" y="104.644" width="776.828" height="171.617" style="fill:none;stroke:#000;stroke-width:2px;stroke-miterlimit:0.54878;stroke-dasharray:8,8,0,0;"/><g id="html"><path d="M319.046,142.935l1.796,0l0,1.781l1.657,0l0,-1.781l1.797,0l0,5.391l-1.797,0l0,-1.797l-1.641,0l0,1.797l-1.812,0m7.625,-3.594l-1.586,0l0,-1.797l4.976,0l0,1.797l-1.594,0l0,3.594l-1.796,0m4.179,-5.391l1.883,0l1.156,1.898l1.157,-1.898l1.882,0l0,5.391l-1.797,0l0,-2.672l-1.257,1.937l-1.258,-1.937l0,2.672l-1.766,0m6.969,-5.391l1.797,0l0,3.609l2.547,0l0,1.782l-4.344,0" style="fill-rule:nonzero;"/><path d="M318.983,179.732l-2.578,-28.938l28.344,0l-2.578,28.922l-11.618,3.219" style="fill:#e44d26;fill-rule:nonzero;"/><path d="M330.577,180.474l0,-27.305l11.586,0l-2.211,24.688" style="fill:#f16529;fill-rule:nonzero;"/><path d="M321.671,156.708l8.906,0l0,3.547l-5.016,0l0.328,3.633l4.688,0l0,3.539l-7.938,0m0.157,1.781l3.562,0l0.25,2.836l3.969,1.063l0,3.703l-7.281,-2.031" style="fill:#ebebeb;fill-rule:nonzero;"/><path d="M339.452,156.708l-8.891,0l0,3.547l8.563,0m-0.321,3.633l-8.242,0l0,3.547l4.375,0l-0.414,4.609l-3.961,1.063l0,3.687l7.266,-2.015" style="fill:#fff;fill-rule:nonzero;"/><text x="298.979px" y="220.256px" style="font-family:'ArialMT', 'Arial', sans-serif;font-size:24px;">HTML</text></g><text x="375.593px" y="191.06px" style="font-family:'ArialMT', 'Arial', sans-serif;font-size:24px;">+</text><g id="js"><rect x="434.867" y="142.935" width="40" height="40" style="fill:#f7df1e;"/><path d="M461.737,174.185c0.806,1.316 1.854,2.283 3.708,2.283c1.558,0 2.553,-0.779 2.553,-1.854c0,-1.289 -1.023,-1.746 -2.737,-2.496l-0.94,-0.403c-2.712,-1.155 -4.514,-2.603 -4.514,-5.663c0,-2.819 2.148,-4.965 5.505,-4.965c2.39,0 4.108,0.831 5.346,3.009l-2.927,1.88c-0.645,-1.156 -1.34,-1.611 -2.419,-1.611c-1.101,0 -1.799,0.698 -1.799,1.611c0,1.127 0.698,1.584 2.311,2.282l0.94,0.403c3.194,1.369 4.997,2.765 4.997,5.904c0,3.385 -2.659,5.239 -6.229,5.239c-3.491,0 -5.746,-1.664 -6.849,-3.844l3.054,-1.775Zm-13.278,0.326c0.591,1.047 1.128,1.933 2.419,1.933c1.235,0 2.014,-0.483 2.014,-2.362l0,-12.781l3.759,0l0,12.832c0,3.892 -2.282,5.664 -5.613,5.664c-3.009,0 -4.752,-1.558 -5.639,-3.434l3.06,-1.852Z" style="fill-rule:nonzero;"/><text x="397.636px" y="220.256px" style="font-family:'ArialMT', 'Arial', sans-serif;font-size:24px;">JavaScript</text></g><text x="520.916px" y="191.116px" style="font-family:'ArialMT', 'Arial', sans-serif;font-size:24.094px;">+</text><g id="jquery"><g><path d="M612.955,161.32l0,-0.001l-0.85,3.016l0.851,-3.013l-0.001,-0.002Zm4.377,6.547l-0.937,0.001l0.938,0.006l-0.001,-0.007Zm-0.241,4.501l0.001,0l-5.617,0.02l5.616,-0.02Zm1.171,-4.496l-0.938,-0.006l0.938,0.006Zm-0.679,4.114l0.979,-3.731l-0.979,3.732l0,-0.001Zm20.68,-17.184l-1.822,8.568l1.822,-8.568Zm-4.685,0l-1.384,6.401l1.384,-6.401Z" style="fill:#131b28;fill-rule:nonzero;"/><path d="M637.951,154.416l-3.897,0c-0.226,0.009 -0.421,0.166 -0.477,0.385l-2.767,12.803c-0.057,0.219 -0.251,0.375 -0.477,0.384l-2.758,0c-2.73,0 -2.414,-1.886 -1.855,-4.466l0.017,-0.078l0.33,-1.762l0.143,-0.725l1.259,-6.147c0.043,-0.212 -0.099,-0.386 -0.315,-0.386l-4,0c-0.216,0 -0.431,0.173 -0.475,0.385l-1.801,8.547c-0.991,4.523 -0.728,8.836 4.657,8.972l0.156,0.003l8.452,0c0.216,0 0.43,-0.173 0.475,-0.385l3.644,-17.144c0.045,-0.212 -0.095,-0.386 -0.312,-0.386l0.001,0Zm15.548,13.618c0.006,-0.001 0.013,-0.001 0.019,-0.001c0.168,0 0.306,0.139 0.306,0.307c0,0.026 -0.003,0.053 -0.01,0.079l-0.379,1.849m-0.377,1.851l0.377,-1.851l-0.378,1.852l0.001,-0.001Zm-0.475,0.389l-7.182,0.035l7.182,-0.035l0,0Z" style="fill:#131b28;fill-rule:nonzero;"/><path d="M643.075,165.651c-0.003,-0.203 0.227,-0.551 0.444,-0.551l-0.486,-0.008c-0.22,2.2 0.042,0.56 0.042,0.56l0,-0.001Zm2.68,6.891l-0.074,0l0.074,0Zm7.744,-4.508c0.006,-0.001 0.013,-0.001 0.019,-0.001c0.168,0 0.306,0.139 0.306,0.307c0,0.026 -0.003,0.053 -0.01,0.079l-0.44,2.151m-5.773,1.968l-0.016,0l0.016,0Zm-0.957,-0.003l-0.055,0l0.055,0Zm-0.292,0l-0.092,0l0.092,0Zm-0.29,0l-0.08,0l0.08,0Zm0.533,0l-0.236,0l0.236,0Z" style="fill:#131b28;fill-rule:nonzero;"/><path d="M647.585,172.538l-0.933,0.004l0.933,-0.004Zm5,-0.03l-4.986,0.031l4.986,-0.031Zm0.467,-0.388l0.317,-1.55l-0.318,1.55l0.001,0Zm-6.79,0.415l-0.2,0l0.2,0Zm-0.582,0.001l-0.278,0l0.278,0Zm0.295,-0.001l-0.22,0l0.22,0Zm-57.013,-6.837l0.605,-2.684l-0.692,3.068l-0.664,3.124l0.582,-2.733l0.169,-0.769l0,-0.006Zm7.246,-11.334l-4.281,0c-0.226,0.01 -0.421,0.165 -0.48,0.384l-0.812,3.583c-0.008,0.027 -0.012,0.055 -0.012,0.084c0,0.164 0.135,0.3 0.3,0.3c0.006,0 0.012,0 0.018,-0.001l4.314,0c0.226,-0.008 0.421,-0.165 0.478,-0.384l0.784,-3.582c0.047,-0.211 -0.093,-0.384 -0.309,-0.384Zm-0.933,5.967l-1.255,5.8l1.255,-5.8Zm-12.433,19.243l3.529,0.028c-1.042,0 -2.762,-0.02 -3.53,-0.029l0.001,0.001Zm7.33,-19.244l-0.6,2.684l0.6,-2.684Z" style="fill:#131b28;fill-rule:nonzero;"/><path d="M594.966,159.946l-4.313,0c-0.226,0.009 -0.421,0.165 -0.48,0.384l-1.212,5.366l-0.168,0.77l-1.164,5.478c-0.057,0.256 -0.127,0.509 -0.208,0.758c-0.081,0.25 -0.8,2.398 -2.16,2.371l-1.342,-0.025c-0.226,0.005 -0.423,0.158 -0.484,0.376l-0.893,3.76c-0.009,0.028 -0.013,0.058 -0.013,0.087c0,0.165 0.135,0.3 0.3,0.3c0.004,0 0.009,0 0.014,0l3.53,0.029c3.384,0 5.168,-1.876 6.312,-7.271l2.6,-12c0.046,-0.211 -0.093,-0.384 -0.31,-0.384l-0.009,0.001Zm61.283,12.378c-0.216,0 -0.357,-0.174 -0.312,-0.386l3.246,-15.2" style="fill:#131b28;fill-rule:nonzero;"/><path d="M660.758,171.938l1.313,-6.488l-1.313,6.488Zm-4.773,0.2c-0.027,-0.107 -0.011,-0.366 0.035,-0.578l1.533,-7.215l-1.622,7.6c-0.046,0.212 0.094,0.385 0.311,0.385l0.4,0c-0.217,0 -0.632,-0.086 -0.658,-0.2l0.001,0.008Z" style="fill:#131b28;fill-rule:nonzero;"/><path d="M660.502,172.237c-0.118,0.048 -0.391,0.087 -0.608,0.087l0.4,0c0.216,0 0.429,-0.174 0.471,-0.387l0.078,-0.385c-0.043,0.212 -0.217,0.637 -0.335,0.684l-0.006,0.001Zm0.913,-3.543l0.58,-2.864l-0.58,2.864Z" style="fill:#131b28;fill-rule:nonzero;"/><path d="M674.22,157.756l0.179,0.739c0.049,0.211 -0.087,0.383 -0.304,0.383m-13.258,12.667l0.578,-2.859l-0.578,2.859Zm13.205,-14.552l0.177,0.757l-0.177,-0.757Zm-12.048,8.831l0.16,-0.766l0.619,-2.898l-0.7,3.283l-0.078,0.38l-0.001,0.001Zm-2.759,-9.336l-1.668,7.85l1.676,-7.85l-0.008,0Z" style="fill:#131b28;fill-rule:nonzero;"/><path d="M674.398,158.495l-0.179,-0.739l-0.266,-1.133c-0.351,-1.361 -1.38,-2.147 -3.614,-2.147l-6.68,-0.008l-3.603,0c-0.216,0 -0.431,0.174 -0.475,0.385l-0.16,0.753l-0.24,1.138l-3.162,14.816c-0.047,0.212 -0.062,0.472 -0.036,0.578c0.026,0.106 0.442,0.2 0.658,0.2l3.251,0c0.217,0 0.491,-0.04 0.608,-0.087c0.117,-0.047 0.293,-0.467 0.335,-0.685l1.235,-6.102l1.32,-6.183c0.057,-0.218 0.25,-0.374 0.475,-0.383l10.228,-0.005c0.216,-0.001 0.354,-0.172 0.304,-0.383l0.001,-0.015Zm13.167,-6.68l-0.787,0.003l-3.267,0c-0.242,0.014 -0.467,0.133 -0.616,0.325l-7.24,10.6c-0.122,0.18 -0.262,0.153 -0.31,-0.058l-0.533,-2.337c-0.059,-0.218 -0.255,-0.374 -0.481,-0.383l-4.654,0c-0.007,-0.001 -0.015,-0.001 -0.023,-0.001c-0.154,0 -0.28,0.126 -0.28,0.28c0,0.034 0.006,0.067 0.018,0.099l2.085,7.305c0.06,0.25 0.064,0.509 0.011,0.76l-0.909,3.536c-0.054,0.21 0.08,0.382 0.296,0.382l4.6,0c0.216,0 0.437,-0.171 0.491,-0.382l0.909,-3.536c0.073,-0.249 0.186,-0.484 0.335,-0.696l11.753,-15.598c0.131,-0.174 0.067,-0.314 -0.156,-0.312l-1.234,0.008l-0.008,0.005Zm-36.974,9.151c-0.026,0.23 -0.244,0.402 -0.466,0.402l-5.9,0c-0.204,0 -0.307,-0.138 -0.278,-0.31c0.002,-0.004 0.003,-0.009 0.006,-0.013c-0.003,-0.005 -0.003,-0.011 -0.001,-0.018l0.027,-0.1c0.563,-1.498 1.711,-2.482 3.868,-2.482c2.429,0 2.903,1.187 2.738,2.52l0.006,0.001Zm-1.73,-6.811c-7.574,0 -9.369,4.597 -10.376,9.237c-1,4.73 -0.92,9.152 6.918,9.152l0.278,0l0.074,-0.001l0.598,0l0.291,-0.001l0.956,-0.003l4.987,-0.031c0.223,-0.012 0.415,-0.169 0.47,-0.386l0.757,-3.703c0.007,-0.026 0.01,-0.053 0.01,-0.079c0,-0.168 -0.138,-0.307 -0.306,-0.307c-0.006,0 -0.013,0 -0.019,0.001l-7.046,0c-2.802,0 -3.635,-0.745 -3.328,-2.934l11.263,0c0.184,-0.006 0.347,-0.12 0.417,-0.29c0.013,-0.032 0.022,-0.065 0.027,-0.099c1.671,-6.307 1.191,-10.555 -5.973,-10.555l0.002,-0.001Zm-35.799,6.78l-0.107,0.377c0,0.002 -0.85,3.016 -0.85,3.016l-0.843,3.02c-0.072,0.218 -0.272,0.369 -0.501,0.379l-4.501,0c-3.415,0 -4.247,-2.671 -3.415,-6.609c0.832,-4.029 2.462,-6.534 5.822,-6.787c4.6,-0.347 5.512,2.884 4.402,6.612l-0.007,-0.008Zm3.087,6.553c0,0 2.122,-5.153 2.604,-8.13c0.658,-3.978 -1.336,-9.756 -9.042,-9.756c-7.662,0 -10.982,5.517 -12.258,11.514c-1.27,6.04 0.4,11.339 8.012,11.296l11.626,-0.043c0.228,-0.012 0.426,-0.165 0.494,-0.383l0.978,-3.732c0.055,-0.209 -0.078,-0.382 -0.293,-0.382l-1.875,-0.012c-0.184,-0.001 -0.29,-0.12 -0.267,-0.278c0.004,-0.03 0.011,-0.059 0.023,-0.088l-0.002,-0.006Z" style="fill:#131b28;fill-rule:nonzero;"/><path d="M654.078,164.046c0,0.142 -0.115,0.258 -0.259,0.258c-0.141,0 -0.258,-0.117 -0.258,-0.258c0,-0.143 0.116,-0.258 0.258,-0.258c0.143,0 0.259,0.115 0.259,0.258Z" style="fill:#131b28;fill-rule:nonzero;"/></g><path d="M557.646,157.345c-2.115,3.04 -1.852,6.997 -0.236,10.227l0.2,0.375c0.015,0.029 0.031,0.057 0.047,0.083c0.026,0.052 0.056,0.1 0.084,0.151l0.153,0.265l0.088,0.144l0.256,0.398c0.084,0.126 0.171,0.251 0.259,0.374l0.052,0.069c0.077,0.106 0.156,0.211 0.236,0.314l0.089,0.113l0.219,0.268l0.083,0.1c0.099,0.118 0.201,0.234 0.304,0.348c0.011,0.011 0.013,0.013 0.018,0.02c0.101,0.11 0.205,0.218 0.309,0.326l0.1,0.1l0.247,0.242l0.101,0.096c0.112,0.104 0.224,0.2 0.338,0.308c0.025,0.022 0.045,0.038 0.064,0.054l0.307,0.267l0.133,0.101l0.256,0.2l0.137,0.104l0.287,0.2l0.104,0.075c0.01,0.007 0.019,0.013 0.029,0.02c0.092,0.063 0.185,0.124 0.28,0.185l0.12,0.08c0.144,0.091 0.29,0.181 0.437,0.268l0.12,0.068l0.328,0.184c0.067,0.032 0.122,0.062 0.182,0.093l0.234,0.122l0.054,0.027l0.096,0.046l0.372,0.172l0.078,0.036c0.144,0.062 0.289,0.122 0.434,0.18l0.106,0.041l0.409,0.152l0.051,0.018c0.152,0.053 0.304,0.102 0.457,0.149l0.11,0.034c0.156,0.046 0.311,0.103 0.471,0.133c10.231,1.867 13.203,-6.148 13.203,-6.148c-2.496,3.252 -6.933,4.109 -11.124,3.155c-0.159,-0.036 -0.313,-0.086 -0.469,-0.132l-0.116,-0.035c-0.152,-0.047 -0.302,-0.095 -0.452,-0.147l-0.062,-0.022c-0.133,-0.047 -0.266,-0.096 -0.398,-0.147l-0.111,-0.044c-0.145,-0.057 -0.288,-0.117 -0.429,-0.179l-0.087,-0.038l-0.362,-0.168l-0.105,-0.05l-0.28,-0.143l-0.186,-0.098c-0.114,-0.067 -0.225,-0.124 -0.336,-0.188l-0.114,-0.063c-0.147,-0.087 -0.293,-0.177 -0.437,-0.268c-0.04,-0.026 -0.079,-0.054 -0.118,-0.079l-0.311,-0.2l-0.1,-0.071l-0.294,-0.213l-0.396,-0.299l-0.118,-0.094l-0.331,-0.279c-0.011,-0.01 -0.024,-0.02 -0.036,-0.031c-0.117,-0.103 -0.233,-0.208 -0.347,-0.316l-0.098,-0.093l-0.25,-0.245l-0.098,-0.098l-0.306,-0.324c-0.005,-0.005 -0.01,-0.011 -0.016,-0.016c-0.105,-0.116 -0.209,-0.234 -0.31,-0.354l-0.082,-0.096l-0.224,-0.277l-0.082,-0.102l-0.258,-0.344c-2.331,-3.179 -3.168,-7.563 -1.306,-11.164m4.922,-0.468c-1.53,2.201 -1.446,5.149 -0.253,7.477c0.2,0.392 0.426,0.769 0.677,1.13c0.229,0.328 0.483,0.72 0.786,0.983c0.111,0.122 0.226,0.241 0.344,0.356c0.029,0.03 0.06,0.06 0.09,0.089l0.351,0.334c0.005,0.004 0.009,0.008 0.013,0.013c0.137,0.12 0.267,0.232 0.414,0.342l0.093,0.067c0.14,0.108 0.283,0.212 0.429,0.312c0.004,0.004 0.008,0.007 0.013,0.01c0.065,0.044 0.13,0.086 0.195,0.128c0.032,0.02 0.062,0.042 0.094,0.062c0.104,0.066 0.21,0.132 0.317,0.194l0.045,0.027l0.28,0.157c0.033,0.018 0.066,0.034 0.1,0.052l0.196,0.101c0.01,0.005 0.02,0.009 0.03,0.013c0.135,0.067 0.272,0.13 0.41,0.191c0.03,0.013 0.066,0.025 0.09,0.037l0.336,0.136l0.144,0.054c0.102,0.038 0.205,0.066 0.308,0.106l0.134,0.045c0.146,0.047 0.293,0.103 0.446,0.129c7.9,1.308 9.723,-4.774 9.723,-4.774c-1.644,2.368 -4.827,3.498 -8.225,2.616c-0.15,-0.04 -0.299,-0.083 -0.447,-0.13c-0.045,-0.013 -0.089,-0.028 -0.135,-0.043c-0.105,-0.034 -0.209,-0.07 -0.312,-0.108l-0.142,-0.053c-0.113,-0.044 -0.225,-0.089 -0.336,-0.136l-0.104,-0.046c-0.139,-0.06 -0.277,-0.124 -0.412,-0.191c-0.07,-0.033 -0.138,-0.07 -0.2,-0.105l-0.12,-0.062c-0.088,-0.047 -0.175,-0.097 -0.262,-0.147l-0.062,-0.035c-0.107,-0.063 -0.212,-0.134 -0.317,-0.2c-0.032,-0.02 -0.063,-0.043 -0.095,-0.064l-0.199,-0.129c-0.145,-0.1 -0.287,-0.2 -0.427,-0.312l-0.096,-0.075c-1.486,-1.174 -2.666,-2.779 -3.226,-4.598c-0.587,-1.886 -0.467,-4.004 0.556,-5.723m4.267,-0.157c-0.902,1.334 -0.991,2.976 -0.365,4.442c0.667,1.556 2.012,2.776 3.591,3.355l0.196,0.068l0.087,0.027l0.281,0.081c4.362,0.843 5.545,-2.238 5.867,-2.691c-1.037,1.492 -2.778,1.85 -4.915,1.331c-0.175,-0.045 -0.348,-0.098 -0.517,-0.159c-0.209,-0.075 -0.414,-0.16 -0.614,-0.256c-0.38,-0.182 -0.742,-0.403 -1.077,-0.656c-1.912,-1.451 -3.1,-4.219 -1.852,-6.467" style="fill:#0868ac;fill-rule:nonzero;"/><text x="588.108px" y="219.975px" style="font-family:'ArialMT', 'Arial', sans-serif;font-size:24px;">jQuery</text></g><text x="694.793px" y="191.06px" style="font-family:'ArialMT', 'Arial', sans-serif;font-size:24px;">+</text><g id="Sass"><text x="734.227px" y="219.963px" style="font-family:'ArialMT', 'Arial', sans-serif;font-size:24px;">Sass</text><clipPath id="_clip8"><rect id="Sass-Logo--Color-" serif:id="Sass Logo (Color)" x="734.806" y="142.935" width="53.333" height="40"/></clipPath><g clip-path="url(#_clip8)"><g><path d="M772.5,173.172c-0.169,-0.121 -0.141,-0.51 0.416,-1.722c0.218,-0.476 0.716,-1.277 1.583,-2.042c0.1,0.315 0.161,0.616 0.159,0.898c-0.011,1.875 -1.349,2.575 -2.158,2.866Zm-7.121,1.623c-0.226,0.118 -0.434,0.193 -0.531,0.135c-0.071,-0.042 0.094,-0.198 0.094,-0.198c0,0 1.156,-1.244 1.611,-1.81c0.265,-0.33 0.572,-0.721 0.907,-1.158c0.003,0.044 0.004,0.087 0.004,0.13c-0.003,1.49 -1.443,2.496 -2.085,2.901Zm-9.243,-4.411c-0.535,1.304 -1.655,4.641 -2.336,4.462c-0.585,-0.154 -0.941,-2.69 -0.117,-5.186c0.415,-1.256 1.302,-2.757 1.822,-3.34c0.838,-0.938 1.761,-1.244 1.986,-0.864c0.285,0.484 -1.02,4.111 -1.355,4.928Zm-11.188,7.606c-1.536,1.676 -3.682,2.309 -4.602,1.776c-0.993,-0.576 -0.6,-3.043 1.285,-4.821c1.148,-1.083 2.631,-2.081 3.615,-2.696c0.224,-0.135 0.553,-0.333 0.953,-0.572c0.066,-0.038 0.103,-0.059 0.103,-0.059l-0.001,-0.002c0.077,-0.046 0.156,-0.094 0.238,-0.143c0.685,2.531 0.02,4.759 -1.591,6.517Zm35.738,-12.048c-1.864,0.01 -3.477,0.457 -4.83,1.124c-0.495,-0.988 -0.996,-1.856 -1.08,-2.502c-0.098,-0.754 -0.212,-1.204 -0.093,-2.103c0.118,-0.898 0.638,-2.17 0.631,-2.265c-0.008,-0.095 -0.117,-0.553 -1.192,-0.561c-1.074,-0.007 -1.994,0.207 -2.102,0.491c-0.108,0.284 -0.315,0.922 -0.444,1.588c-0.188,0.975 -2.145,4.45 -3.257,6.268c-0.363,-0.709 -0.673,-1.335 -0.737,-1.83c-0.098,-0.754 -0.212,-1.204 -0.093,-2.102c0.118,-0.898 0.638,-2.171 0.63,-2.266c-0.007,-0.095 -0.116,-0.553 -1.191,-0.56c-1.075,-0.008 -1.994,0.206 -2.102,0.49c-0.108,0.284 -0.224,0.947 -0.444,1.588c-0.22,0.642 -2.822,6.439 -3.504,7.942c-0.347,0.766 -0.649,1.381 -0.862,1.801c-0.001,-0.001 -0.002,-0.002 -0.002,-0.002c0,0 -0.013,0.028 -0.036,0.075c-0.182,0.357 -0.291,0.555 -0.291,0.555c0,0 0.001,0.003 0.003,0.008c-0.144,0.262 -0.3,0.506 -0.377,0.506c-0.053,0 -0.161,-0.699 0.024,-1.658c0.387,-2.011 1.317,-5.148 1.308,-5.256c-0.005,-0.055 0.173,-0.602 -0.608,-0.887c-0.758,-0.278 -1.028,0.185 -1.097,0.186c-0.067,0.002 -0.117,0.164 -0.117,0.164c0,0 0.845,-3.527 -1.612,-3.527c-1.536,0 -3.664,1.68 -4.712,3.203c-0.662,0.361 -2.078,1.134 -3.58,1.959c-0.577,0.317 -1.165,0.641 -1.723,0.948c-0.038,-0.042 -0.076,-0.084 -0.115,-0.125c-2.979,-3.178 -8.486,-5.426 -8.252,-9.699c0.085,-1.553 0.625,-5.643 10.581,-10.604c8.156,-4.064 14.685,-2.946 15.813,-0.467c1.612,3.541 -3.489,10.122 -11.959,11.071c-3.227,0.362 -4.926,-0.889 -5.349,-1.355c-0.445,-0.49 -0.511,-0.512 -0.677,-0.42c-0.271,0.15 -0.1,0.583 0,0.841c0.252,0.658 1.29,1.825 3.059,2.406c1.557,0.51 5.346,0.791 9.927,-0.981c5.132,-1.985 9.139,-7.507 7.962,-12.123c-1.197,-4.694 -8.98,-6.238 -16.347,-3.62c-4.384,1.557 -9.131,4.002 -12.543,7.194c-4.058,3.795 -4.705,7.098 -4.438,8.478c0.947,4.905 7.707,8.098 10.414,10.465c-0.134,0.074 -0.259,0.143 -0.373,0.206c-1.357,0.671 -6.51,3.368 -7.799,6.217c-1.462,3.232 0.233,5.551 1.355,5.863c3.476,0.967 7.044,-0.773 8.961,-3.632c1.916,-2.859 1.682,-6.581 0.803,-8.281c-0.011,-0.021 -0.023,-0.041 -0.035,-0.062c0.351,-0.208 0.708,-0.419 1.062,-0.627c0.691,-0.405 1.369,-0.783 1.957,-1.104c-0.329,0.902 -0.57,1.984 -0.695,3.545c-0.148,1.835 0.604,4.206 1.588,5.139c0.433,0.411 0.954,0.42 1.285,0.42c1.144,0 1.667,-0.952 2.242,-2.078c0.705,-1.382 1.331,-2.99 1.331,-2.99c0,0 -0.785,4.344 1.355,4.344c0.78,0 1.564,-1.011 1.914,-1.527c0.001,0.006 0.001,0.009 0.001,0.009c0,0 0.021,-0.034 0.06,-0.101c0.081,-0.124 0.127,-0.202 0.127,-0.202c0,0 0.002,-0.009 0.004,-0.023c0.314,-0.544 1.009,-1.785 2.052,-3.832c1.347,-2.644 2.639,-5.956 2.639,-5.956c0,0 0.12,0.81 0.514,2.149c0.232,0.788 0.724,1.659 1.112,2.494c-0.313,0.434 -0.505,0.683 -0.505,0.683c0,0 0.002,0.004 0.006,0.013c-0.25,0.331 -0.53,0.689 -0.823,1.038c-1.063,1.266 -2.33,2.712 -2.499,3.13c-0.2,0.492 -0.153,0.853 0.233,1.144c0.282,0.213 0.784,0.246 1.308,0.211c0.956,-0.065 1.628,-0.302 1.96,-0.446c0.517,-0.183 1.119,-0.47 1.684,-0.886c1.043,-0.767 1.672,-1.864 1.612,-3.317c-0.034,-0.8 -0.289,-1.594 -0.612,-2.343c0.095,-0.136 0.189,-0.274 0.285,-0.413c1.644,-2.404 2.919,-5.045 2.919,-5.045c0,0 0.121,0.81 0.514,2.149c0.2,0.678 0.593,1.417 0.946,2.142c-1.546,1.257 -2.505,2.716 -2.838,3.674c-0.615,1.771 -0.133,2.573 0.771,2.756c0.41,0.083 0.988,-0.105 1.423,-0.289c0.542,-0.18 1.193,-0.479 1.8,-0.925c1.043,-0.767 2.046,-1.841 1.986,-3.294c-0.028,-0.661 -0.207,-1.318 -0.451,-1.949c1.311,-0.546 3.008,-0.849 5.169,-0.597c4.637,0.542 5.546,3.437 5.372,4.648c-0.174,1.212 -1.146,1.878 -1.471,2.079c-0.325,0.201 -0.425,0.271 -0.397,0.421c0.039,0.217 0.19,0.209 0.467,0.162c0.382,-0.065 2.435,-0.986 2.522,-3.222c0.112,-2.84 -2.608,-5.959 -7.427,-5.933Z" style="fill:#cd679a;fill-rule:nonzero;"/></g></g></g><text x="813.312px" y="191.06px" style="font-family:'ArialMT', 'Arial', sans-serif;font-size:24px;">+</text><g id="Bootstrap"><text x="835.598px" y="219.963px" style="font-family:'ArialMT', 'Arial', sans-serif;font-size:24px;">Bootstrap</text><path d="M907.359,176.268c0,3.667 -3,6.667 -6.666,6.667l-26.667,0c-3.667,0 -6.667,-3 -6.667,-6.667l0,-26.666c0,-3.667 3,-6.667 6.667,-6.667l26.667,0c3.666,0 6.666,3 6.666,6.667l0,26.666Z" style="fill:#563d7c;fill-rule:nonzero;"/><path d="M878.229,151.628l11.34,0c2.091,0 3.771,0.477 5.032,1.438c1.262,0.96 1.896,2.405 1.896,4.346c0,1.177 -0.288,2.183 -0.863,3.02c-0.575,0.836 -1.399,1.49 -2.471,1.947l0,0.066c1.438,0.307 2.53,0.987 3.268,2.039c0.739,1.059 1.111,2.379 1.111,3.974c0,0.915 -0.163,1.771 -0.49,2.562c-0.327,0.797 -0.836,1.484 -1.536,2.059c-0.699,0.575 -1.588,1.032 -2.679,1.372c-1.092,0.34 -2.386,0.51 -3.889,0.51l-10.719,0l0,-23.333Zm4.085,9.771l6.666,0c0.981,0 1.798,-0.274 2.451,-0.837c0.654,-0.562 0.981,-1.359 0.981,-2.405c0,-1.176 -0.294,-2.006 -0.883,-2.483c-0.588,-0.478 -1.438,-0.719 -2.549,-0.719l-6.666,0l0,6.444Zm0,10.229l7.222,0c1.242,0 2.209,-0.32 2.889,-0.968c0.686,-0.64 1.032,-1.555 1.032,-2.732c0,-1.156 -0.339,-2.039 -1.032,-2.666c-0.693,-0.628 -1.647,-0.928 -2.889,-0.928l-7.222,0l0,7.294Z" style="fill:#fff;fill-rule:nonzero;"/></g><rect x="313.293" y="80.877" width="115.144" height="47.535" style="fill:#fff;"/><text x="325.812px" y="113.094px" style="font-family:'ArialMT', 'Arial', sans-serif;font-size:24px;">Browser</text><rect x="313.293" y="80.877" width="115.144" height="47.535" style="fill:none;stroke:#000;stroke-width:2px;stroke-miterlimit:0.54878;"/></g><g id="Tracking"><g><path d="M1110.77,374.973l2.744,7.204l-5.317,0l2.573,-7.204Zm-1.029,-2.401l-6.003,15.78l2.23,0l1.544,-4.288l6.689,0l1.544,4.288l2.23,0l-6.003,-15.78l-2.231,0Zm32.416,15.78l2.058,0l0,-15.78l-2.058,0l0,15.78Zm-21.103,-9.263c0.686,-1.029 2.058,-1.886 3.43,-1.886c2.744,0 4.117,1.886 4.117,4.631l0,6.689l-2.058,0l0,-6.346c0,-2.23 -1.2,-3.087 -2.744,-3.087c-1.715,0 -2.916,1.715 -2.916,3.259l0,6.003l-2.058,0l0,-10.977l2.058,0l0.171,1.715l0,-0.001Zm9.263,6.004c0,-2.401 2.23,-3.773 4.803,-3.773c1.544,0 2.573,0.343 2.916,0.687l0,-0.344c0,-1.715 -1.372,-2.573 -2.744,-2.573c-1.2,0 -2.23,0.515 -2.574,1.544l-1.881,-0.859c0.343,-1.029 1.715,-2.573 4.467,-2.573c2.573,0 4.802,1.544 4.802,4.631l0,6.518l-1.886,0l0,-1.551l-0.172,0c-0.514,0.857 -1.715,1.887 -3.602,1.887c-2.23,0 -4.116,-1.372 -4.116,-3.602m7.718,-1.372c0,0 -0.857,-0.687 -2.573,-0.687c-2.058,0 -2.916,1.2 -2.916,2.058c0,1.2 1.2,1.715 2.23,1.715c1.544,0 3.259,-1.372 3.259,-3.086" style="fill:#757575;fill-rule:nonzero;"/><path d="M1147.12,393.153l2.401,-5.666l-4.288,-9.948l2.058,0l3.259,7.546l3.259,-7.546l2.058,0l-6.688,15.614l-2.059,0Zm30.187,-12.005c-0.516,-1.373 -1.716,-2.23 -2.916,-2.23c-1.715,0 -3.258,1.544 -3.258,3.773c0,2.23 1.544,3.774 3.258,3.774c1.2,0 2.402,-0.858 2.916,-2.058l1.716,1.029c-0.858,1.887 -2.574,3.087 -4.632,3.087c-2.916,0 -5.317,-2.574 -5.317,-5.832c0,-3.43 2.401,-5.832 5.317,-5.832c2.058,0 3.774,1.2 4.632,3.087l-1.716,1.2l0,0.002Z" style="fill:#757575;"/><path d="M1184.69,388.695c2.744,0 4.116,-1.544 4.116,-3.431c0,-4.117 -6.003,-2.573 -6.003,-4.973c0,-0.858 0.687,-1.372 1.887,-1.372c1.2,0 2.401,0.514 2.916,1.372l1.2,-1.2c-0.687,-0.858 -2.574,-2.058 -4.288,-2.058c-2.574,0 -3.945,1.544 -3.945,3.43c0,3.945 6.175,2.574 6.175,4.632c0,1.029 -0.687,1.715 -2.058,1.715c-1.372,0 -2.058,-0.857 -2.744,-1.715l-1.544,1.2c1.029,1.029 2.573,2.401 4.288,2.401l0,-0.001Zm-19.554,-0.344l2.058,0l0,-10.976l-2.058,0l0,10.977l0,-0.001Z" style="fill:#757575;fill-rule:nonzero;"/><path d="M1165.99,372.057c0.858,0 1.372,0.687 1.372,1.372c0,0.858 -0.686,1.372 -1.372,1.372c-0.685,0 -1.372,-0.686 -1.372,-1.372c0,-0.685 0.687,-1.372 1.372,-1.372Zm-2.915,14.58l0.343,1.544l-2.058,0c-1.886,0 -2.744,-1.372 -2.744,-3.43l0,-5.318l-2.058,0l0,-2.058l2.058,0l0,-3.258l2.058,0l0,3.258l2.402,0l0,2.058l-2.402,0l0,5.667c0,1.544 1.2,1.544 2.402,1.544l-0.001,-0.007Z" style="fill:#757575;"/><path d="M1036.66,378.918l0,2.573l6.004,0c-0.172,1.372 -0.687,2.402 -1.372,3.087c-0.858,0.857 -2.23,1.887 -4.632,1.887c-3.602,0 -6.518,-2.916 -6.518,-6.69c0,-3.602 2.916,-6.689 6.518,-6.689c2.058,0 3.431,0.857 4.467,1.715l1.715,-1.715c-1.544,-1.372 -3.43,-2.573 -6.174,-2.573c-4.974,0 -9.262,4.116 -9.262,9.09c0,4.974 4.281,9.09 9.255,9.09c2.744,0 4.803,-0.857 6.347,-2.573c1.715,-1.715 2.23,-3.945 2.23,-5.832c0,-0.515 0,-1.2 -0.172,-1.544l-8.4,0l-0.006,0.174Zm15.266,-2.051c-3.259,0 -5.832,2.401 -5.832,5.832c0,3.43 2.573,5.831 5.832,5.831c3.258,0 5.832,-2.573 5.832,-5.831c0,-3.431 -2.574,-5.832 -5.832,-5.832Zm0,9.433c-1.716,0 -3.259,-1.544 -3.259,-3.602c0,-2.058 1.544,-3.602 3.259,-3.602c1.714,0 3.258,1.372 3.258,3.602c0,2.23 -1.544,3.602 -3.258,3.602Zm28.129,-8.233c-0.687,-0.687 -1.715,-1.372 -3.259,-1.372c-2.916,0 -5.488,2.573 -5.488,5.832c0,3.258 2.573,5.831 5.488,5.831c1.372,0 2.574,-0.687 3.087,-1.372l0.171,0l0,0.857c0,2.23 -1.2,3.431 -3.086,3.431c-1.544,0 -2.574,-1.2 -2.916,-2.058l-2.23,0.857c0.686,1.544 2.401,3.431 5.145,3.431c3.087,0 5.667,-1.715 5.667,-6.175l0,-10.633l-2.402,0l0,1.372l-0.177,-0.001Zm-2.916,8.233c-1.715,0 -3.087,-1.544 -3.087,-3.602c0,-2.058 1.372,-3.602 3.087,-3.602c1.715,0 3.087,1.544 3.087,3.602c0,2.058 -1.372,3.602 -3.087,3.602Zm-12.521,-9.433c-3.259,0 -5.832,2.401 -5.832,5.832c0,3.43 2.573,5.831 5.832,5.831c3.258,0 5.832,-2.573 5.832,-5.831c0.171,-3.431 -2.574,-5.832 -5.832,-5.832Zm0,9.433c-1.716,0 -3.259,-1.544 -3.259,-3.602c0,-2.058 1.544,-3.602 3.259,-3.602c1.714,0 3.258,1.372 3.258,3.602c0,2.23 -1.544,3.602 -3.258,3.602Zm19.896,-15.615l2.574,0l0,17.838l-2.574,0l0,-17.838Zm9.606,15.608c-1.372,0 -2.23,-0.686 -2.916,-1.715l7.89,-3.259l-0.344,-0.686c-0.514,-1.372 -2.058,-3.774 -4.973,-3.774c-3.087,0 -5.489,2.402 -5.489,5.832c0,3.259 2.574,5.832 5.832,5.832c2.744,0 4.288,-1.716 4.974,-2.574l-2.058,-1.372c-0.687,1.03 -1.544,1.716 -2.916,1.716l0,0Zm-0.172,-7.204c1.03,0 1.887,0.515 2.23,1.372l-5.317,2.23c0,-2.573 1.715,-3.602 3.087,-3.602l0,0Z" style="fill:#757575;fill-rule:nonzero;"/></g><g><path d="M1012.81,368.167l0,23.313c0,2.609 1.801,4.062 3.709,4.062c1.766,0 3.709,-1.236 3.709,-4.062l0,-23.137c0,-2.391 -1.766,-3.885 -3.709,-3.885c-1.943,0 -3.709,1.647 -3.709,3.709Z" style="fill:#f9ab00;fill-rule:nonzero;"/><g><path d="M1003.1,380l0,11.48c0,2.609 1.801,4.062 3.709,4.062c1.766,0 3.709,-1.236 3.709,-4.062l0,-11.303c0,-2.392 -1.766,-3.886 -3.709,-3.886c-1.943,0 -3.709,1.648 -3.709,3.709Z" style="fill:#e37400;fill-rule:nonzero;"/><ellipse cx="997.091" cy="391.833" rx="3.709" ry="3.709" style="fill:#e37400;"/></g></g><rect x="941.741" y="323.23" width="297.923" height="92.22" style="fill:none;stroke:#000;stroke-width:2px;stroke-miterlimit:0.54878;stroke-dasharray:8,8,0,0;"/></g><g id="User"><path id="user" d="M191.748,184.259c0,4.562 -3,8.282 -6.656,8.282l-26.688,0c-3.656,0 -6.656,-3.718 -6.656,-8.282c0,-8.218 2.032,-17.718 10.218,-17.718c2.532,2.468 5.968,4 9.782,4c3.814,0 7.25,-1.532 9.782,-4c8.188,0 10.218,9.5 10.218,17.718Zm-8,-27.718c0,6.626 -5.376,12 -12,12c-6.624,0 -12,-5.376 -12,-12c0,-6.624 5.376,-12 12,-12c6.624,0 12,5.376 12,12Z" style="fill-rule:nonzero;"/><text x="145.304px" y="220.213px" style="font-family:'ArialMT', 'Arial', sans-serif;font-size:24px;">User</text></g><path d="M222.989,176l-12,6l12,6l0,-12Z"/><path d="M275.974,176l12,6l-12,6l0,-12Z"/><path d="M220.589,182l57.785,0" style="fill:none;stroke:#000;stroke-width:4px;stroke-miterlimit:0.54878;"/><path d="M437.221,263.645l-6,-12l-6,12l12,0Z"/><path d="M437.221,456.484l-6,12l-6,-12l12,0Z"/><path d="M431.221,261.245l0,197.639" style="fill:none;stroke:#000;stroke-width:4px;stroke-miterlimit:0.54878;"/><text x="301.788px" y="53.521px" style="font-family:'Arial-BoldMT', 'Arial', sans-serif;font-weight:700;font-size:36px;">Architecture of my 2nd generation sites</text><defs><radialGradient id="_Radial6" cx="0" cy="0" r="1" gradientUnits="userSpaceOnUse" gradientTransform="matrix(55.3895,0,0,56.7873,307.643,635.33)"><stop offset="0" style="stop-color:#aeb2d5;stop-opacity:1"/><stop offset="0.3" style="stop-color:#aeb2d5;stop-opacity:1"/><stop offset="0.75" style="stop-color:#484c89;stop-opacity:1"/><stop offset="1" style="stop-color:#484c89;stop-opacity:1"/></radialGradient></defs></svg>